%TF.GenerationSoftware,KiCad,Pcbnew,9.0.4*%
%TF.CreationDate,2026-01-26T15:03:43-08:00*%
%TF.ProjectId,mb,6d622e6b-6963-4616-945f-706362585858,B*%
%TF.SameCoordinates,Original*%
%TF.FileFunction,Soldermask,Bot*%
%TF.FilePolarity,Negative*%
%FSLAX46Y46*%
G04 Gerber Fmt 4.6, Leading zero omitted, Abs format (unit mm)*
G04 Created by KiCad (PCBNEW 9.0.4) date 2026-01-26 15:03:43*
%MOMM*%
%LPD*%
G01*
G04 APERTURE LIST*
G04 Aperture macros list*
%AMRoundRect*
0 Rectangle with rounded corners*
0 $1 Rounding radius*
0 $2 $3 $4 $5 $6 $7 $8 $9 X,Y pos of 4 corners*
0 Add a 4 corners polygon primitive as box body*
4,1,4,$2,$3,$4,$5,$6,$7,$8,$9,$2,$3,0*
0 Add four circle primitives for the rounded corners*
1,1,$1+$1,$2,$3*
1,1,$1+$1,$4,$5*
1,1,$1+$1,$6,$7*
1,1,$1+$1,$8,$9*
0 Add four rect primitives between the rounded corners*
20,1,$1+$1,$2,$3,$4,$5,0*
20,1,$1+$1,$4,$5,$6,$7,0*
20,1,$1+$1,$6,$7,$8,$9,0*
20,1,$1+$1,$8,$9,$2,$3,0*%
G04 Aperture macros list end*
%ADD10C,2.800000*%
%ADD11RoundRect,0.250000X-0.750000X-0.750000X0.750000X-0.750000X0.750000X0.750000X-0.750000X0.750000X0*%
%ADD12C,2.000000*%
%ADD13RoundRect,0.250000X0.750000X0.750000X-0.750000X0.750000X-0.750000X-0.750000X0.750000X-0.750000X0*%
%ADD14C,4.000000*%
%ADD15R,1.600000X1.600000*%
%ADD16C,1.600000*%
%ADD17C,1.700000*%
%ADD18R,1.700000X1.700000*%
%ADD19RoundRect,0.250000X0.550000X-0.550000X0.550000X0.550000X-0.550000X0.550000X-0.550000X-0.550000X0*%
%ADD20C,1.000000*%
%ADD21C,2.540000*%
%ADD22C,1.778000*%
%ADD23C,2.032000*%
%ADD24C,3.251200*%
%ADD25RoundRect,0.140000X-0.140000X-0.170000X0.140000X-0.170000X0.140000X0.170000X-0.140000X0.170000X0*%
%ADD26RoundRect,0.140000X-0.170000X0.140000X-0.170000X-0.140000X0.170000X-0.140000X0.170000X0.140000X0*%
%ADD27RoundRect,0.140000X0.219203X0.021213X0.021213X0.219203X-0.219203X-0.021213X-0.021213X-0.219203X0*%
%ADD28RoundRect,0.140000X0.140000X0.170000X-0.140000X0.170000X-0.140000X-0.170000X0.140000X-0.170000X0*%
%ADD29RoundRect,0.140000X0.170000X-0.140000X0.170000X0.140000X-0.170000X0.140000X-0.170000X-0.140000X0*%
%ADD30RoundRect,0.135000X0.135000X0.185000X-0.135000X0.185000X-0.135000X-0.185000X0.135000X-0.185000X0*%
G04 APERTURE END LIST*
D10*
%TO.C,TP402*%
X63627000Y-58293000D03*
%TD*%
%TO.C,TP401*%
X52197000Y-58166000D03*
%TD*%
%TO.C,TP202*%
X127101600Y-88493600D03*
%TD*%
%TO.C,TP204*%
X91948000Y-41275000D03*
%TD*%
%TO.C,TP205*%
X104876600Y-61518800D03*
%TD*%
D11*
%TO.C,C325*%
X120631423Y-38201600D03*
D12*
X125631423Y-38201600D03*
%TD*%
D13*
%TO.C,C235*%
X117268000Y-106807000D03*
D12*
X112268000Y-106807000D03*
%TD*%
D11*
%TO.C,C236*%
X108223923Y-38201600D03*
D12*
X113223923Y-38201600D03*
%TD*%
D14*
%TO.C,J407*%
X78381200Y-115929669D03*
X103381200Y-115929669D03*
D15*
X96421200Y-114509669D03*
D16*
X93651200Y-114509669D03*
X90881200Y-114509669D03*
X88111200Y-114509669D03*
X85341200Y-114509669D03*
X95036200Y-117349669D03*
X92266200Y-117349669D03*
X89496200Y-117349669D03*
X86726200Y-117349669D03*
%TD*%
D17*
%TO.C,SW201*%
X117297200Y-115826400D03*
X117297200Y-122326400D03*
X112797200Y-115826400D03*
X112797200Y-122326400D03*
%TD*%
D15*
%TO.C,J405*%
X40779000Y-109373800D03*
D16*
X38279000Y-109373800D03*
X38279000Y-111373800D03*
X40779000Y-111373800D03*
D14*
X33529000Y-114073800D03*
X45569000Y-114073800D03*
%TD*%
D18*
%TO.C,J403*%
X80773685Y-109064773D03*
D17*
X78233685Y-109064773D03*
%TD*%
D10*
%TO.C,TP208*%
X127000000Y-93912267D03*
%TD*%
%TO.C,TP203*%
X127000000Y-99432533D03*
%TD*%
D19*
%TO.C,SW202*%
X93665418Y-96368618D03*
D16*
X96205418Y-96368618D03*
X98745418Y-96368618D03*
X101285418Y-96368618D03*
X101285418Y-88748618D03*
X98745418Y-88748618D03*
X96205418Y-88748618D03*
X93665418Y-88748618D03*
%TD*%
D18*
%TO.C,J201*%
X125967800Y-112826800D03*
D17*
X125967800Y-115366800D03*
X125967800Y-117906800D03*
X125967800Y-120446800D03*
X125967800Y-122986800D03*
%TD*%
D20*
%TO.C,Y203*%
X83002385Y-68970615D03*
X83002385Y-70870615D03*
%TD*%
D18*
%TO.C,J202*%
X113588800Y-98506200D03*
D17*
X113588800Y-95966200D03*
%TD*%
D18*
%TO.C,J503*%
X33334400Y-30895800D03*
D17*
X33334400Y-28355800D03*
X35874400Y-30895800D03*
X35874400Y-28355800D03*
X38414400Y-30895800D03*
X38414400Y-28355800D03*
X40954400Y-30895800D03*
X40954400Y-28355800D03*
X43494400Y-30895800D03*
X43494400Y-28355800D03*
X46034400Y-30895800D03*
X46034400Y-28355800D03*
X48574400Y-30895800D03*
X48574400Y-28355800D03*
X51114400Y-30895800D03*
X51114400Y-28355800D03*
X53654400Y-30895800D03*
X53654400Y-28355800D03*
X56194400Y-30895800D03*
X56194400Y-28355800D03*
X58734400Y-30895800D03*
X58734400Y-28355800D03*
X61274400Y-30895800D03*
X61274400Y-28355800D03*
X63814400Y-30895800D03*
X63814400Y-28355800D03*
X66354400Y-30895800D03*
X66354400Y-28355800D03*
X68894400Y-30895800D03*
X68894400Y-28355800D03*
X71434400Y-30895800D03*
X71434400Y-28355800D03*
X73974400Y-30895800D03*
X73974400Y-28355800D03*
X76514400Y-30895800D03*
X76514400Y-28355800D03*
X79054400Y-30895800D03*
X79054400Y-28355800D03*
X81594400Y-30895800D03*
X81594400Y-28355800D03*
X84134400Y-30895800D03*
X84134400Y-28355800D03*
X86674400Y-30895800D03*
X86674400Y-28355800D03*
X89214400Y-30895800D03*
X89214400Y-28355800D03*
X91754400Y-30895800D03*
X91754400Y-28355800D03*
X94294400Y-30895800D03*
X94294400Y-28355800D03*
X96834400Y-30895800D03*
X96834400Y-28355800D03*
X99374400Y-30895800D03*
X99374400Y-28355800D03*
X101914400Y-30895800D03*
X101914400Y-28355800D03*
X104454400Y-30895800D03*
X104454400Y-28355800D03*
X106994400Y-30895800D03*
X106994400Y-28355800D03*
X109534400Y-30895800D03*
X109534400Y-28355800D03*
X112074400Y-30895800D03*
X112074400Y-28355800D03*
X114614400Y-30895800D03*
X114614400Y-28355800D03*
X117154400Y-30895800D03*
X117154400Y-28355800D03*
X119694400Y-30895800D03*
X119694400Y-28355800D03*
X122234400Y-30895800D03*
X122234400Y-28355800D03*
X124774400Y-30895800D03*
X124774400Y-28355800D03*
X127314400Y-30895800D03*
X127314400Y-28355800D03*
%TD*%
D21*
%TO.C,J406*%
X53937200Y-113874300D03*
X65367200Y-113874300D03*
D22*
X64097200Y-104984300D03*
X62827200Y-107524300D03*
X61557200Y-104984300D03*
X60287200Y-107524300D03*
X59017200Y-104984300D03*
X57747200Y-107524300D03*
X56477200Y-104984300D03*
X55207200Y-107524300D03*
D23*
X65113200Y-100158300D03*
X62573200Y-100158300D03*
X56731200Y-100158300D03*
X54191200Y-100158300D03*
D24*
X51778200Y-110826300D03*
X67526200Y-110826300D03*
%TD*%
D10*
%TO.C,TP201*%
X126873000Y-106553000D03*
%TD*%
D25*
%TO.C,C310*%
X117117400Y-74213000D03*
X118077400Y-74213000D03*
%TD*%
D26*
%TO.C,C313*%
X117851400Y-68399000D03*
X117851400Y-69359000D03*
%TD*%
D27*
%TO.C,C221*%
X92130411Y-67643611D03*
X91451589Y-66964789D03*
%TD*%
D28*
%TO.C,C214*%
X92855200Y-75686200D03*
X91895200Y-75686200D03*
%TD*%
D26*
%TO.C,C208*%
X98572800Y-75358600D03*
X98572800Y-76318600D03*
%TD*%
D28*
%TO.C,C229*%
X97782800Y-71520600D03*
X96822800Y-71520600D03*
%TD*%
D26*
%TO.C,C231*%
X96886800Y-68440400D03*
X96886800Y-69400400D03*
%TD*%
D28*
%TO.C,C307*%
X114902400Y-66821600D03*
X113942400Y-66821600D03*
%TD*%
%TO.C,C222*%
X97782800Y-72460400D03*
X96822800Y-72460400D03*
%TD*%
%TO.C,C311*%
X107714200Y-66821600D03*
X106754200Y-66821600D03*
%TD*%
D25*
%TO.C,C225*%
X92962000Y-69869600D03*
X93922000Y-69869600D03*
%TD*%
D26*
%TO.C,C206*%
X95728000Y-71624800D03*
X95728000Y-72584800D03*
%TD*%
D25*
%TO.C,C305*%
X117142800Y-66847000D03*
X118102800Y-66847000D03*
%TD*%
D28*
%TO.C,C216*%
X92067800Y-70834800D03*
X91107800Y-70834800D03*
%TD*%
D25*
%TO.C,C205*%
X96949800Y-66821600D03*
X97909800Y-66821600D03*
%TD*%
D28*
%TO.C,C312*%
X109187400Y-74162200D03*
X108227400Y-74162200D03*
%TD*%
D25*
%TO.C,C308*%
X111199200Y-73197000D03*
X112159200Y-73197000D03*
%TD*%
D29*
%TO.C,C314*%
X116013000Y-73868200D03*
X116013000Y-72908200D03*
%TD*%
D28*
%TO.C,C306*%
X107307800Y-73806600D03*
X106347800Y-73806600D03*
%TD*%
D25*
%TO.C,C219*%
X97778400Y-68641000D03*
X98738400Y-68641000D03*
%TD*%
D29*
%TO.C,C209*%
X94956400Y-70086200D03*
X94956400Y-69126200D03*
%TD*%
D25*
%TO.C,C220*%
X92911200Y-72714400D03*
X93871200Y-72714400D03*
%TD*%
D28*
%TO.C,C232*%
X93845800Y-74746400D03*
X92885800Y-74746400D03*
%TD*%
%TO.C,C228*%
X96893800Y-74086000D03*
X95933800Y-74086000D03*
%TD*%
D26*
%TO.C,C217*%
X94788200Y-71624800D03*
X94788200Y-72584800D03*
%TD*%
D25*
%TO.C,C226*%
X92936600Y-70809400D03*
X93896600Y-70809400D03*
%TD*%
%TO.C,C223*%
X91082400Y-73273200D03*
X92042400Y-73273200D03*
%TD*%
%TO.C,C309*%
X113129600Y-74060600D03*
X114089600Y-74060600D03*
%TD*%
D29*
%TO.C,C230*%
X97810800Y-65853800D03*
X97810800Y-64893800D03*
%TD*%
D26*
%TO.C,C302*%
X119019800Y-73047200D03*
X119019800Y-74007200D03*
%TD*%
D25*
%TO.C,C227*%
X92936600Y-71749200D03*
X93896600Y-71749200D03*
%TD*%
%TO.C,C234*%
X97778400Y-74076600D03*
X98738400Y-74076600D03*
%TD*%
D30*
%TO.C,R307*%
X112532100Y-71084068D03*
X111512100Y-71084068D03*
%TD*%
D29*
%TO.C,C211*%
X95921600Y-70010000D03*
X95921600Y-69050000D03*
%TD*%
M02*
