%TF.GenerationSoftware,KiCad,Pcbnew,9.0.4*%
%TF.CreationDate,2026-01-26T15:03:43-08:00*%
%TF.ProjectId,mb,6d622e6b-6963-4616-945f-706362585858,B*%
%TF.SameCoordinates,Original*%
%TF.FileFunction,Legend,Bot*%
%TF.FilePolarity,Positive*%
%FSLAX46Y46*%
G04 Gerber Fmt 4.6, Leading zero omitted, Abs format (unit mm)*
G04 Created by KiCad (PCBNEW 9.0.4) date 2026-01-26 15:03:43*
%MOMM*%
%LPD*%
G01*
G04 APERTURE LIST*
%ADD10C,0.100000*%
%ADD11C,0.508000*%
%ADD12C,0.120000*%
G04 APERTURE END LIST*
D10*
X78608400Y-45236600D02*
X129751400Y-45236600D01*
X129751400Y-85236600D01*
X78608400Y-85236600D01*
X78608400Y-45236600D01*
X58779319Y-102730931D02*
X58755509Y-102683312D01*
X58755509Y-102683312D02*
X58755509Y-102611883D01*
X58755509Y-102611883D02*
X58779319Y-102540455D01*
X58779319Y-102540455D02*
X58826938Y-102492836D01*
X58826938Y-102492836D02*
X58874557Y-102469026D01*
X58874557Y-102469026D02*
X58969795Y-102445217D01*
X58969795Y-102445217D02*
X59041223Y-102445217D01*
X59041223Y-102445217D02*
X59136461Y-102469026D01*
X59136461Y-102469026D02*
X59184080Y-102492836D01*
X59184080Y-102492836D02*
X59231700Y-102540455D01*
X59231700Y-102540455D02*
X59255509Y-102611883D01*
X59255509Y-102611883D02*
X59255509Y-102659502D01*
X59255509Y-102659502D02*
X59231700Y-102730931D01*
X59231700Y-102730931D02*
X59207890Y-102754740D01*
X59207890Y-102754740D02*
X59041223Y-102754740D01*
X59041223Y-102754740D02*
X59041223Y-102659502D01*
X59255509Y-102969026D02*
X58755509Y-102969026D01*
X58755509Y-102969026D02*
X59255509Y-103254740D01*
X59255509Y-103254740D02*
X58755509Y-103254740D01*
X59255509Y-103492836D02*
X58755509Y-103492836D01*
X58755509Y-103492836D02*
X58755509Y-103611884D01*
X58755509Y-103611884D02*
X58779319Y-103683312D01*
X58779319Y-103683312D02*
X58826938Y-103730931D01*
X58826938Y-103730931D02*
X58874557Y-103754741D01*
X58874557Y-103754741D02*
X58969795Y-103778550D01*
X58969795Y-103778550D02*
X59041223Y-103778550D01*
X59041223Y-103778550D02*
X59136461Y-103754741D01*
X59136461Y-103754741D02*
X59184080Y-103730931D01*
X59184080Y-103730931D02*
X59231700Y-103683312D01*
X59231700Y-103683312D02*
X59255509Y-103611884D01*
X59255509Y-103611884D02*
X59255509Y-103492836D01*
X65568909Y-96753331D02*
X65568909Y-96515236D01*
X65568909Y-96515236D02*
X65068909Y-96515236D01*
X65307004Y-96919998D02*
X65307004Y-97086665D01*
X65568909Y-97158093D02*
X65568909Y-96919998D01*
X65568909Y-96919998D02*
X65068909Y-96919998D01*
X65068909Y-96919998D02*
X65068909Y-97158093D01*
X65568909Y-97372379D02*
X65068909Y-97372379D01*
X65068909Y-97372379D02*
X65068909Y-97491427D01*
X65068909Y-97491427D02*
X65092719Y-97562855D01*
X65092719Y-97562855D02*
X65140338Y-97610474D01*
X65140338Y-97610474D02*
X65187957Y-97634284D01*
X65187957Y-97634284D02*
X65283195Y-97658093D01*
X65283195Y-97658093D02*
X65354623Y-97658093D01*
X65354623Y-97658093D02*
X65449861Y-97634284D01*
X65449861Y-97634284D02*
X65497480Y-97610474D01*
X65497480Y-97610474D02*
X65545100Y-97562855D01*
X65545100Y-97562855D02*
X65568909Y-97491427D01*
X65568909Y-97491427D02*
X65568909Y-97372379D01*
X65568909Y-98110474D02*
X65568909Y-97872379D01*
X65568909Y-97872379D02*
X65068909Y-97872379D01*
X65378433Y-98277141D02*
X65378433Y-98658094D01*
X65568909Y-98467617D02*
X65187957Y-98467617D01*
X64005509Y-102564266D02*
X64005509Y-102849980D01*
X64505509Y-102707123D02*
X64005509Y-102707123D01*
X64005509Y-102969027D02*
X64505509Y-103302360D01*
X64005509Y-103302360D02*
X64505509Y-102969027D01*
X64505509Y-103492836D02*
X64005509Y-103492836D01*
X64005509Y-103492836D02*
X64005509Y-103683312D01*
X64005509Y-103683312D02*
X64029319Y-103730931D01*
X64029319Y-103730931D02*
X64053128Y-103754741D01*
X64053128Y-103754741D02*
X64100747Y-103778550D01*
X64100747Y-103778550D02*
X64172176Y-103778550D01*
X64172176Y-103778550D02*
X64219795Y-103754741D01*
X64219795Y-103754741D02*
X64243604Y-103730931D01*
X64243604Y-103730931D02*
X64267414Y-103683312D01*
X64267414Y-103683312D02*
X64267414Y-103492836D01*
X58052109Y-109242950D02*
X57814014Y-109076284D01*
X58052109Y-108957236D02*
X57552109Y-108957236D01*
X57552109Y-108957236D02*
X57552109Y-109147712D01*
X57552109Y-109147712D02*
X57575919Y-109195331D01*
X57575919Y-109195331D02*
X57599728Y-109219141D01*
X57599728Y-109219141D02*
X57647347Y-109242950D01*
X57647347Y-109242950D02*
X57718776Y-109242950D01*
X57718776Y-109242950D02*
X57766395Y-109219141D01*
X57766395Y-109219141D02*
X57790204Y-109195331D01*
X57790204Y-109195331D02*
X57814014Y-109147712D01*
X57814014Y-109147712D02*
X57814014Y-108957236D01*
X57552109Y-109409617D02*
X58052109Y-109742950D01*
X57552109Y-109742950D02*
X58052109Y-109409617D01*
X58004490Y-110219140D02*
X58028300Y-110195331D01*
X58028300Y-110195331D02*
X58052109Y-110123902D01*
X58052109Y-110123902D02*
X58052109Y-110076283D01*
X58052109Y-110076283D02*
X58028300Y-110004855D01*
X58028300Y-110004855D02*
X57980680Y-109957236D01*
X57980680Y-109957236D02*
X57933061Y-109933426D01*
X57933061Y-109933426D02*
X57837823Y-109909617D01*
X57837823Y-109909617D02*
X57766395Y-109909617D01*
X57766395Y-109909617D02*
X57671157Y-109933426D01*
X57671157Y-109933426D02*
X57623538Y-109957236D01*
X57623538Y-109957236D02*
X57575919Y-110004855D01*
X57575919Y-110004855D02*
X57552109Y-110076283D01*
X57552109Y-110076283D02*
X57552109Y-110123902D01*
X57552109Y-110123902D02*
X57575919Y-110195331D01*
X57575919Y-110195331D02*
X57599728Y-110219140D01*
X57552109Y-110361998D02*
X57552109Y-110647712D01*
X58052109Y-110504855D02*
X57552109Y-110504855D01*
X55421309Y-104797950D02*
X55183214Y-104631284D01*
X55421309Y-104512236D02*
X54921309Y-104512236D01*
X54921309Y-104512236D02*
X54921309Y-104702712D01*
X54921309Y-104702712D02*
X54945119Y-104750331D01*
X54945119Y-104750331D02*
X54968928Y-104774141D01*
X54968928Y-104774141D02*
X55016547Y-104797950D01*
X55016547Y-104797950D02*
X55087976Y-104797950D01*
X55087976Y-104797950D02*
X55135595Y-104774141D01*
X55135595Y-104774141D02*
X55159404Y-104750331D01*
X55159404Y-104750331D02*
X55183214Y-104702712D01*
X55183214Y-104702712D02*
X55183214Y-104512236D01*
X54921309Y-104964617D02*
X55421309Y-105297950D01*
X54921309Y-105297950D02*
X55421309Y-104964617D01*
X55421309Y-105488426D02*
X54921309Y-105488426D01*
X54921309Y-105488426D02*
X54921309Y-105678902D01*
X54921309Y-105678902D02*
X54945119Y-105726521D01*
X54945119Y-105726521D02*
X54968928Y-105750331D01*
X54968928Y-105750331D02*
X55016547Y-105774140D01*
X55016547Y-105774140D02*
X55087976Y-105774140D01*
X55087976Y-105774140D02*
X55135595Y-105750331D01*
X55135595Y-105750331D02*
X55159404Y-105726521D01*
X55159404Y-105726521D02*
X55183214Y-105678902D01*
X55183214Y-105678902D02*
X55183214Y-105488426D01*
X63068909Y-97003331D02*
X63068909Y-96765236D01*
X63068909Y-96765236D02*
X62568909Y-96765236D01*
X62807004Y-97169998D02*
X62807004Y-97336665D01*
X63068909Y-97408093D02*
X63068909Y-97169998D01*
X63068909Y-97169998D02*
X62568909Y-97169998D01*
X62568909Y-97169998D02*
X62568909Y-97408093D01*
X63068909Y-97622379D02*
X62568909Y-97622379D01*
X62568909Y-97622379D02*
X62568909Y-97741427D01*
X62568909Y-97741427D02*
X62592719Y-97812855D01*
X62592719Y-97812855D02*
X62640338Y-97860474D01*
X62640338Y-97860474D02*
X62687957Y-97884284D01*
X62687957Y-97884284D02*
X62783195Y-97908093D01*
X62783195Y-97908093D02*
X62854623Y-97908093D01*
X62854623Y-97908093D02*
X62949861Y-97884284D01*
X62949861Y-97884284D02*
X62997480Y-97860474D01*
X62997480Y-97860474D02*
X63045100Y-97812855D01*
X63045100Y-97812855D02*
X63068909Y-97741427D01*
X63068909Y-97741427D02*
X63068909Y-97622379D01*
X63068909Y-98360474D02*
X63068909Y-98122379D01*
X63068909Y-98122379D02*
X62568909Y-98122379D01*
X62878433Y-98527141D02*
X62878433Y-98908094D01*
X41779509Y-108221608D02*
X42279509Y-108388274D01*
X42279509Y-108388274D02*
X41779509Y-108554941D01*
X42017604Y-108888274D02*
X42041414Y-108959702D01*
X42041414Y-108959702D02*
X42065223Y-108983512D01*
X42065223Y-108983512D02*
X42112842Y-109007321D01*
X42112842Y-109007321D02*
X42184271Y-109007321D01*
X42184271Y-109007321D02*
X42231890Y-108983512D01*
X42231890Y-108983512D02*
X42255700Y-108959702D01*
X42255700Y-108959702D02*
X42279509Y-108912083D01*
X42279509Y-108912083D02*
X42279509Y-108721607D01*
X42279509Y-108721607D02*
X41779509Y-108721607D01*
X41779509Y-108721607D02*
X41779509Y-108888274D01*
X41779509Y-108888274D02*
X41803319Y-108935893D01*
X41803319Y-108935893D02*
X41827128Y-108959702D01*
X41827128Y-108959702D02*
X41874747Y-108983512D01*
X41874747Y-108983512D02*
X41922366Y-108983512D01*
X41922366Y-108983512D02*
X41969985Y-108959702D01*
X41969985Y-108959702D02*
X41993795Y-108935893D01*
X41993795Y-108935893D02*
X42017604Y-108888274D01*
X42017604Y-108888274D02*
X42017604Y-108721607D01*
X41779509Y-109221607D02*
X42184271Y-109221607D01*
X42184271Y-109221607D02*
X42231890Y-109245417D01*
X42231890Y-109245417D02*
X42255700Y-109269226D01*
X42255700Y-109269226D02*
X42279509Y-109316845D01*
X42279509Y-109316845D02*
X42279509Y-109412083D01*
X42279509Y-109412083D02*
X42255700Y-109459702D01*
X42255700Y-109459702D02*
X42231890Y-109483512D01*
X42231890Y-109483512D02*
X42184271Y-109507321D01*
X42184271Y-109507321D02*
X41779509Y-109507321D01*
X42255700Y-109721608D02*
X42279509Y-109793036D01*
X42279509Y-109793036D02*
X42279509Y-109912084D01*
X42279509Y-109912084D02*
X42255700Y-109959703D01*
X42255700Y-109959703D02*
X42231890Y-109983512D01*
X42231890Y-109983512D02*
X42184271Y-110007322D01*
X42184271Y-110007322D02*
X42136652Y-110007322D01*
X42136652Y-110007322D02*
X42089033Y-109983512D01*
X42089033Y-109983512D02*
X42065223Y-109959703D01*
X42065223Y-109959703D02*
X42041414Y-109912084D01*
X42041414Y-109912084D02*
X42017604Y-109816846D01*
X42017604Y-109816846D02*
X41993795Y-109769227D01*
X41993795Y-109769227D02*
X41969985Y-109745417D01*
X41969985Y-109745417D02*
X41922366Y-109721608D01*
X41922366Y-109721608D02*
X41874747Y-109721608D01*
X41874747Y-109721608D02*
X41827128Y-109745417D01*
X41827128Y-109745417D02*
X41803319Y-109769227D01*
X41803319Y-109769227D02*
X41779509Y-109816846D01*
X41779509Y-109816846D02*
X41779509Y-109935893D01*
X41779509Y-109935893D02*
X41803319Y-110007322D01*
X54568909Y-96977931D02*
X54568909Y-96739836D01*
X54568909Y-96739836D02*
X54068909Y-96739836D01*
X54307004Y-97144598D02*
X54307004Y-97311265D01*
X54568909Y-97382693D02*
X54568909Y-97144598D01*
X54568909Y-97144598D02*
X54068909Y-97144598D01*
X54068909Y-97144598D02*
X54068909Y-97382693D01*
X54568909Y-97596979D02*
X54068909Y-97596979D01*
X54068909Y-97596979D02*
X54068909Y-97716027D01*
X54068909Y-97716027D02*
X54092719Y-97787455D01*
X54092719Y-97787455D02*
X54140338Y-97835074D01*
X54140338Y-97835074D02*
X54187957Y-97858884D01*
X54187957Y-97858884D02*
X54283195Y-97882693D01*
X54283195Y-97882693D02*
X54354623Y-97882693D01*
X54354623Y-97882693D02*
X54449861Y-97858884D01*
X54449861Y-97858884D02*
X54497480Y-97835074D01*
X54497480Y-97835074D02*
X54545100Y-97787455D01*
X54545100Y-97787455D02*
X54568909Y-97716027D01*
X54568909Y-97716027D02*
X54568909Y-97596979D01*
X54568909Y-98335074D02*
X54568909Y-98096979D01*
X54568909Y-98096979D02*
X54068909Y-98096979D01*
X54378433Y-98501741D02*
X54378433Y-98882694D01*
X54568909Y-98692217D02*
X54187957Y-98692217D01*
X62552109Y-108885808D02*
X62552109Y-109171522D01*
X63052109Y-109028665D02*
X62552109Y-109028665D01*
X62552109Y-109290569D02*
X63052109Y-109623902D01*
X62552109Y-109623902D02*
X63052109Y-109290569D01*
X63052109Y-109814378D02*
X62552109Y-109814378D01*
X62552109Y-109814378D02*
X63052109Y-110100092D01*
X63052109Y-110100092D02*
X62552109Y-110100092D01*
X37279509Y-109123236D02*
X36779509Y-109123236D01*
X36779509Y-109123236D02*
X36779509Y-109242284D01*
X36779509Y-109242284D02*
X36803319Y-109313712D01*
X36803319Y-109313712D02*
X36850938Y-109361331D01*
X36850938Y-109361331D02*
X36898557Y-109385141D01*
X36898557Y-109385141D02*
X36993795Y-109408950D01*
X36993795Y-109408950D02*
X37065223Y-109408950D01*
X37065223Y-109408950D02*
X37160461Y-109385141D01*
X37160461Y-109385141D02*
X37208080Y-109361331D01*
X37208080Y-109361331D02*
X37255700Y-109313712D01*
X37255700Y-109313712D02*
X37279509Y-109242284D01*
X37279509Y-109242284D02*
X37279509Y-109123236D01*
X37089033Y-109623236D02*
X37089033Y-110004189D01*
X61505509Y-102183314D02*
X61505509Y-102469028D01*
X62005509Y-102326171D02*
X61505509Y-102326171D01*
X61505509Y-102588075D02*
X62005509Y-102921408D01*
X61505509Y-102921408D02*
X62005509Y-102588075D01*
X61957890Y-103397598D02*
X61981700Y-103373789D01*
X61981700Y-103373789D02*
X62005509Y-103302360D01*
X62005509Y-103302360D02*
X62005509Y-103254741D01*
X62005509Y-103254741D02*
X61981700Y-103183313D01*
X61981700Y-103183313D02*
X61934080Y-103135694D01*
X61934080Y-103135694D02*
X61886461Y-103111884D01*
X61886461Y-103111884D02*
X61791223Y-103088075D01*
X61791223Y-103088075D02*
X61719795Y-103088075D01*
X61719795Y-103088075D02*
X61624557Y-103111884D01*
X61624557Y-103111884D02*
X61576938Y-103135694D01*
X61576938Y-103135694D02*
X61529319Y-103183313D01*
X61529319Y-103183313D02*
X61505509Y-103254741D01*
X61505509Y-103254741D02*
X61505509Y-103302360D01*
X61505509Y-103302360D02*
X61529319Y-103373789D01*
X61529319Y-103373789D02*
X61553128Y-103397598D01*
X61505509Y-103540456D02*
X61505509Y-103826170D01*
X62005509Y-103683313D02*
X61505509Y-103683313D01*
X41803319Y-111304941D02*
X41779509Y-111257322D01*
X41779509Y-111257322D02*
X41779509Y-111185893D01*
X41779509Y-111185893D02*
X41803319Y-111114465D01*
X41803319Y-111114465D02*
X41850938Y-111066846D01*
X41850938Y-111066846D02*
X41898557Y-111043036D01*
X41898557Y-111043036D02*
X41993795Y-111019227D01*
X41993795Y-111019227D02*
X42065223Y-111019227D01*
X42065223Y-111019227D02*
X42160461Y-111043036D01*
X42160461Y-111043036D02*
X42208080Y-111066846D01*
X42208080Y-111066846D02*
X42255700Y-111114465D01*
X42255700Y-111114465D02*
X42279509Y-111185893D01*
X42279509Y-111185893D02*
X42279509Y-111233512D01*
X42279509Y-111233512D02*
X42255700Y-111304941D01*
X42255700Y-111304941D02*
X42231890Y-111328750D01*
X42231890Y-111328750D02*
X42065223Y-111328750D01*
X42065223Y-111328750D02*
X42065223Y-111233512D01*
X42279509Y-111543036D02*
X41779509Y-111543036D01*
X41779509Y-111543036D02*
X42279509Y-111828750D01*
X42279509Y-111828750D02*
X41779509Y-111828750D01*
X42279509Y-112066846D02*
X41779509Y-112066846D01*
X41779509Y-112066846D02*
X41779509Y-112185894D01*
X41779509Y-112185894D02*
X41803319Y-112257322D01*
X41803319Y-112257322D02*
X41850938Y-112304941D01*
X41850938Y-112304941D02*
X41898557Y-112328751D01*
X41898557Y-112328751D02*
X41993795Y-112352560D01*
X41993795Y-112352560D02*
X42065223Y-112352560D01*
X42065223Y-112352560D02*
X42160461Y-112328751D01*
X42160461Y-112328751D02*
X42208080Y-112304941D01*
X42208080Y-112304941D02*
X42255700Y-112257322D01*
X42255700Y-112257322D02*
X42279509Y-112185894D01*
X42279509Y-112185894D02*
X42279509Y-112066846D01*
X60075919Y-109219141D02*
X60052109Y-109171522D01*
X60052109Y-109171522D02*
X60052109Y-109100093D01*
X60052109Y-109100093D02*
X60075919Y-109028665D01*
X60075919Y-109028665D02*
X60123538Y-108981046D01*
X60123538Y-108981046D02*
X60171157Y-108957236D01*
X60171157Y-108957236D02*
X60266395Y-108933427D01*
X60266395Y-108933427D02*
X60337823Y-108933427D01*
X60337823Y-108933427D02*
X60433061Y-108957236D01*
X60433061Y-108957236D02*
X60480680Y-108981046D01*
X60480680Y-108981046D02*
X60528300Y-109028665D01*
X60528300Y-109028665D02*
X60552109Y-109100093D01*
X60552109Y-109100093D02*
X60552109Y-109147712D01*
X60552109Y-109147712D02*
X60528300Y-109219141D01*
X60528300Y-109219141D02*
X60504490Y-109242950D01*
X60504490Y-109242950D02*
X60337823Y-109242950D01*
X60337823Y-109242950D02*
X60337823Y-109147712D01*
X60552109Y-109457236D02*
X60052109Y-109457236D01*
X60052109Y-109457236D02*
X60552109Y-109742950D01*
X60552109Y-109742950D02*
X60052109Y-109742950D01*
X60552109Y-109981046D02*
X60052109Y-109981046D01*
X60052109Y-109981046D02*
X60052109Y-110100094D01*
X60052109Y-110100094D02*
X60075919Y-110171522D01*
X60075919Y-110171522D02*
X60123538Y-110219141D01*
X60123538Y-110219141D02*
X60171157Y-110242951D01*
X60171157Y-110242951D02*
X60266395Y-110266760D01*
X60266395Y-110266760D02*
X60337823Y-110266760D01*
X60337823Y-110266760D02*
X60433061Y-110242951D01*
X60433061Y-110242951D02*
X60480680Y-110219141D01*
X60480680Y-110219141D02*
X60528300Y-110171522D01*
X60528300Y-110171522D02*
X60552109Y-110100094D01*
X60552109Y-110100094D02*
X60552109Y-109981046D01*
X54151309Y-107261750D02*
X53913214Y-107095084D01*
X54151309Y-106976036D02*
X53651309Y-106976036D01*
X53651309Y-106976036D02*
X53651309Y-107166512D01*
X53651309Y-107166512D02*
X53675119Y-107214131D01*
X53675119Y-107214131D02*
X53698928Y-107237941D01*
X53698928Y-107237941D02*
X53746547Y-107261750D01*
X53746547Y-107261750D02*
X53817976Y-107261750D01*
X53817976Y-107261750D02*
X53865595Y-107237941D01*
X53865595Y-107237941D02*
X53889404Y-107214131D01*
X53889404Y-107214131D02*
X53913214Y-107166512D01*
X53913214Y-107166512D02*
X53913214Y-106976036D01*
X53651309Y-107428417D02*
X54151309Y-107761750D01*
X53651309Y-107761750D02*
X54151309Y-107428417D01*
X54151309Y-107952226D02*
X53651309Y-107952226D01*
X53651309Y-107952226D02*
X54151309Y-108237940D01*
X54151309Y-108237940D02*
X53651309Y-108237940D01*
X37279509Y-111373236D02*
X36779509Y-111373236D01*
X36779509Y-111373236D02*
X36779509Y-111492284D01*
X36779509Y-111492284D02*
X36803319Y-111563712D01*
X36803319Y-111563712D02*
X36850938Y-111611331D01*
X36850938Y-111611331D02*
X36898557Y-111635141D01*
X36898557Y-111635141D02*
X36993795Y-111658950D01*
X36993795Y-111658950D02*
X37065223Y-111658950D01*
X37065223Y-111658950D02*
X37160461Y-111635141D01*
X37160461Y-111635141D02*
X37208080Y-111611331D01*
X37208080Y-111611331D02*
X37255700Y-111563712D01*
X37255700Y-111563712D02*
X37279509Y-111492284D01*
X37279509Y-111492284D02*
X37279509Y-111373236D01*
X37089033Y-111873236D02*
X37089033Y-112254189D01*
X37279509Y-112063712D02*
X36898557Y-112063712D01*
X56918909Y-96961431D02*
X56918909Y-96723336D01*
X56918909Y-96723336D02*
X56418909Y-96723336D01*
X56657004Y-97128098D02*
X56657004Y-97294765D01*
X56918909Y-97366193D02*
X56918909Y-97128098D01*
X56918909Y-97128098D02*
X56418909Y-97128098D01*
X56418909Y-97128098D02*
X56418909Y-97366193D01*
X56918909Y-97580479D02*
X56418909Y-97580479D01*
X56418909Y-97580479D02*
X56418909Y-97699527D01*
X56418909Y-97699527D02*
X56442719Y-97770955D01*
X56442719Y-97770955D02*
X56490338Y-97818574D01*
X56490338Y-97818574D02*
X56537957Y-97842384D01*
X56537957Y-97842384D02*
X56633195Y-97866193D01*
X56633195Y-97866193D02*
X56704623Y-97866193D01*
X56704623Y-97866193D02*
X56799861Y-97842384D01*
X56799861Y-97842384D02*
X56847480Y-97818574D01*
X56847480Y-97818574D02*
X56895100Y-97770955D01*
X56895100Y-97770955D02*
X56918909Y-97699527D01*
X56918909Y-97699527D02*
X56918909Y-97580479D01*
X56918909Y-98318574D02*
X56918909Y-98080479D01*
X56918909Y-98080479D02*
X56418909Y-98080479D01*
X56728433Y-98485241D02*
X56728433Y-98866194D01*
X118207723Y-75407490D02*
X118231532Y-75431300D01*
X118231532Y-75431300D02*
X118302961Y-75455109D01*
X118302961Y-75455109D02*
X118350580Y-75455109D01*
X118350580Y-75455109D02*
X118422008Y-75431300D01*
X118422008Y-75431300D02*
X118469627Y-75383680D01*
X118469627Y-75383680D02*
X118493437Y-75336061D01*
X118493437Y-75336061D02*
X118517246Y-75240823D01*
X118517246Y-75240823D02*
X118517246Y-75169395D01*
X118517246Y-75169395D02*
X118493437Y-75074157D01*
X118493437Y-75074157D02*
X118469627Y-75026538D01*
X118469627Y-75026538D02*
X118422008Y-74978919D01*
X118422008Y-74978919D02*
X118350580Y-74955109D01*
X118350580Y-74955109D02*
X118302961Y-74955109D01*
X118302961Y-74955109D02*
X118231532Y-74978919D01*
X118231532Y-74978919D02*
X118207723Y-75002728D01*
X118041056Y-74955109D02*
X117731532Y-74955109D01*
X117731532Y-74955109D02*
X117898199Y-75145585D01*
X117898199Y-75145585D02*
X117826770Y-75145585D01*
X117826770Y-75145585D02*
X117779151Y-75169395D01*
X117779151Y-75169395D02*
X117755342Y-75193204D01*
X117755342Y-75193204D02*
X117731532Y-75240823D01*
X117731532Y-75240823D02*
X117731532Y-75359871D01*
X117731532Y-75359871D02*
X117755342Y-75407490D01*
X117755342Y-75407490D02*
X117779151Y-75431300D01*
X117779151Y-75431300D02*
X117826770Y-75455109D01*
X117826770Y-75455109D02*
X117969627Y-75455109D01*
X117969627Y-75455109D02*
X118017246Y-75431300D01*
X118017246Y-75431300D02*
X118041056Y-75407490D01*
X117255342Y-75455109D02*
X117541056Y-75455109D01*
X117398199Y-75455109D02*
X117398199Y-74955109D01*
X117398199Y-74955109D02*
X117445818Y-75026538D01*
X117445818Y-75026538D02*
X117493437Y-75074157D01*
X117493437Y-75074157D02*
X117541056Y-75097966D01*
X116945819Y-74955109D02*
X116898200Y-74955109D01*
X116898200Y-74955109D02*
X116850581Y-74978919D01*
X116850581Y-74978919D02*
X116826771Y-75002728D01*
X116826771Y-75002728D02*
X116802962Y-75050347D01*
X116802962Y-75050347D02*
X116779152Y-75145585D01*
X116779152Y-75145585D02*
X116779152Y-75264633D01*
X116779152Y-75264633D02*
X116802962Y-75359871D01*
X116802962Y-75359871D02*
X116826771Y-75407490D01*
X116826771Y-75407490D02*
X116850581Y-75431300D01*
X116850581Y-75431300D02*
X116898200Y-75455109D01*
X116898200Y-75455109D02*
X116945819Y-75455109D01*
X116945819Y-75455109D02*
X116993438Y-75431300D01*
X116993438Y-75431300D02*
X117017247Y-75407490D01*
X117017247Y-75407490D02*
X117041057Y-75359871D01*
X117041057Y-75359871D02*
X117064866Y-75264633D01*
X117064866Y-75264633D02*
X117064866Y-75145585D01*
X117064866Y-75145585D02*
X117041057Y-75050347D01*
X117041057Y-75050347D02*
X117017247Y-75002728D01*
X117017247Y-75002728D02*
X116993438Y-74978919D01*
X116993438Y-74978919D02*
X116945819Y-74955109D01*
X116869890Y-68319476D02*
X116893700Y-68295667D01*
X116893700Y-68295667D02*
X116917509Y-68224238D01*
X116917509Y-68224238D02*
X116917509Y-68176619D01*
X116917509Y-68176619D02*
X116893700Y-68105191D01*
X116893700Y-68105191D02*
X116846080Y-68057572D01*
X116846080Y-68057572D02*
X116798461Y-68033762D01*
X116798461Y-68033762D02*
X116703223Y-68009953D01*
X116703223Y-68009953D02*
X116631795Y-68009953D01*
X116631795Y-68009953D02*
X116536557Y-68033762D01*
X116536557Y-68033762D02*
X116488938Y-68057572D01*
X116488938Y-68057572D02*
X116441319Y-68105191D01*
X116441319Y-68105191D02*
X116417509Y-68176619D01*
X116417509Y-68176619D02*
X116417509Y-68224238D01*
X116417509Y-68224238D02*
X116441319Y-68295667D01*
X116441319Y-68295667D02*
X116465128Y-68319476D01*
X116417509Y-68486143D02*
X116417509Y-68795667D01*
X116417509Y-68795667D02*
X116607985Y-68629000D01*
X116607985Y-68629000D02*
X116607985Y-68700429D01*
X116607985Y-68700429D02*
X116631795Y-68748048D01*
X116631795Y-68748048D02*
X116655604Y-68771857D01*
X116655604Y-68771857D02*
X116703223Y-68795667D01*
X116703223Y-68795667D02*
X116822271Y-68795667D01*
X116822271Y-68795667D02*
X116869890Y-68771857D01*
X116869890Y-68771857D02*
X116893700Y-68748048D01*
X116893700Y-68748048D02*
X116917509Y-68700429D01*
X116917509Y-68700429D02*
X116917509Y-68557572D01*
X116917509Y-68557572D02*
X116893700Y-68509953D01*
X116893700Y-68509953D02*
X116869890Y-68486143D01*
X116917509Y-69271857D02*
X116917509Y-68986143D01*
X116917509Y-69129000D02*
X116417509Y-69129000D01*
X116417509Y-69129000D02*
X116488938Y-69081381D01*
X116488938Y-69081381D02*
X116536557Y-69033762D01*
X116536557Y-69033762D02*
X116560366Y-68986143D01*
X116417509Y-69438523D02*
X116417509Y-69748047D01*
X116417509Y-69748047D02*
X116607985Y-69581380D01*
X116607985Y-69581380D02*
X116607985Y-69652809D01*
X116607985Y-69652809D02*
X116631795Y-69700428D01*
X116631795Y-69700428D02*
X116655604Y-69724237D01*
X116655604Y-69724237D02*
X116703223Y-69748047D01*
X116703223Y-69748047D02*
X116822271Y-69748047D01*
X116822271Y-69748047D02*
X116869890Y-69724237D01*
X116869890Y-69724237D02*
X116893700Y-69700428D01*
X116893700Y-69700428D02*
X116917509Y-69652809D01*
X116917509Y-69652809D02*
X116917509Y-69509952D01*
X116917509Y-69509952D02*
X116893700Y-69462333D01*
X116893700Y-69462333D02*
X116869890Y-69438523D01*
X90663430Y-66403654D02*
X90663430Y-66437326D01*
X90663430Y-66437326D02*
X90697102Y-66504669D01*
X90697102Y-66504669D02*
X90730774Y-66538341D01*
X90730774Y-66538341D02*
X90798117Y-66572013D01*
X90798117Y-66572013D02*
X90865461Y-66572013D01*
X90865461Y-66572013D02*
X90915968Y-66555177D01*
X90915968Y-66555177D02*
X91000148Y-66504669D01*
X91000148Y-66504669D02*
X91050655Y-66454162D01*
X91050655Y-66454162D02*
X91101163Y-66369982D01*
X91101163Y-66369982D02*
X91117999Y-66319475D01*
X91117999Y-66319475D02*
X91117999Y-66252131D01*
X91117999Y-66252131D02*
X91084327Y-66184788D01*
X91084327Y-66184788D02*
X91050655Y-66151116D01*
X91050655Y-66151116D02*
X90983312Y-66117444D01*
X90983312Y-66117444D02*
X90949640Y-66117444D01*
X90814953Y-65982757D02*
X90814953Y-65949085D01*
X90814953Y-65949085D02*
X90798117Y-65898578D01*
X90798117Y-65898578D02*
X90713938Y-65814398D01*
X90713938Y-65814398D02*
X90663430Y-65797562D01*
X90663430Y-65797562D02*
X90629758Y-65797562D01*
X90629758Y-65797562D02*
X90579251Y-65814398D01*
X90579251Y-65814398D02*
X90545579Y-65848070D01*
X90545579Y-65848070D02*
X90511907Y-65915414D01*
X90511907Y-65915414D02*
X90511907Y-66319475D01*
X90511907Y-66319475D02*
X90293041Y-66100608D01*
X90478236Y-65646040D02*
X90478236Y-65612368D01*
X90478236Y-65612368D02*
X90461400Y-65561860D01*
X90461400Y-65561860D02*
X90377221Y-65477681D01*
X90377221Y-65477681D02*
X90326713Y-65460845D01*
X90326713Y-65460845D02*
X90293041Y-65460845D01*
X90293041Y-65460845D02*
X90242534Y-65477681D01*
X90242534Y-65477681D02*
X90208862Y-65511353D01*
X90208862Y-65511353D02*
X90175190Y-65578696D01*
X90175190Y-65578696D02*
X90175190Y-65982757D01*
X90175190Y-65982757D02*
X89956324Y-65763891D01*
X89619607Y-65427174D02*
X89821637Y-65629204D01*
X89720622Y-65528189D02*
X90074175Y-65174636D01*
X90074175Y-65174636D02*
X90057339Y-65258815D01*
X90057339Y-65258815D02*
X90057339Y-65326159D01*
X90057339Y-65326159D02*
X90074175Y-65376666D01*
X92934723Y-76728290D02*
X92958532Y-76752100D01*
X92958532Y-76752100D02*
X93029961Y-76775909D01*
X93029961Y-76775909D02*
X93077580Y-76775909D01*
X93077580Y-76775909D02*
X93149008Y-76752100D01*
X93149008Y-76752100D02*
X93196627Y-76704480D01*
X93196627Y-76704480D02*
X93220437Y-76656861D01*
X93220437Y-76656861D02*
X93244246Y-76561623D01*
X93244246Y-76561623D02*
X93244246Y-76490195D01*
X93244246Y-76490195D02*
X93220437Y-76394957D01*
X93220437Y-76394957D02*
X93196627Y-76347338D01*
X93196627Y-76347338D02*
X93149008Y-76299719D01*
X93149008Y-76299719D02*
X93077580Y-76275909D01*
X93077580Y-76275909D02*
X93029961Y-76275909D01*
X93029961Y-76275909D02*
X92958532Y-76299719D01*
X92958532Y-76299719D02*
X92934723Y-76323528D01*
X92744246Y-76323528D02*
X92720437Y-76299719D01*
X92720437Y-76299719D02*
X92672818Y-76275909D01*
X92672818Y-76275909D02*
X92553770Y-76275909D01*
X92553770Y-76275909D02*
X92506151Y-76299719D01*
X92506151Y-76299719D02*
X92482342Y-76323528D01*
X92482342Y-76323528D02*
X92458532Y-76371147D01*
X92458532Y-76371147D02*
X92458532Y-76418766D01*
X92458532Y-76418766D02*
X92482342Y-76490195D01*
X92482342Y-76490195D02*
X92768056Y-76775909D01*
X92768056Y-76775909D02*
X92458532Y-76775909D01*
X91982342Y-76775909D02*
X92268056Y-76775909D01*
X92125199Y-76775909D02*
X92125199Y-76275909D01*
X92125199Y-76275909D02*
X92172818Y-76347338D01*
X92172818Y-76347338D02*
X92220437Y-76394957D01*
X92220437Y-76394957D02*
X92268056Y-76418766D01*
X91553771Y-76442576D02*
X91553771Y-76775909D01*
X91672819Y-76252100D02*
X91791866Y-76609242D01*
X91791866Y-76609242D02*
X91482343Y-76609242D01*
X98802090Y-77158676D02*
X98825900Y-77134867D01*
X98825900Y-77134867D02*
X98849709Y-77063438D01*
X98849709Y-77063438D02*
X98849709Y-77015819D01*
X98849709Y-77015819D02*
X98825900Y-76944391D01*
X98825900Y-76944391D02*
X98778280Y-76896772D01*
X98778280Y-76896772D02*
X98730661Y-76872962D01*
X98730661Y-76872962D02*
X98635423Y-76849153D01*
X98635423Y-76849153D02*
X98563995Y-76849153D01*
X98563995Y-76849153D02*
X98468757Y-76872962D01*
X98468757Y-76872962D02*
X98421138Y-76896772D01*
X98421138Y-76896772D02*
X98373519Y-76944391D01*
X98373519Y-76944391D02*
X98349709Y-77015819D01*
X98349709Y-77015819D02*
X98349709Y-77063438D01*
X98349709Y-77063438D02*
X98373519Y-77134867D01*
X98373519Y-77134867D02*
X98397328Y-77158676D01*
X98397328Y-77349153D02*
X98373519Y-77372962D01*
X98373519Y-77372962D02*
X98349709Y-77420581D01*
X98349709Y-77420581D02*
X98349709Y-77539629D01*
X98349709Y-77539629D02*
X98373519Y-77587248D01*
X98373519Y-77587248D02*
X98397328Y-77611057D01*
X98397328Y-77611057D02*
X98444947Y-77634867D01*
X98444947Y-77634867D02*
X98492566Y-77634867D01*
X98492566Y-77634867D02*
X98563995Y-77611057D01*
X98563995Y-77611057D02*
X98849709Y-77325343D01*
X98849709Y-77325343D02*
X98849709Y-77634867D01*
X98349709Y-77944390D02*
X98349709Y-77992009D01*
X98349709Y-77992009D02*
X98373519Y-78039628D01*
X98373519Y-78039628D02*
X98397328Y-78063438D01*
X98397328Y-78063438D02*
X98444947Y-78087247D01*
X98444947Y-78087247D02*
X98540185Y-78111057D01*
X98540185Y-78111057D02*
X98659233Y-78111057D01*
X98659233Y-78111057D02*
X98754471Y-78087247D01*
X98754471Y-78087247D02*
X98802090Y-78063438D01*
X98802090Y-78063438D02*
X98825900Y-78039628D01*
X98825900Y-78039628D02*
X98849709Y-77992009D01*
X98849709Y-77992009D02*
X98849709Y-77944390D01*
X98849709Y-77944390D02*
X98825900Y-77896771D01*
X98825900Y-77896771D02*
X98802090Y-77872962D01*
X98802090Y-77872962D02*
X98754471Y-77849152D01*
X98754471Y-77849152D02*
X98659233Y-77825343D01*
X98659233Y-77825343D02*
X98540185Y-77825343D01*
X98540185Y-77825343D02*
X98444947Y-77849152D01*
X98444947Y-77849152D02*
X98397328Y-77872962D01*
X98397328Y-77872962D02*
X98373519Y-77896771D01*
X98373519Y-77896771D02*
X98349709Y-77944390D01*
X98563995Y-78396771D02*
X98540185Y-78349152D01*
X98540185Y-78349152D02*
X98516376Y-78325342D01*
X98516376Y-78325342D02*
X98468757Y-78301533D01*
X98468757Y-78301533D02*
X98444947Y-78301533D01*
X98444947Y-78301533D02*
X98397328Y-78325342D01*
X98397328Y-78325342D02*
X98373519Y-78349152D01*
X98373519Y-78349152D02*
X98349709Y-78396771D01*
X98349709Y-78396771D02*
X98349709Y-78492009D01*
X98349709Y-78492009D02*
X98373519Y-78539628D01*
X98373519Y-78539628D02*
X98397328Y-78563437D01*
X98397328Y-78563437D02*
X98444947Y-78587247D01*
X98444947Y-78587247D02*
X98468757Y-78587247D01*
X98468757Y-78587247D02*
X98516376Y-78563437D01*
X98516376Y-78563437D02*
X98540185Y-78539628D01*
X98540185Y-78539628D02*
X98563995Y-78492009D01*
X98563995Y-78492009D02*
X98563995Y-78396771D01*
X98563995Y-78396771D02*
X98587804Y-78349152D01*
X98587804Y-78349152D02*
X98611614Y-78325342D01*
X98611614Y-78325342D02*
X98659233Y-78301533D01*
X98659233Y-78301533D02*
X98754471Y-78301533D01*
X98754471Y-78301533D02*
X98802090Y-78325342D01*
X98802090Y-78325342D02*
X98825900Y-78349152D01*
X98825900Y-78349152D02*
X98849709Y-78396771D01*
X98849709Y-78396771D02*
X98849709Y-78492009D01*
X98849709Y-78492009D02*
X98825900Y-78539628D01*
X98825900Y-78539628D02*
X98802090Y-78563437D01*
X98802090Y-78563437D02*
X98754471Y-78587247D01*
X98754471Y-78587247D02*
X98659233Y-78587247D01*
X98659233Y-78587247D02*
X98611614Y-78563437D01*
X98611614Y-78563437D02*
X98587804Y-78539628D01*
X98587804Y-78539628D02*
X98563995Y-78492009D01*
X99843523Y-71673690D02*
X99867332Y-71697500D01*
X99867332Y-71697500D02*
X99938761Y-71721309D01*
X99938761Y-71721309D02*
X99986380Y-71721309D01*
X99986380Y-71721309D02*
X100057808Y-71697500D01*
X100057808Y-71697500D02*
X100105427Y-71649880D01*
X100105427Y-71649880D02*
X100129237Y-71602261D01*
X100129237Y-71602261D02*
X100153046Y-71507023D01*
X100153046Y-71507023D02*
X100153046Y-71435595D01*
X100153046Y-71435595D02*
X100129237Y-71340357D01*
X100129237Y-71340357D02*
X100105427Y-71292738D01*
X100105427Y-71292738D02*
X100057808Y-71245119D01*
X100057808Y-71245119D02*
X99986380Y-71221309D01*
X99986380Y-71221309D02*
X99938761Y-71221309D01*
X99938761Y-71221309D02*
X99867332Y-71245119D01*
X99867332Y-71245119D02*
X99843523Y-71268928D01*
X99653046Y-71268928D02*
X99629237Y-71245119D01*
X99629237Y-71245119D02*
X99581618Y-71221309D01*
X99581618Y-71221309D02*
X99462570Y-71221309D01*
X99462570Y-71221309D02*
X99414951Y-71245119D01*
X99414951Y-71245119D02*
X99391142Y-71268928D01*
X99391142Y-71268928D02*
X99367332Y-71316547D01*
X99367332Y-71316547D02*
X99367332Y-71364166D01*
X99367332Y-71364166D02*
X99391142Y-71435595D01*
X99391142Y-71435595D02*
X99676856Y-71721309D01*
X99676856Y-71721309D02*
X99367332Y-71721309D01*
X99176856Y-71268928D02*
X99153047Y-71245119D01*
X99153047Y-71245119D02*
X99105428Y-71221309D01*
X99105428Y-71221309D02*
X98986380Y-71221309D01*
X98986380Y-71221309D02*
X98938761Y-71245119D01*
X98938761Y-71245119D02*
X98914952Y-71268928D01*
X98914952Y-71268928D02*
X98891142Y-71316547D01*
X98891142Y-71316547D02*
X98891142Y-71364166D01*
X98891142Y-71364166D02*
X98914952Y-71435595D01*
X98914952Y-71435595D02*
X99200666Y-71721309D01*
X99200666Y-71721309D02*
X98891142Y-71721309D01*
X98653047Y-71721309D02*
X98557809Y-71721309D01*
X98557809Y-71721309D02*
X98510190Y-71697500D01*
X98510190Y-71697500D02*
X98486381Y-71673690D01*
X98486381Y-71673690D02*
X98438762Y-71602261D01*
X98438762Y-71602261D02*
X98414952Y-71507023D01*
X98414952Y-71507023D02*
X98414952Y-71316547D01*
X98414952Y-71316547D02*
X98438762Y-71268928D01*
X98438762Y-71268928D02*
X98462571Y-71245119D01*
X98462571Y-71245119D02*
X98510190Y-71221309D01*
X98510190Y-71221309D02*
X98605428Y-71221309D01*
X98605428Y-71221309D02*
X98653047Y-71245119D01*
X98653047Y-71245119D02*
X98676857Y-71268928D01*
X98676857Y-71268928D02*
X98700666Y-71316547D01*
X98700666Y-71316547D02*
X98700666Y-71435595D01*
X98700666Y-71435595D02*
X98676857Y-71483214D01*
X98676857Y-71483214D02*
X98653047Y-71507023D01*
X98653047Y-71507023D02*
X98605428Y-71530833D01*
X98605428Y-71530833D02*
X98510190Y-71530833D01*
X98510190Y-71530833D02*
X98462571Y-71507023D01*
X98462571Y-71507023D02*
X98438762Y-71483214D01*
X98438762Y-71483214D02*
X98414952Y-71435595D01*
X98868723Y-69784690D02*
X98892532Y-69808500D01*
X98892532Y-69808500D02*
X98963961Y-69832309D01*
X98963961Y-69832309D02*
X99011580Y-69832309D01*
X99011580Y-69832309D02*
X99083008Y-69808500D01*
X99083008Y-69808500D02*
X99130627Y-69760880D01*
X99130627Y-69760880D02*
X99154437Y-69713261D01*
X99154437Y-69713261D02*
X99178246Y-69618023D01*
X99178246Y-69618023D02*
X99178246Y-69546595D01*
X99178246Y-69546595D02*
X99154437Y-69451357D01*
X99154437Y-69451357D02*
X99130627Y-69403738D01*
X99130627Y-69403738D02*
X99083008Y-69356119D01*
X99083008Y-69356119D02*
X99011580Y-69332309D01*
X99011580Y-69332309D02*
X98963961Y-69332309D01*
X98963961Y-69332309D02*
X98892532Y-69356119D01*
X98892532Y-69356119D02*
X98868723Y-69379928D01*
X98678246Y-69379928D02*
X98654437Y-69356119D01*
X98654437Y-69356119D02*
X98606818Y-69332309D01*
X98606818Y-69332309D02*
X98487770Y-69332309D01*
X98487770Y-69332309D02*
X98440151Y-69356119D01*
X98440151Y-69356119D02*
X98416342Y-69379928D01*
X98416342Y-69379928D02*
X98392532Y-69427547D01*
X98392532Y-69427547D02*
X98392532Y-69475166D01*
X98392532Y-69475166D02*
X98416342Y-69546595D01*
X98416342Y-69546595D02*
X98702056Y-69832309D01*
X98702056Y-69832309D02*
X98392532Y-69832309D01*
X98225866Y-69332309D02*
X97916342Y-69332309D01*
X97916342Y-69332309D02*
X98083009Y-69522785D01*
X98083009Y-69522785D02*
X98011580Y-69522785D01*
X98011580Y-69522785D02*
X97963961Y-69546595D01*
X97963961Y-69546595D02*
X97940152Y-69570404D01*
X97940152Y-69570404D02*
X97916342Y-69618023D01*
X97916342Y-69618023D02*
X97916342Y-69737071D01*
X97916342Y-69737071D02*
X97940152Y-69784690D01*
X97940152Y-69784690D02*
X97963961Y-69808500D01*
X97963961Y-69808500D02*
X98011580Y-69832309D01*
X98011580Y-69832309D02*
X98154437Y-69832309D01*
X98154437Y-69832309D02*
X98202056Y-69808500D01*
X98202056Y-69808500D02*
X98225866Y-69784690D01*
X97440152Y-69832309D02*
X97725866Y-69832309D01*
X97583009Y-69832309D02*
X97583009Y-69332309D01*
X97583009Y-69332309D02*
X97630628Y-69403738D01*
X97630628Y-69403738D02*
X97678247Y-69451357D01*
X97678247Y-69451357D02*
X97725866Y-69475166D01*
X112949923Y-66974690D02*
X112973732Y-66998500D01*
X112973732Y-66998500D02*
X113045161Y-67022309D01*
X113045161Y-67022309D02*
X113092780Y-67022309D01*
X113092780Y-67022309D02*
X113164208Y-66998500D01*
X113164208Y-66998500D02*
X113211827Y-66950880D01*
X113211827Y-66950880D02*
X113235637Y-66903261D01*
X113235637Y-66903261D02*
X113259446Y-66808023D01*
X113259446Y-66808023D02*
X113259446Y-66736595D01*
X113259446Y-66736595D02*
X113235637Y-66641357D01*
X113235637Y-66641357D02*
X113211827Y-66593738D01*
X113211827Y-66593738D02*
X113164208Y-66546119D01*
X113164208Y-66546119D02*
X113092780Y-66522309D01*
X113092780Y-66522309D02*
X113045161Y-66522309D01*
X113045161Y-66522309D02*
X112973732Y-66546119D01*
X112973732Y-66546119D02*
X112949923Y-66569928D01*
X112783256Y-66522309D02*
X112473732Y-66522309D01*
X112473732Y-66522309D02*
X112640399Y-66712785D01*
X112640399Y-66712785D02*
X112568970Y-66712785D01*
X112568970Y-66712785D02*
X112521351Y-66736595D01*
X112521351Y-66736595D02*
X112497542Y-66760404D01*
X112497542Y-66760404D02*
X112473732Y-66808023D01*
X112473732Y-66808023D02*
X112473732Y-66927071D01*
X112473732Y-66927071D02*
X112497542Y-66974690D01*
X112497542Y-66974690D02*
X112521351Y-66998500D01*
X112521351Y-66998500D02*
X112568970Y-67022309D01*
X112568970Y-67022309D02*
X112711827Y-67022309D01*
X112711827Y-67022309D02*
X112759446Y-66998500D01*
X112759446Y-66998500D02*
X112783256Y-66974690D01*
X112164209Y-66522309D02*
X112116590Y-66522309D01*
X112116590Y-66522309D02*
X112068971Y-66546119D01*
X112068971Y-66546119D02*
X112045161Y-66569928D01*
X112045161Y-66569928D02*
X112021352Y-66617547D01*
X112021352Y-66617547D02*
X111997542Y-66712785D01*
X111997542Y-66712785D02*
X111997542Y-66831833D01*
X111997542Y-66831833D02*
X112021352Y-66927071D01*
X112021352Y-66927071D02*
X112045161Y-66974690D01*
X112045161Y-66974690D02*
X112068971Y-66998500D01*
X112068971Y-66998500D02*
X112116590Y-67022309D01*
X112116590Y-67022309D02*
X112164209Y-67022309D01*
X112164209Y-67022309D02*
X112211828Y-66998500D01*
X112211828Y-66998500D02*
X112235637Y-66974690D01*
X112235637Y-66974690D02*
X112259447Y-66927071D01*
X112259447Y-66927071D02*
X112283256Y-66831833D01*
X112283256Y-66831833D02*
X112283256Y-66712785D01*
X112283256Y-66712785D02*
X112259447Y-66617547D01*
X112259447Y-66617547D02*
X112235637Y-66569928D01*
X112235637Y-66569928D02*
X112211828Y-66546119D01*
X112211828Y-66546119D02*
X112164209Y-66522309D01*
X111830876Y-66522309D02*
X111497543Y-66522309D01*
X111497543Y-66522309D02*
X111711828Y-67022309D01*
X99818123Y-72715090D02*
X99841932Y-72738900D01*
X99841932Y-72738900D02*
X99913361Y-72762709D01*
X99913361Y-72762709D02*
X99960980Y-72762709D01*
X99960980Y-72762709D02*
X100032408Y-72738900D01*
X100032408Y-72738900D02*
X100080027Y-72691280D01*
X100080027Y-72691280D02*
X100103837Y-72643661D01*
X100103837Y-72643661D02*
X100127646Y-72548423D01*
X100127646Y-72548423D02*
X100127646Y-72476995D01*
X100127646Y-72476995D02*
X100103837Y-72381757D01*
X100103837Y-72381757D02*
X100080027Y-72334138D01*
X100080027Y-72334138D02*
X100032408Y-72286519D01*
X100032408Y-72286519D02*
X99960980Y-72262709D01*
X99960980Y-72262709D02*
X99913361Y-72262709D01*
X99913361Y-72262709D02*
X99841932Y-72286519D01*
X99841932Y-72286519D02*
X99818123Y-72310328D01*
X99627646Y-72310328D02*
X99603837Y-72286519D01*
X99603837Y-72286519D02*
X99556218Y-72262709D01*
X99556218Y-72262709D02*
X99437170Y-72262709D01*
X99437170Y-72262709D02*
X99389551Y-72286519D01*
X99389551Y-72286519D02*
X99365742Y-72310328D01*
X99365742Y-72310328D02*
X99341932Y-72357947D01*
X99341932Y-72357947D02*
X99341932Y-72405566D01*
X99341932Y-72405566D02*
X99365742Y-72476995D01*
X99365742Y-72476995D02*
X99651456Y-72762709D01*
X99651456Y-72762709D02*
X99341932Y-72762709D01*
X99151456Y-72310328D02*
X99127647Y-72286519D01*
X99127647Y-72286519D02*
X99080028Y-72262709D01*
X99080028Y-72262709D02*
X98960980Y-72262709D01*
X98960980Y-72262709D02*
X98913361Y-72286519D01*
X98913361Y-72286519D02*
X98889552Y-72310328D01*
X98889552Y-72310328D02*
X98865742Y-72357947D01*
X98865742Y-72357947D02*
X98865742Y-72405566D01*
X98865742Y-72405566D02*
X98889552Y-72476995D01*
X98889552Y-72476995D02*
X99175266Y-72762709D01*
X99175266Y-72762709D02*
X98865742Y-72762709D01*
X98675266Y-72310328D02*
X98651457Y-72286519D01*
X98651457Y-72286519D02*
X98603838Y-72262709D01*
X98603838Y-72262709D02*
X98484790Y-72262709D01*
X98484790Y-72262709D02*
X98437171Y-72286519D01*
X98437171Y-72286519D02*
X98413362Y-72310328D01*
X98413362Y-72310328D02*
X98389552Y-72357947D01*
X98389552Y-72357947D02*
X98389552Y-72405566D01*
X98389552Y-72405566D02*
X98413362Y-72476995D01*
X98413362Y-72476995D02*
X98699076Y-72762709D01*
X98699076Y-72762709D02*
X98389552Y-72762709D01*
X107793723Y-65840090D02*
X107817532Y-65863900D01*
X107817532Y-65863900D02*
X107888961Y-65887709D01*
X107888961Y-65887709D02*
X107936580Y-65887709D01*
X107936580Y-65887709D02*
X108008008Y-65863900D01*
X108008008Y-65863900D02*
X108055627Y-65816280D01*
X108055627Y-65816280D02*
X108079437Y-65768661D01*
X108079437Y-65768661D02*
X108103246Y-65673423D01*
X108103246Y-65673423D02*
X108103246Y-65601995D01*
X108103246Y-65601995D02*
X108079437Y-65506757D01*
X108079437Y-65506757D02*
X108055627Y-65459138D01*
X108055627Y-65459138D02*
X108008008Y-65411519D01*
X108008008Y-65411519D02*
X107936580Y-65387709D01*
X107936580Y-65387709D02*
X107888961Y-65387709D01*
X107888961Y-65387709D02*
X107817532Y-65411519D01*
X107817532Y-65411519D02*
X107793723Y-65435328D01*
X107627056Y-65387709D02*
X107317532Y-65387709D01*
X107317532Y-65387709D02*
X107484199Y-65578185D01*
X107484199Y-65578185D02*
X107412770Y-65578185D01*
X107412770Y-65578185D02*
X107365151Y-65601995D01*
X107365151Y-65601995D02*
X107341342Y-65625804D01*
X107341342Y-65625804D02*
X107317532Y-65673423D01*
X107317532Y-65673423D02*
X107317532Y-65792471D01*
X107317532Y-65792471D02*
X107341342Y-65840090D01*
X107341342Y-65840090D02*
X107365151Y-65863900D01*
X107365151Y-65863900D02*
X107412770Y-65887709D01*
X107412770Y-65887709D02*
X107555627Y-65887709D01*
X107555627Y-65887709D02*
X107603246Y-65863900D01*
X107603246Y-65863900D02*
X107627056Y-65840090D01*
X106841342Y-65887709D02*
X107127056Y-65887709D01*
X106984199Y-65887709D02*
X106984199Y-65387709D01*
X106984199Y-65387709D02*
X107031818Y-65459138D01*
X107031818Y-65459138D02*
X107079437Y-65506757D01*
X107079437Y-65506757D02*
X107127056Y-65530566D01*
X106365152Y-65887709D02*
X106650866Y-65887709D01*
X106508009Y-65887709D02*
X106508009Y-65387709D01*
X106508009Y-65387709D02*
X106555628Y-65459138D01*
X106555628Y-65459138D02*
X106603247Y-65506757D01*
X106603247Y-65506757D02*
X106650866Y-65530566D01*
X94306290Y-67608276D02*
X94330100Y-67584467D01*
X94330100Y-67584467D02*
X94353909Y-67513038D01*
X94353909Y-67513038D02*
X94353909Y-67465419D01*
X94353909Y-67465419D02*
X94330100Y-67393991D01*
X94330100Y-67393991D02*
X94282480Y-67346372D01*
X94282480Y-67346372D02*
X94234861Y-67322562D01*
X94234861Y-67322562D02*
X94139623Y-67298753D01*
X94139623Y-67298753D02*
X94068195Y-67298753D01*
X94068195Y-67298753D02*
X93972957Y-67322562D01*
X93972957Y-67322562D02*
X93925338Y-67346372D01*
X93925338Y-67346372D02*
X93877719Y-67393991D01*
X93877719Y-67393991D02*
X93853909Y-67465419D01*
X93853909Y-67465419D02*
X93853909Y-67513038D01*
X93853909Y-67513038D02*
X93877719Y-67584467D01*
X93877719Y-67584467D02*
X93901528Y-67608276D01*
X93901528Y-67798753D02*
X93877719Y-67822562D01*
X93877719Y-67822562D02*
X93853909Y-67870181D01*
X93853909Y-67870181D02*
X93853909Y-67989229D01*
X93853909Y-67989229D02*
X93877719Y-68036848D01*
X93877719Y-68036848D02*
X93901528Y-68060657D01*
X93901528Y-68060657D02*
X93949147Y-68084467D01*
X93949147Y-68084467D02*
X93996766Y-68084467D01*
X93996766Y-68084467D02*
X94068195Y-68060657D01*
X94068195Y-68060657D02*
X94353909Y-67774943D01*
X94353909Y-67774943D02*
X94353909Y-68084467D01*
X93901528Y-68274943D02*
X93877719Y-68298752D01*
X93877719Y-68298752D02*
X93853909Y-68346371D01*
X93853909Y-68346371D02*
X93853909Y-68465419D01*
X93853909Y-68465419D02*
X93877719Y-68513038D01*
X93877719Y-68513038D02*
X93901528Y-68536847D01*
X93901528Y-68536847D02*
X93949147Y-68560657D01*
X93949147Y-68560657D02*
X93996766Y-68560657D01*
X93996766Y-68560657D02*
X94068195Y-68536847D01*
X94068195Y-68536847D02*
X94353909Y-68251133D01*
X94353909Y-68251133D02*
X94353909Y-68560657D01*
X93853909Y-69013037D02*
X93853909Y-68774942D01*
X93853909Y-68774942D02*
X94092004Y-68751133D01*
X94092004Y-68751133D02*
X94068195Y-68774942D01*
X94068195Y-68774942D02*
X94044385Y-68822561D01*
X94044385Y-68822561D02*
X94044385Y-68941609D01*
X94044385Y-68941609D02*
X94068195Y-68989228D01*
X94068195Y-68989228D02*
X94092004Y-69013037D01*
X94092004Y-69013037D02*
X94139623Y-69036847D01*
X94139623Y-69036847D02*
X94258671Y-69036847D01*
X94258671Y-69036847D02*
X94306290Y-69013037D01*
X94306290Y-69013037D02*
X94330100Y-68989228D01*
X94330100Y-68989228D02*
X94353909Y-68941609D01*
X94353909Y-68941609D02*
X94353909Y-68822561D01*
X94353909Y-68822561D02*
X94330100Y-68774942D01*
X94330100Y-68774942D02*
X94306290Y-68751133D01*
X97024123Y-70962490D02*
X97047932Y-70986300D01*
X97047932Y-70986300D02*
X97119361Y-71010109D01*
X97119361Y-71010109D02*
X97166980Y-71010109D01*
X97166980Y-71010109D02*
X97238408Y-70986300D01*
X97238408Y-70986300D02*
X97286027Y-70938680D01*
X97286027Y-70938680D02*
X97309837Y-70891061D01*
X97309837Y-70891061D02*
X97333646Y-70795823D01*
X97333646Y-70795823D02*
X97333646Y-70724395D01*
X97333646Y-70724395D02*
X97309837Y-70629157D01*
X97309837Y-70629157D02*
X97286027Y-70581538D01*
X97286027Y-70581538D02*
X97238408Y-70533919D01*
X97238408Y-70533919D02*
X97166980Y-70510109D01*
X97166980Y-70510109D02*
X97119361Y-70510109D01*
X97119361Y-70510109D02*
X97047932Y-70533919D01*
X97047932Y-70533919D02*
X97024123Y-70557728D01*
X96833646Y-70557728D02*
X96809837Y-70533919D01*
X96809837Y-70533919D02*
X96762218Y-70510109D01*
X96762218Y-70510109D02*
X96643170Y-70510109D01*
X96643170Y-70510109D02*
X96595551Y-70533919D01*
X96595551Y-70533919D02*
X96571742Y-70557728D01*
X96571742Y-70557728D02*
X96547932Y-70605347D01*
X96547932Y-70605347D02*
X96547932Y-70652966D01*
X96547932Y-70652966D02*
X96571742Y-70724395D01*
X96571742Y-70724395D02*
X96857456Y-71010109D01*
X96857456Y-71010109D02*
X96547932Y-71010109D01*
X96238409Y-70510109D02*
X96190790Y-70510109D01*
X96190790Y-70510109D02*
X96143171Y-70533919D01*
X96143171Y-70533919D02*
X96119361Y-70557728D01*
X96119361Y-70557728D02*
X96095552Y-70605347D01*
X96095552Y-70605347D02*
X96071742Y-70700585D01*
X96071742Y-70700585D02*
X96071742Y-70819633D01*
X96071742Y-70819633D02*
X96095552Y-70914871D01*
X96095552Y-70914871D02*
X96119361Y-70962490D01*
X96119361Y-70962490D02*
X96143171Y-70986300D01*
X96143171Y-70986300D02*
X96190790Y-71010109D01*
X96190790Y-71010109D02*
X96238409Y-71010109D01*
X96238409Y-71010109D02*
X96286028Y-70986300D01*
X96286028Y-70986300D02*
X96309837Y-70962490D01*
X96309837Y-70962490D02*
X96333647Y-70914871D01*
X96333647Y-70914871D02*
X96357456Y-70819633D01*
X96357456Y-70819633D02*
X96357456Y-70700585D01*
X96357456Y-70700585D02*
X96333647Y-70605347D01*
X96333647Y-70605347D02*
X96309837Y-70557728D01*
X96309837Y-70557728D02*
X96286028Y-70533919D01*
X96286028Y-70533919D02*
X96238409Y-70510109D01*
X95643171Y-70510109D02*
X95738409Y-70510109D01*
X95738409Y-70510109D02*
X95786028Y-70533919D01*
X95786028Y-70533919D02*
X95809838Y-70557728D01*
X95809838Y-70557728D02*
X95857457Y-70629157D01*
X95857457Y-70629157D02*
X95881266Y-70724395D01*
X95881266Y-70724395D02*
X95881266Y-70914871D01*
X95881266Y-70914871D02*
X95857457Y-70962490D01*
X95857457Y-70962490D02*
X95833647Y-70986300D01*
X95833647Y-70986300D02*
X95786028Y-71010109D01*
X95786028Y-71010109D02*
X95690790Y-71010109D01*
X95690790Y-71010109D02*
X95643171Y-70986300D01*
X95643171Y-70986300D02*
X95619362Y-70962490D01*
X95619362Y-70962490D02*
X95595552Y-70914871D01*
X95595552Y-70914871D02*
X95595552Y-70795823D01*
X95595552Y-70795823D02*
X95619362Y-70748204D01*
X95619362Y-70748204D02*
X95643171Y-70724395D01*
X95643171Y-70724395D02*
X95690790Y-70700585D01*
X95690790Y-70700585D02*
X95786028Y-70700585D01*
X95786028Y-70700585D02*
X95833647Y-70724395D01*
X95833647Y-70724395D02*
X95857457Y-70748204D01*
X95857457Y-70748204D02*
X95881266Y-70795823D01*
X120239723Y-67050890D02*
X120263532Y-67074700D01*
X120263532Y-67074700D02*
X120334961Y-67098509D01*
X120334961Y-67098509D02*
X120382580Y-67098509D01*
X120382580Y-67098509D02*
X120454008Y-67074700D01*
X120454008Y-67074700D02*
X120501627Y-67027080D01*
X120501627Y-67027080D02*
X120525437Y-66979461D01*
X120525437Y-66979461D02*
X120549246Y-66884223D01*
X120549246Y-66884223D02*
X120549246Y-66812795D01*
X120549246Y-66812795D02*
X120525437Y-66717557D01*
X120525437Y-66717557D02*
X120501627Y-66669938D01*
X120501627Y-66669938D02*
X120454008Y-66622319D01*
X120454008Y-66622319D02*
X120382580Y-66598509D01*
X120382580Y-66598509D02*
X120334961Y-66598509D01*
X120334961Y-66598509D02*
X120263532Y-66622319D01*
X120263532Y-66622319D02*
X120239723Y-66646128D01*
X120073056Y-66598509D02*
X119763532Y-66598509D01*
X119763532Y-66598509D02*
X119930199Y-66788985D01*
X119930199Y-66788985D02*
X119858770Y-66788985D01*
X119858770Y-66788985D02*
X119811151Y-66812795D01*
X119811151Y-66812795D02*
X119787342Y-66836604D01*
X119787342Y-66836604D02*
X119763532Y-66884223D01*
X119763532Y-66884223D02*
X119763532Y-67003271D01*
X119763532Y-67003271D02*
X119787342Y-67050890D01*
X119787342Y-67050890D02*
X119811151Y-67074700D01*
X119811151Y-67074700D02*
X119858770Y-67098509D01*
X119858770Y-67098509D02*
X120001627Y-67098509D01*
X120001627Y-67098509D02*
X120049246Y-67074700D01*
X120049246Y-67074700D02*
X120073056Y-67050890D01*
X119454009Y-66598509D02*
X119406390Y-66598509D01*
X119406390Y-66598509D02*
X119358771Y-66622319D01*
X119358771Y-66622319D02*
X119334961Y-66646128D01*
X119334961Y-66646128D02*
X119311152Y-66693747D01*
X119311152Y-66693747D02*
X119287342Y-66788985D01*
X119287342Y-66788985D02*
X119287342Y-66908033D01*
X119287342Y-66908033D02*
X119311152Y-67003271D01*
X119311152Y-67003271D02*
X119334961Y-67050890D01*
X119334961Y-67050890D02*
X119358771Y-67074700D01*
X119358771Y-67074700D02*
X119406390Y-67098509D01*
X119406390Y-67098509D02*
X119454009Y-67098509D01*
X119454009Y-67098509D02*
X119501628Y-67074700D01*
X119501628Y-67074700D02*
X119525437Y-67050890D01*
X119525437Y-67050890D02*
X119549247Y-67003271D01*
X119549247Y-67003271D02*
X119573056Y-66908033D01*
X119573056Y-66908033D02*
X119573056Y-66788985D01*
X119573056Y-66788985D02*
X119549247Y-66693747D01*
X119549247Y-66693747D02*
X119525437Y-66646128D01*
X119525437Y-66646128D02*
X119501628Y-66622319D01*
X119501628Y-66622319D02*
X119454009Y-66598509D01*
X118834962Y-66598509D02*
X119073057Y-66598509D01*
X119073057Y-66598509D02*
X119096866Y-66836604D01*
X119096866Y-66836604D02*
X119073057Y-66812795D01*
X119073057Y-66812795D02*
X119025438Y-66788985D01*
X119025438Y-66788985D02*
X118906390Y-66788985D01*
X118906390Y-66788985D02*
X118858771Y-66812795D01*
X118858771Y-66812795D02*
X118834962Y-66836604D01*
X118834962Y-66836604D02*
X118811152Y-66884223D01*
X118811152Y-66884223D02*
X118811152Y-67003271D01*
X118811152Y-67003271D02*
X118834962Y-67050890D01*
X118834962Y-67050890D02*
X118858771Y-67074700D01*
X118858771Y-67074700D02*
X118906390Y-67098509D01*
X118906390Y-67098509D02*
X119025438Y-67098509D01*
X119025438Y-67098509D02*
X119073057Y-67074700D01*
X119073057Y-67074700D02*
X119096866Y-67050890D01*
X90191523Y-70962490D02*
X90215332Y-70986300D01*
X90215332Y-70986300D02*
X90286761Y-71010109D01*
X90286761Y-71010109D02*
X90334380Y-71010109D01*
X90334380Y-71010109D02*
X90405808Y-70986300D01*
X90405808Y-70986300D02*
X90453427Y-70938680D01*
X90453427Y-70938680D02*
X90477237Y-70891061D01*
X90477237Y-70891061D02*
X90501046Y-70795823D01*
X90501046Y-70795823D02*
X90501046Y-70724395D01*
X90501046Y-70724395D02*
X90477237Y-70629157D01*
X90477237Y-70629157D02*
X90453427Y-70581538D01*
X90453427Y-70581538D02*
X90405808Y-70533919D01*
X90405808Y-70533919D02*
X90334380Y-70510109D01*
X90334380Y-70510109D02*
X90286761Y-70510109D01*
X90286761Y-70510109D02*
X90215332Y-70533919D01*
X90215332Y-70533919D02*
X90191523Y-70557728D01*
X90001046Y-70557728D02*
X89977237Y-70533919D01*
X89977237Y-70533919D02*
X89929618Y-70510109D01*
X89929618Y-70510109D02*
X89810570Y-70510109D01*
X89810570Y-70510109D02*
X89762951Y-70533919D01*
X89762951Y-70533919D02*
X89739142Y-70557728D01*
X89739142Y-70557728D02*
X89715332Y-70605347D01*
X89715332Y-70605347D02*
X89715332Y-70652966D01*
X89715332Y-70652966D02*
X89739142Y-70724395D01*
X89739142Y-70724395D02*
X90024856Y-71010109D01*
X90024856Y-71010109D02*
X89715332Y-71010109D01*
X89239142Y-71010109D02*
X89524856Y-71010109D01*
X89381999Y-71010109D02*
X89381999Y-70510109D01*
X89381999Y-70510109D02*
X89429618Y-70581538D01*
X89429618Y-70581538D02*
X89477237Y-70629157D01*
X89477237Y-70629157D02*
X89524856Y-70652966D01*
X88810571Y-70510109D02*
X88905809Y-70510109D01*
X88905809Y-70510109D02*
X88953428Y-70533919D01*
X88953428Y-70533919D02*
X88977238Y-70557728D01*
X88977238Y-70557728D02*
X89024857Y-70629157D01*
X89024857Y-70629157D02*
X89048666Y-70724395D01*
X89048666Y-70724395D02*
X89048666Y-70914871D01*
X89048666Y-70914871D02*
X89024857Y-70962490D01*
X89024857Y-70962490D02*
X89001047Y-70986300D01*
X89001047Y-70986300D02*
X88953428Y-71010109D01*
X88953428Y-71010109D02*
X88858190Y-71010109D01*
X88858190Y-71010109D02*
X88810571Y-70986300D01*
X88810571Y-70986300D02*
X88786762Y-70962490D01*
X88786762Y-70962490D02*
X88762952Y-70914871D01*
X88762952Y-70914871D02*
X88762952Y-70795823D01*
X88762952Y-70795823D02*
X88786762Y-70748204D01*
X88786762Y-70748204D02*
X88810571Y-70724395D01*
X88810571Y-70724395D02*
X88858190Y-70700585D01*
X88858190Y-70700585D02*
X88953428Y-70700585D01*
X88953428Y-70700585D02*
X89001047Y-70724395D01*
X89001047Y-70724395D02*
X89024857Y-70748204D01*
X89024857Y-70748204D02*
X89048666Y-70795823D01*
X99995923Y-67000090D02*
X100019732Y-67023900D01*
X100019732Y-67023900D02*
X100091161Y-67047709D01*
X100091161Y-67047709D02*
X100138780Y-67047709D01*
X100138780Y-67047709D02*
X100210208Y-67023900D01*
X100210208Y-67023900D02*
X100257827Y-66976280D01*
X100257827Y-66976280D02*
X100281637Y-66928661D01*
X100281637Y-66928661D02*
X100305446Y-66833423D01*
X100305446Y-66833423D02*
X100305446Y-66761995D01*
X100305446Y-66761995D02*
X100281637Y-66666757D01*
X100281637Y-66666757D02*
X100257827Y-66619138D01*
X100257827Y-66619138D02*
X100210208Y-66571519D01*
X100210208Y-66571519D02*
X100138780Y-66547709D01*
X100138780Y-66547709D02*
X100091161Y-66547709D01*
X100091161Y-66547709D02*
X100019732Y-66571519D01*
X100019732Y-66571519D02*
X99995923Y-66595328D01*
X99805446Y-66595328D02*
X99781637Y-66571519D01*
X99781637Y-66571519D02*
X99734018Y-66547709D01*
X99734018Y-66547709D02*
X99614970Y-66547709D01*
X99614970Y-66547709D02*
X99567351Y-66571519D01*
X99567351Y-66571519D02*
X99543542Y-66595328D01*
X99543542Y-66595328D02*
X99519732Y-66642947D01*
X99519732Y-66642947D02*
X99519732Y-66690566D01*
X99519732Y-66690566D02*
X99543542Y-66761995D01*
X99543542Y-66761995D02*
X99829256Y-67047709D01*
X99829256Y-67047709D02*
X99519732Y-67047709D01*
X99210209Y-66547709D02*
X99162590Y-66547709D01*
X99162590Y-66547709D02*
X99114971Y-66571519D01*
X99114971Y-66571519D02*
X99091161Y-66595328D01*
X99091161Y-66595328D02*
X99067352Y-66642947D01*
X99067352Y-66642947D02*
X99043542Y-66738185D01*
X99043542Y-66738185D02*
X99043542Y-66857233D01*
X99043542Y-66857233D02*
X99067352Y-66952471D01*
X99067352Y-66952471D02*
X99091161Y-67000090D01*
X99091161Y-67000090D02*
X99114971Y-67023900D01*
X99114971Y-67023900D02*
X99162590Y-67047709D01*
X99162590Y-67047709D02*
X99210209Y-67047709D01*
X99210209Y-67047709D02*
X99257828Y-67023900D01*
X99257828Y-67023900D02*
X99281637Y-67000090D01*
X99281637Y-67000090D02*
X99305447Y-66952471D01*
X99305447Y-66952471D02*
X99329256Y-66857233D01*
X99329256Y-66857233D02*
X99329256Y-66738185D01*
X99329256Y-66738185D02*
X99305447Y-66642947D01*
X99305447Y-66642947D02*
X99281637Y-66595328D01*
X99281637Y-66595328D02*
X99257828Y-66571519D01*
X99257828Y-66571519D02*
X99210209Y-66547709D01*
X98591162Y-66547709D02*
X98829257Y-66547709D01*
X98829257Y-66547709D02*
X98853066Y-66785804D01*
X98853066Y-66785804D02*
X98829257Y-66761995D01*
X98829257Y-66761995D02*
X98781638Y-66738185D01*
X98781638Y-66738185D02*
X98662590Y-66738185D01*
X98662590Y-66738185D02*
X98614971Y-66761995D01*
X98614971Y-66761995D02*
X98591162Y-66785804D01*
X98591162Y-66785804D02*
X98567352Y-66833423D01*
X98567352Y-66833423D02*
X98567352Y-66952471D01*
X98567352Y-66952471D02*
X98591162Y-67000090D01*
X98591162Y-67000090D02*
X98614971Y-67023900D01*
X98614971Y-67023900D02*
X98662590Y-67047709D01*
X98662590Y-67047709D02*
X98781638Y-67047709D01*
X98781638Y-67047709D02*
X98829257Y-67023900D01*
X98829257Y-67023900D02*
X98853066Y-67000090D01*
X109266923Y-75305890D02*
X109290732Y-75329700D01*
X109290732Y-75329700D02*
X109362161Y-75353509D01*
X109362161Y-75353509D02*
X109409780Y-75353509D01*
X109409780Y-75353509D02*
X109481208Y-75329700D01*
X109481208Y-75329700D02*
X109528827Y-75282080D01*
X109528827Y-75282080D02*
X109552637Y-75234461D01*
X109552637Y-75234461D02*
X109576446Y-75139223D01*
X109576446Y-75139223D02*
X109576446Y-75067795D01*
X109576446Y-75067795D02*
X109552637Y-74972557D01*
X109552637Y-74972557D02*
X109528827Y-74924938D01*
X109528827Y-74924938D02*
X109481208Y-74877319D01*
X109481208Y-74877319D02*
X109409780Y-74853509D01*
X109409780Y-74853509D02*
X109362161Y-74853509D01*
X109362161Y-74853509D02*
X109290732Y-74877319D01*
X109290732Y-74877319D02*
X109266923Y-74901128D01*
X109100256Y-74853509D02*
X108790732Y-74853509D01*
X108790732Y-74853509D02*
X108957399Y-75043985D01*
X108957399Y-75043985D02*
X108885970Y-75043985D01*
X108885970Y-75043985D02*
X108838351Y-75067795D01*
X108838351Y-75067795D02*
X108814542Y-75091604D01*
X108814542Y-75091604D02*
X108790732Y-75139223D01*
X108790732Y-75139223D02*
X108790732Y-75258271D01*
X108790732Y-75258271D02*
X108814542Y-75305890D01*
X108814542Y-75305890D02*
X108838351Y-75329700D01*
X108838351Y-75329700D02*
X108885970Y-75353509D01*
X108885970Y-75353509D02*
X109028827Y-75353509D01*
X109028827Y-75353509D02*
X109076446Y-75329700D01*
X109076446Y-75329700D02*
X109100256Y-75305890D01*
X108314542Y-75353509D02*
X108600256Y-75353509D01*
X108457399Y-75353509D02*
X108457399Y-74853509D01*
X108457399Y-74853509D02*
X108505018Y-74924938D01*
X108505018Y-74924938D02*
X108552637Y-74972557D01*
X108552637Y-74972557D02*
X108600256Y-74996366D01*
X108124066Y-74901128D02*
X108100257Y-74877319D01*
X108100257Y-74877319D02*
X108052638Y-74853509D01*
X108052638Y-74853509D02*
X107933590Y-74853509D01*
X107933590Y-74853509D02*
X107885971Y-74877319D01*
X107885971Y-74877319D02*
X107862162Y-74901128D01*
X107862162Y-74901128D02*
X107838352Y-74948747D01*
X107838352Y-74948747D02*
X107838352Y-74996366D01*
X107838352Y-74996366D02*
X107862162Y-75067795D01*
X107862162Y-75067795D02*
X108147876Y-75353509D01*
X108147876Y-75353509D02*
X107838352Y-75353509D01*
X112137123Y-74289890D02*
X112160932Y-74313700D01*
X112160932Y-74313700D02*
X112232361Y-74337509D01*
X112232361Y-74337509D02*
X112279980Y-74337509D01*
X112279980Y-74337509D02*
X112351408Y-74313700D01*
X112351408Y-74313700D02*
X112399027Y-74266080D01*
X112399027Y-74266080D02*
X112422837Y-74218461D01*
X112422837Y-74218461D02*
X112446646Y-74123223D01*
X112446646Y-74123223D02*
X112446646Y-74051795D01*
X112446646Y-74051795D02*
X112422837Y-73956557D01*
X112422837Y-73956557D02*
X112399027Y-73908938D01*
X112399027Y-73908938D02*
X112351408Y-73861319D01*
X112351408Y-73861319D02*
X112279980Y-73837509D01*
X112279980Y-73837509D02*
X112232361Y-73837509D01*
X112232361Y-73837509D02*
X112160932Y-73861319D01*
X112160932Y-73861319D02*
X112137123Y-73885128D01*
X111970456Y-73837509D02*
X111660932Y-73837509D01*
X111660932Y-73837509D02*
X111827599Y-74027985D01*
X111827599Y-74027985D02*
X111756170Y-74027985D01*
X111756170Y-74027985D02*
X111708551Y-74051795D01*
X111708551Y-74051795D02*
X111684742Y-74075604D01*
X111684742Y-74075604D02*
X111660932Y-74123223D01*
X111660932Y-74123223D02*
X111660932Y-74242271D01*
X111660932Y-74242271D02*
X111684742Y-74289890D01*
X111684742Y-74289890D02*
X111708551Y-74313700D01*
X111708551Y-74313700D02*
X111756170Y-74337509D01*
X111756170Y-74337509D02*
X111899027Y-74337509D01*
X111899027Y-74337509D02*
X111946646Y-74313700D01*
X111946646Y-74313700D02*
X111970456Y-74289890D01*
X111351409Y-73837509D02*
X111303790Y-73837509D01*
X111303790Y-73837509D02*
X111256171Y-73861319D01*
X111256171Y-73861319D02*
X111232361Y-73885128D01*
X111232361Y-73885128D02*
X111208552Y-73932747D01*
X111208552Y-73932747D02*
X111184742Y-74027985D01*
X111184742Y-74027985D02*
X111184742Y-74147033D01*
X111184742Y-74147033D02*
X111208552Y-74242271D01*
X111208552Y-74242271D02*
X111232361Y-74289890D01*
X111232361Y-74289890D02*
X111256171Y-74313700D01*
X111256171Y-74313700D02*
X111303790Y-74337509D01*
X111303790Y-74337509D02*
X111351409Y-74337509D01*
X111351409Y-74337509D02*
X111399028Y-74313700D01*
X111399028Y-74313700D02*
X111422837Y-74289890D01*
X111422837Y-74289890D02*
X111446647Y-74242271D01*
X111446647Y-74242271D02*
X111470456Y-74147033D01*
X111470456Y-74147033D02*
X111470456Y-74027985D01*
X111470456Y-74027985D02*
X111446647Y-73932747D01*
X111446647Y-73932747D02*
X111422837Y-73885128D01*
X111422837Y-73885128D02*
X111399028Y-73861319D01*
X111399028Y-73861319D02*
X111351409Y-73837509D01*
X110899028Y-74051795D02*
X110946647Y-74027985D01*
X110946647Y-74027985D02*
X110970457Y-74004176D01*
X110970457Y-74004176D02*
X110994266Y-73956557D01*
X110994266Y-73956557D02*
X110994266Y-73932747D01*
X110994266Y-73932747D02*
X110970457Y-73885128D01*
X110970457Y-73885128D02*
X110946647Y-73861319D01*
X110946647Y-73861319D02*
X110899028Y-73837509D01*
X110899028Y-73837509D02*
X110803790Y-73837509D01*
X110803790Y-73837509D02*
X110756171Y-73861319D01*
X110756171Y-73861319D02*
X110732362Y-73885128D01*
X110732362Y-73885128D02*
X110708552Y-73932747D01*
X110708552Y-73932747D02*
X110708552Y-73956557D01*
X110708552Y-73956557D02*
X110732362Y-74004176D01*
X110732362Y-74004176D02*
X110756171Y-74027985D01*
X110756171Y-74027985D02*
X110803790Y-74051795D01*
X110803790Y-74051795D02*
X110899028Y-74051795D01*
X110899028Y-74051795D02*
X110946647Y-74075604D01*
X110946647Y-74075604D02*
X110970457Y-74099414D01*
X110970457Y-74099414D02*
X110994266Y-74147033D01*
X110994266Y-74147033D02*
X110994266Y-74242271D01*
X110994266Y-74242271D02*
X110970457Y-74289890D01*
X110970457Y-74289890D02*
X110946647Y-74313700D01*
X110946647Y-74313700D02*
X110899028Y-74337509D01*
X110899028Y-74337509D02*
X110803790Y-74337509D01*
X110803790Y-74337509D02*
X110756171Y-74313700D01*
X110756171Y-74313700D02*
X110732362Y-74289890D01*
X110732362Y-74289890D02*
X110708552Y-74242271D01*
X110708552Y-74242271D02*
X110708552Y-74147033D01*
X110708552Y-74147033D02*
X110732362Y-74099414D01*
X110732362Y-74099414D02*
X110756171Y-74075604D01*
X110756171Y-74075604D02*
X110803790Y-74051795D01*
X116191490Y-70847476D02*
X116215300Y-70823667D01*
X116215300Y-70823667D02*
X116239109Y-70752238D01*
X116239109Y-70752238D02*
X116239109Y-70704619D01*
X116239109Y-70704619D02*
X116215300Y-70633191D01*
X116215300Y-70633191D02*
X116167680Y-70585572D01*
X116167680Y-70585572D02*
X116120061Y-70561762D01*
X116120061Y-70561762D02*
X116024823Y-70537953D01*
X116024823Y-70537953D02*
X115953395Y-70537953D01*
X115953395Y-70537953D02*
X115858157Y-70561762D01*
X115858157Y-70561762D02*
X115810538Y-70585572D01*
X115810538Y-70585572D02*
X115762919Y-70633191D01*
X115762919Y-70633191D02*
X115739109Y-70704619D01*
X115739109Y-70704619D02*
X115739109Y-70752238D01*
X115739109Y-70752238D02*
X115762919Y-70823667D01*
X115762919Y-70823667D02*
X115786728Y-70847476D01*
X115739109Y-71014143D02*
X115739109Y-71323667D01*
X115739109Y-71323667D02*
X115929585Y-71157000D01*
X115929585Y-71157000D02*
X115929585Y-71228429D01*
X115929585Y-71228429D02*
X115953395Y-71276048D01*
X115953395Y-71276048D02*
X115977204Y-71299857D01*
X115977204Y-71299857D02*
X116024823Y-71323667D01*
X116024823Y-71323667D02*
X116143871Y-71323667D01*
X116143871Y-71323667D02*
X116191490Y-71299857D01*
X116191490Y-71299857D02*
X116215300Y-71276048D01*
X116215300Y-71276048D02*
X116239109Y-71228429D01*
X116239109Y-71228429D02*
X116239109Y-71085572D01*
X116239109Y-71085572D02*
X116215300Y-71037953D01*
X116215300Y-71037953D02*
X116191490Y-71014143D01*
X116239109Y-71799857D02*
X116239109Y-71514143D01*
X116239109Y-71657000D02*
X115739109Y-71657000D01*
X115739109Y-71657000D02*
X115810538Y-71609381D01*
X115810538Y-71609381D02*
X115858157Y-71561762D01*
X115858157Y-71561762D02*
X115881966Y-71514143D01*
X115905776Y-72228428D02*
X116239109Y-72228428D01*
X115715300Y-72109380D02*
X116072442Y-71990333D01*
X116072442Y-71990333D02*
X116072442Y-72299856D01*
X105406123Y-73959690D02*
X105429932Y-73983500D01*
X105429932Y-73983500D02*
X105501361Y-74007309D01*
X105501361Y-74007309D02*
X105548980Y-74007309D01*
X105548980Y-74007309D02*
X105620408Y-73983500D01*
X105620408Y-73983500D02*
X105668027Y-73935880D01*
X105668027Y-73935880D02*
X105691837Y-73888261D01*
X105691837Y-73888261D02*
X105715646Y-73793023D01*
X105715646Y-73793023D02*
X105715646Y-73721595D01*
X105715646Y-73721595D02*
X105691837Y-73626357D01*
X105691837Y-73626357D02*
X105668027Y-73578738D01*
X105668027Y-73578738D02*
X105620408Y-73531119D01*
X105620408Y-73531119D02*
X105548980Y-73507309D01*
X105548980Y-73507309D02*
X105501361Y-73507309D01*
X105501361Y-73507309D02*
X105429932Y-73531119D01*
X105429932Y-73531119D02*
X105406123Y-73554928D01*
X105239456Y-73507309D02*
X104929932Y-73507309D01*
X104929932Y-73507309D02*
X105096599Y-73697785D01*
X105096599Y-73697785D02*
X105025170Y-73697785D01*
X105025170Y-73697785D02*
X104977551Y-73721595D01*
X104977551Y-73721595D02*
X104953742Y-73745404D01*
X104953742Y-73745404D02*
X104929932Y-73793023D01*
X104929932Y-73793023D02*
X104929932Y-73912071D01*
X104929932Y-73912071D02*
X104953742Y-73959690D01*
X104953742Y-73959690D02*
X104977551Y-73983500D01*
X104977551Y-73983500D02*
X105025170Y-74007309D01*
X105025170Y-74007309D02*
X105168027Y-74007309D01*
X105168027Y-74007309D02*
X105215646Y-73983500D01*
X105215646Y-73983500D02*
X105239456Y-73959690D01*
X104620409Y-73507309D02*
X104572790Y-73507309D01*
X104572790Y-73507309D02*
X104525171Y-73531119D01*
X104525171Y-73531119D02*
X104501361Y-73554928D01*
X104501361Y-73554928D02*
X104477552Y-73602547D01*
X104477552Y-73602547D02*
X104453742Y-73697785D01*
X104453742Y-73697785D02*
X104453742Y-73816833D01*
X104453742Y-73816833D02*
X104477552Y-73912071D01*
X104477552Y-73912071D02*
X104501361Y-73959690D01*
X104501361Y-73959690D02*
X104525171Y-73983500D01*
X104525171Y-73983500D02*
X104572790Y-74007309D01*
X104572790Y-74007309D02*
X104620409Y-74007309D01*
X104620409Y-74007309D02*
X104668028Y-73983500D01*
X104668028Y-73983500D02*
X104691837Y-73959690D01*
X104691837Y-73959690D02*
X104715647Y-73912071D01*
X104715647Y-73912071D02*
X104739456Y-73816833D01*
X104739456Y-73816833D02*
X104739456Y-73697785D01*
X104739456Y-73697785D02*
X104715647Y-73602547D01*
X104715647Y-73602547D02*
X104691837Y-73554928D01*
X104691837Y-73554928D02*
X104668028Y-73531119D01*
X104668028Y-73531119D02*
X104620409Y-73507309D01*
X104025171Y-73507309D02*
X104120409Y-73507309D01*
X104120409Y-73507309D02*
X104168028Y-73531119D01*
X104168028Y-73531119D02*
X104191838Y-73554928D01*
X104191838Y-73554928D02*
X104239457Y-73626357D01*
X104239457Y-73626357D02*
X104263266Y-73721595D01*
X104263266Y-73721595D02*
X104263266Y-73912071D01*
X104263266Y-73912071D02*
X104239457Y-73959690D01*
X104239457Y-73959690D02*
X104215647Y-73983500D01*
X104215647Y-73983500D02*
X104168028Y-74007309D01*
X104168028Y-74007309D02*
X104072790Y-74007309D01*
X104072790Y-74007309D02*
X104025171Y-73983500D01*
X104025171Y-73983500D02*
X104001362Y-73959690D01*
X104001362Y-73959690D02*
X103977552Y-73912071D01*
X103977552Y-73912071D02*
X103977552Y-73793023D01*
X103977552Y-73793023D02*
X104001362Y-73745404D01*
X104001362Y-73745404D02*
X104025171Y-73721595D01*
X104025171Y-73721595D02*
X104072790Y-73697785D01*
X104072790Y-73697785D02*
X104168028Y-73697785D01*
X104168028Y-73697785D02*
X104215647Y-73721595D01*
X104215647Y-73721595D02*
X104239457Y-73745404D01*
X104239457Y-73745404D02*
X104263266Y-73793023D01*
X100722923Y-68819490D02*
X100746732Y-68843300D01*
X100746732Y-68843300D02*
X100818161Y-68867109D01*
X100818161Y-68867109D02*
X100865780Y-68867109D01*
X100865780Y-68867109D02*
X100937208Y-68843300D01*
X100937208Y-68843300D02*
X100984827Y-68795680D01*
X100984827Y-68795680D02*
X101008637Y-68748061D01*
X101008637Y-68748061D02*
X101032446Y-68652823D01*
X101032446Y-68652823D02*
X101032446Y-68581395D01*
X101032446Y-68581395D02*
X101008637Y-68486157D01*
X101008637Y-68486157D02*
X100984827Y-68438538D01*
X100984827Y-68438538D02*
X100937208Y-68390919D01*
X100937208Y-68390919D02*
X100865780Y-68367109D01*
X100865780Y-68367109D02*
X100818161Y-68367109D01*
X100818161Y-68367109D02*
X100746732Y-68390919D01*
X100746732Y-68390919D02*
X100722923Y-68414728D01*
X100532446Y-68414728D02*
X100508637Y-68390919D01*
X100508637Y-68390919D02*
X100461018Y-68367109D01*
X100461018Y-68367109D02*
X100341970Y-68367109D01*
X100341970Y-68367109D02*
X100294351Y-68390919D01*
X100294351Y-68390919D02*
X100270542Y-68414728D01*
X100270542Y-68414728D02*
X100246732Y-68462347D01*
X100246732Y-68462347D02*
X100246732Y-68509966D01*
X100246732Y-68509966D02*
X100270542Y-68581395D01*
X100270542Y-68581395D02*
X100556256Y-68867109D01*
X100556256Y-68867109D02*
X100246732Y-68867109D01*
X99770542Y-68867109D02*
X100056256Y-68867109D01*
X99913399Y-68867109D02*
X99913399Y-68367109D01*
X99913399Y-68367109D02*
X99961018Y-68438538D01*
X99961018Y-68438538D02*
X100008637Y-68486157D01*
X100008637Y-68486157D02*
X100056256Y-68509966D01*
X99532447Y-68867109D02*
X99437209Y-68867109D01*
X99437209Y-68867109D02*
X99389590Y-68843300D01*
X99389590Y-68843300D02*
X99365781Y-68819490D01*
X99365781Y-68819490D02*
X99318162Y-68748061D01*
X99318162Y-68748061D02*
X99294352Y-68652823D01*
X99294352Y-68652823D02*
X99294352Y-68462347D01*
X99294352Y-68462347D02*
X99318162Y-68414728D01*
X99318162Y-68414728D02*
X99341971Y-68390919D01*
X99341971Y-68390919D02*
X99389590Y-68367109D01*
X99389590Y-68367109D02*
X99484828Y-68367109D01*
X99484828Y-68367109D02*
X99532447Y-68390919D01*
X99532447Y-68390919D02*
X99556257Y-68414728D01*
X99556257Y-68414728D02*
X99580066Y-68462347D01*
X99580066Y-68462347D02*
X99580066Y-68581395D01*
X99580066Y-68581395D02*
X99556257Y-68629014D01*
X99556257Y-68629014D02*
X99532447Y-68652823D01*
X99532447Y-68652823D02*
X99484828Y-68676633D01*
X99484828Y-68676633D02*
X99389590Y-68676633D01*
X99389590Y-68676633D02*
X99341971Y-68652823D01*
X99341971Y-68652823D02*
X99318162Y-68629014D01*
X99318162Y-68629014D02*
X99294352Y-68581395D01*
X95185690Y-67065476D02*
X95209500Y-67041667D01*
X95209500Y-67041667D02*
X95233309Y-66970238D01*
X95233309Y-66970238D02*
X95233309Y-66922619D01*
X95233309Y-66922619D02*
X95209500Y-66851191D01*
X95209500Y-66851191D02*
X95161880Y-66803572D01*
X95161880Y-66803572D02*
X95114261Y-66779762D01*
X95114261Y-66779762D02*
X95019023Y-66755953D01*
X95019023Y-66755953D02*
X94947595Y-66755953D01*
X94947595Y-66755953D02*
X94852357Y-66779762D01*
X94852357Y-66779762D02*
X94804738Y-66803572D01*
X94804738Y-66803572D02*
X94757119Y-66851191D01*
X94757119Y-66851191D02*
X94733309Y-66922619D01*
X94733309Y-66922619D02*
X94733309Y-66970238D01*
X94733309Y-66970238D02*
X94757119Y-67041667D01*
X94757119Y-67041667D02*
X94780928Y-67065476D01*
X94780928Y-67255953D02*
X94757119Y-67279762D01*
X94757119Y-67279762D02*
X94733309Y-67327381D01*
X94733309Y-67327381D02*
X94733309Y-67446429D01*
X94733309Y-67446429D02*
X94757119Y-67494048D01*
X94757119Y-67494048D02*
X94780928Y-67517857D01*
X94780928Y-67517857D02*
X94828547Y-67541667D01*
X94828547Y-67541667D02*
X94876166Y-67541667D01*
X94876166Y-67541667D02*
X94947595Y-67517857D01*
X94947595Y-67517857D02*
X95233309Y-67232143D01*
X95233309Y-67232143D02*
X95233309Y-67541667D01*
X94733309Y-67851190D02*
X94733309Y-67898809D01*
X94733309Y-67898809D02*
X94757119Y-67946428D01*
X94757119Y-67946428D02*
X94780928Y-67970238D01*
X94780928Y-67970238D02*
X94828547Y-67994047D01*
X94828547Y-67994047D02*
X94923785Y-68017857D01*
X94923785Y-68017857D02*
X95042833Y-68017857D01*
X95042833Y-68017857D02*
X95138071Y-67994047D01*
X95138071Y-67994047D02*
X95185690Y-67970238D01*
X95185690Y-67970238D02*
X95209500Y-67946428D01*
X95209500Y-67946428D02*
X95233309Y-67898809D01*
X95233309Y-67898809D02*
X95233309Y-67851190D01*
X95233309Y-67851190D02*
X95209500Y-67803571D01*
X95209500Y-67803571D02*
X95185690Y-67779762D01*
X95185690Y-67779762D02*
X95138071Y-67755952D01*
X95138071Y-67755952D02*
X95042833Y-67732143D01*
X95042833Y-67732143D02*
X94923785Y-67732143D01*
X94923785Y-67732143D02*
X94828547Y-67755952D01*
X94828547Y-67755952D02*
X94780928Y-67779762D01*
X94780928Y-67779762D02*
X94757119Y-67803571D01*
X94757119Y-67803571D02*
X94733309Y-67851190D01*
X95233309Y-68255952D02*
X95233309Y-68351190D01*
X95233309Y-68351190D02*
X95209500Y-68398809D01*
X95209500Y-68398809D02*
X95185690Y-68422618D01*
X95185690Y-68422618D02*
X95114261Y-68470237D01*
X95114261Y-68470237D02*
X95019023Y-68494047D01*
X95019023Y-68494047D02*
X94828547Y-68494047D01*
X94828547Y-68494047D02*
X94780928Y-68470237D01*
X94780928Y-68470237D02*
X94757119Y-68446428D01*
X94757119Y-68446428D02*
X94733309Y-68398809D01*
X94733309Y-68398809D02*
X94733309Y-68303571D01*
X94733309Y-68303571D02*
X94757119Y-68255952D01*
X94757119Y-68255952D02*
X94780928Y-68232142D01*
X94780928Y-68232142D02*
X94828547Y-68208333D01*
X94828547Y-68208333D02*
X94947595Y-68208333D01*
X94947595Y-68208333D02*
X94995214Y-68232142D01*
X94995214Y-68232142D02*
X95019023Y-68255952D01*
X95019023Y-68255952D02*
X95042833Y-68303571D01*
X95042833Y-68303571D02*
X95042833Y-68398809D01*
X95042833Y-68398809D02*
X95019023Y-68446428D01*
X95019023Y-68446428D02*
X94995214Y-68470237D01*
X94995214Y-68470237D02*
X94947595Y-68494047D01*
X92071123Y-72664290D02*
X92094932Y-72688100D01*
X92094932Y-72688100D02*
X92166361Y-72711909D01*
X92166361Y-72711909D02*
X92213980Y-72711909D01*
X92213980Y-72711909D02*
X92285408Y-72688100D01*
X92285408Y-72688100D02*
X92333027Y-72640480D01*
X92333027Y-72640480D02*
X92356837Y-72592861D01*
X92356837Y-72592861D02*
X92380646Y-72497623D01*
X92380646Y-72497623D02*
X92380646Y-72426195D01*
X92380646Y-72426195D02*
X92356837Y-72330957D01*
X92356837Y-72330957D02*
X92333027Y-72283338D01*
X92333027Y-72283338D02*
X92285408Y-72235719D01*
X92285408Y-72235719D02*
X92213980Y-72211909D01*
X92213980Y-72211909D02*
X92166361Y-72211909D01*
X92166361Y-72211909D02*
X92094932Y-72235719D01*
X92094932Y-72235719D02*
X92071123Y-72259528D01*
X91880646Y-72259528D02*
X91856837Y-72235719D01*
X91856837Y-72235719D02*
X91809218Y-72211909D01*
X91809218Y-72211909D02*
X91690170Y-72211909D01*
X91690170Y-72211909D02*
X91642551Y-72235719D01*
X91642551Y-72235719D02*
X91618742Y-72259528D01*
X91618742Y-72259528D02*
X91594932Y-72307147D01*
X91594932Y-72307147D02*
X91594932Y-72354766D01*
X91594932Y-72354766D02*
X91618742Y-72426195D01*
X91618742Y-72426195D02*
X91904456Y-72711909D01*
X91904456Y-72711909D02*
X91594932Y-72711909D01*
X91404456Y-72259528D02*
X91380647Y-72235719D01*
X91380647Y-72235719D02*
X91333028Y-72211909D01*
X91333028Y-72211909D02*
X91213980Y-72211909D01*
X91213980Y-72211909D02*
X91166361Y-72235719D01*
X91166361Y-72235719D02*
X91142552Y-72259528D01*
X91142552Y-72259528D02*
X91118742Y-72307147D01*
X91118742Y-72307147D02*
X91118742Y-72354766D01*
X91118742Y-72354766D02*
X91142552Y-72426195D01*
X91142552Y-72426195D02*
X91428266Y-72711909D01*
X91428266Y-72711909D02*
X91118742Y-72711909D01*
X90809219Y-72211909D02*
X90761600Y-72211909D01*
X90761600Y-72211909D02*
X90713981Y-72235719D01*
X90713981Y-72235719D02*
X90690171Y-72259528D01*
X90690171Y-72259528D02*
X90666362Y-72307147D01*
X90666362Y-72307147D02*
X90642552Y-72402385D01*
X90642552Y-72402385D02*
X90642552Y-72521433D01*
X90642552Y-72521433D02*
X90666362Y-72616671D01*
X90666362Y-72616671D02*
X90690171Y-72664290D01*
X90690171Y-72664290D02*
X90713981Y-72688100D01*
X90713981Y-72688100D02*
X90761600Y-72711909D01*
X90761600Y-72711909D02*
X90809219Y-72711909D01*
X90809219Y-72711909D02*
X90856838Y-72688100D01*
X90856838Y-72688100D02*
X90880647Y-72664290D01*
X90880647Y-72664290D02*
X90904457Y-72616671D01*
X90904457Y-72616671D02*
X90928266Y-72521433D01*
X90928266Y-72521433D02*
X90928266Y-72402385D01*
X90928266Y-72402385D02*
X90904457Y-72307147D01*
X90904457Y-72307147D02*
X90880647Y-72259528D01*
X90880647Y-72259528D02*
X90856838Y-72235719D01*
X90856838Y-72235719D02*
X90809219Y-72211909D01*
X91944123Y-74874090D02*
X91967932Y-74897900D01*
X91967932Y-74897900D02*
X92039361Y-74921709D01*
X92039361Y-74921709D02*
X92086980Y-74921709D01*
X92086980Y-74921709D02*
X92158408Y-74897900D01*
X92158408Y-74897900D02*
X92206027Y-74850280D01*
X92206027Y-74850280D02*
X92229837Y-74802661D01*
X92229837Y-74802661D02*
X92253646Y-74707423D01*
X92253646Y-74707423D02*
X92253646Y-74635995D01*
X92253646Y-74635995D02*
X92229837Y-74540757D01*
X92229837Y-74540757D02*
X92206027Y-74493138D01*
X92206027Y-74493138D02*
X92158408Y-74445519D01*
X92158408Y-74445519D02*
X92086980Y-74421709D01*
X92086980Y-74421709D02*
X92039361Y-74421709D01*
X92039361Y-74421709D02*
X91967932Y-74445519D01*
X91967932Y-74445519D02*
X91944123Y-74469328D01*
X91753646Y-74469328D02*
X91729837Y-74445519D01*
X91729837Y-74445519D02*
X91682218Y-74421709D01*
X91682218Y-74421709D02*
X91563170Y-74421709D01*
X91563170Y-74421709D02*
X91515551Y-74445519D01*
X91515551Y-74445519D02*
X91491742Y-74469328D01*
X91491742Y-74469328D02*
X91467932Y-74516947D01*
X91467932Y-74516947D02*
X91467932Y-74564566D01*
X91467932Y-74564566D02*
X91491742Y-74635995D01*
X91491742Y-74635995D02*
X91777456Y-74921709D01*
X91777456Y-74921709D02*
X91467932Y-74921709D01*
X91301266Y-74421709D02*
X90991742Y-74421709D01*
X90991742Y-74421709D02*
X91158409Y-74612185D01*
X91158409Y-74612185D02*
X91086980Y-74612185D01*
X91086980Y-74612185D02*
X91039361Y-74635995D01*
X91039361Y-74635995D02*
X91015552Y-74659804D01*
X91015552Y-74659804D02*
X90991742Y-74707423D01*
X90991742Y-74707423D02*
X90991742Y-74826471D01*
X90991742Y-74826471D02*
X91015552Y-74874090D01*
X91015552Y-74874090D02*
X91039361Y-74897900D01*
X91039361Y-74897900D02*
X91086980Y-74921709D01*
X91086980Y-74921709D02*
X91229837Y-74921709D01*
X91229837Y-74921709D02*
X91277456Y-74897900D01*
X91277456Y-74897900D02*
X91301266Y-74874090D01*
X90801266Y-74469328D02*
X90777457Y-74445519D01*
X90777457Y-74445519D02*
X90729838Y-74421709D01*
X90729838Y-74421709D02*
X90610790Y-74421709D01*
X90610790Y-74421709D02*
X90563171Y-74445519D01*
X90563171Y-74445519D02*
X90539362Y-74469328D01*
X90539362Y-74469328D02*
X90515552Y-74516947D01*
X90515552Y-74516947D02*
X90515552Y-74564566D01*
X90515552Y-74564566D02*
X90539362Y-74635995D01*
X90539362Y-74635995D02*
X90825076Y-74921709D01*
X90825076Y-74921709D02*
X90515552Y-74921709D01*
X96760523Y-75144090D02*
X96784332Y-75167900D01*
X96784332Y-75167900D02*
X96855761Y-75191709D01*
X96855761Y-75191709D02*
X96903380Y-75191709D01*
X96903380Y-75191709D02*
X96974808Y-75167900D01*
X96974808Y-75167900D02*
X97022427Y-75120280D01*
X97022427Y-75120280D02*
X97046237Y-75072661D01*
X97046237Y-75072661D02*
X97070046Y-74977423D01*
X97070046Y-74977423D02*
X97070046Y-74905995D01*
X97070046Y-74905995D02*
X97046237Y-74810757D01*
X97046237Y-74810757D02*
X97022427Y-74763138D01*
X97022427Y-74763138D02*
X96974808Y-74715519D01*
X96974808Y-74715519D02*
X96903380Y-74691709D01*
X96903380Y-74691709D02*
X96855761Y-74691709D01*
X96855761Y-74691709D02*
X96784332Y-74715519D01*
X96784332Y-74715519D02*
X96760523Y-74739328D01*
X96570046Y-74739328D02*
X96546237Y-74715519D01*
X96546237Y-74715519D02*
X96498618Y-74691709D01*
X96498618Y-74691709D02*
X96379570Y-74691709D01*
X96379570Y-74691709D02*
X96331951Y-74715519D01*
X96331951Y-74715519D02*
X96308142Y-74739328D01*
X96308142Y-74739328D02*
X96284332Y-74786947D01*
X96284332Y-74786947D02*
X96284332Y-74834566D01*
X96284332Y-74834566D02*
X96308142Y-74905995D01*
X96308142Y-74905995D02*
X96593856Y-75191709D01*
X96593856Y-75191709D02*
X96284332Y-75191709D01*
X96093856Y-74739328D02*
X96070047Y-74715519D01*
X96070047Y-74715519D02*
X96022428Y-74691709D01*
X96022428Y-74691709D02*
X95903380Y-74691709D01*
X95903380Y-74691709D02*
X95855761Y-74715519D01*
X95855761Y-74715519D02*
X95831952Y-74739328D01*
X95831952Y-74739328D02*
X95808142Y-74786947D01*
X95808142Y-74786947D02*
X95808142Y-74834566D01*
X95808142Y-74834566D02*
X95831952Y-74905995D01*
X95831952Y-74905995D02*
X96117666Y-75191709D01*
X96117666Y-75191709D02*
X95808142Y-75191709D01*
X95522428Y-74905995D02*
X95570047Y-74882185D01*
X95570047Y-74882185D02*
X95593857Y-74858376D01*
X95593857Y-74858376D02*
X95617666Y-74810757D01*
X95617666Y-74810757D02*
X95617666Y-74786947D01*
X95617666Y-74786947D02*
X95593857Y-74739328D01*
X95593857Y-74739328D02*
X95570047Y-74715519D01*
X95570047Y-74715519D02*
X95522428Y-74691709D01*
X95522428Y-74691709D02*
X95427190Y-74691709D01*
X95427190Y-74691709D02*
X95379571Y-74715519D01*
X95379571Y-74715519D02*
X95355762Y-74739328D01*
X95355762Y-74739328D02*
X95331952Y-74786947D01*
X95331952Y-74786947D02*
X95331952Y-74810757D01*
X95331952Y-74810757D02*
X95355762Y-74858376D01*
X95355762Y-74858376D02*
X95379571Y-74882185D01*
X95379571Y-74882185D02*
X95427190Y-74905995D01*
X95427190Y-74905995D02*
X95522428Y-74905995D01*
X95522428Y-74905995D02*
X95570047Y-74929804D01*
X95570047Y-74929804D02*
X95593857Y-74953614D01*
X95593857Y-74953614D02*
X95617666Y-75001233D01*
X95617666Y-75001233D02*
X95617666Y-75096471D01*
X95617666Y-75096471D02*
X95593857Y-75144090D01*
X95593857Y-75144090D02*
X95570047Y-75167900D01*
X95570047Y-75167900D02*
X95522428Y-75191709D01*
X95522428Y-75191709D02*
X95427190Y-75191709D01*
X95427190Y-75191709D02*
X95379571Y-75167900D01*
X95379571Y-75167900D02*
X95355762Y-75144090D01*
X95355762Y-75144090D02*
X95331952Y-75096471D01*
X95331952Y-75096471D02*
X95331952Y-75001233D01*
X95331952Y-75001233D02*
X95355762Y-74953614D01*
X95355762Y-74953614D02*
X95379571Y-74929804D01*
X95379571Y-74929804D02*
X95427190Y-74905995D01*
X94941290Y-73551876D02*
X94965100Y-73528067D01*
X94965100Y-73528067D02*
X94988909Y-73456638D01*
X94988909Y-73456638D02*
X94988909Y-73409019D01*
X94988909Y-73409019D02*
X94965100Y-73337591D01*
X94965100Y-73337591D02*
X94917480Y-73289972D01*
X94917480Y-73289972D02*
X94869861Y-73266162D01*
X94869861Y-73266162D02*
X94774623Y-73242353D01*
X94774623Y-73242353D02*
X94703195Y-73242353D01*
X94703195Y-73242353D02*
X94607957Y-73266162D01*
X94607957Y-73266162D02*
X94560338Y-73289972D01*
X94560338Y-73289972D02*
X94512719Y-73337591D01*
X94512719Y-73337591D02*
X94488909Y-73409019D01*
X94488909Y-73409019D02*
X94488909Y-73456638D01*
X94488909Y-73456638D02*
X94512719Y-73528067D01*
X94512719Y-73528067D02*
X94536528Y-73551876D01*
X94536528Y-73742353D02*
X94512719Y-73766162D01*
X94512719Y-73766162D02*
X94488909Y-73813781D01*
X94488909Y-73813781D02*
X94488909Y-73932829D01*
X94488909Y-73932829D02*
X94512719Y-73980448D01*
X94512719Y-73980448D02*
X94536528Y-74004257D01*
X94536528Y-74004257D02*
X94584147Y-74028067D01*
X94584147Y-74028067D02*
X94631766Y-74028067D01*
X94631766Y-74028067D02*
X94703195Y-74004257D01*
X94703195Y-74004257D02*
X94988909Y-73718543D01*
X94988909Y-73718543D02*
X94988909Y-74028067D01*
X94988909Y-74504257D02*
X94988909Y-74218543D01*
X94988909Y-74361400D02*
X94488909Y-74361400D01*
X94488909Y-74361400D02*
X94560338Y-74313781D01*
X94560338Y-74313781D02*
X94607957Y-74266162D01*
X94607957Y-74266162D02*
X94631766Y-74218543D01*
X94488909Y-74670923D02*
X94488909Y-75004256D01*
X94488909Y-75004256D02*
X94988909Y-74789971D01*
X92045723Y-69997290D02*
X92069532Y-70021100D01*
X92069532Y-70021100D02*
X92140961Y-70044909D01*
X92140961Y-70044909D02*
X92188580Y-70044909D01*
X92188580Y-70044909D02*
X92260008Y-70021100D01*
X92260008Y-70021100D02*
X92307627Y-69973480D01*
X92307627Y-69973480D02*
X92331437Y-69925861D01*
X92331437Y-69925861D02*
X92355246Y-69830623D01*
X92355246Y-69830623D02*
X92355246Y-69759195D01*
X92355246Y-69759195D02*
X92331437Y-69663957D01*
X92331437Y-69663957D02*
X92307627Y-69616338D01*
X92307627Y-69616338D02*
X92260008Y-69568719D01*
X92260008Y-69568719D02*
X92188580Y-69544909D01*
X92188580Y-69544909D02*
X92140961Y-69544909D01*
X92140961Y-69544909D02*
X92069532Y-69568719D01*
X92069532Y-69568719D02*
X92045723Y-69592528D01*
X91855246Y-69592528D02*
X91831437Y-69568719D01*
X91831437Y-69568719D02*
X91783818Y-69544909D01*
X91783818Y-69544909D02*
X91664770Y-69544909D01*
X91664770Y-69544909D02*
X91617151Y-69568719D01*
X91617151Y-69568719D02*
X91593342Y-69592528D01*
X91593342Y-69592528D02*
X91569532Y-69640147D01*
X91569532Y-69640147D02*
X91569532Y-69687766D01*
X91569532Y-69687766D02*
X91593342Y-69759195D01*
X91593342Y-69759195D02*
X91879056Y-70044909D01*
X91879056Y-70044909D02*
X91569532Y-70044909D01*
X91379056Y-69592528D02*
X91355247Y-69568719D01*
X91355247Y-69568719D02*
X91307628Y-69544909D01*
X91307628Y-69544909D02*
X91188580Y-69544909D01*
X91188580Y-69544909D02*
X91140961Y-69568719D01*
X91140961Y-69568719D02*
X91117152Y-69592528D01*
X91117152Y-69592528D02*
X91093342Y-69640147D01*
X91093342Y-69640147D02*
X91093342Y-69687766D01*
X91093342Y-69687766D02*
X91117152Y-69759195D01*
X91117152Y-69759195D02*
X91402866Y-70044909D01*
X91402866Y-70044909D02*
X91093342Y-70044909D01*
X90664771Y-69544909D02*
X90760009Y-69544909D01*
X90760009Y-69544909D02*
X90807628Y-69568719D01*
X90807628Y-69568719D02*
X90831438Y-69592528D01*
X90831438Y-69592528D02*
X90879057Y-69663957D01*
X90879057Y-69663957D02*
X90902866Y-69759195D01*
X90902866Y-69759195D02*
X90902866Y-69949671D01*
X90902866Y-69949671D02*
X90879057Y-69997290D01*
X90879057Y-69997290D02*
X90855247Y-70021100D01*
X90855247Y-70021100D02*
X90807628Y-70044909D01*
X90807628Y-70044909D02*
X90712390Y-70044909D01*
X90712390Y-70044909D02*
X90664771Y-70021100D01*
X90664771Y-70021100D02*
X90640962Y-69997290D01*
X90640962Y-69997290D02*
X90617152Y-69949671D01*
X90617152Y-69949671D02*
X90617152Y-69830623D01*
X90617152Y-69830623D02*
X90640962Y-69783004D01*
X90640962Y-69783004D02*
X90664771Y-69759195D01*
X90664771Y-69759195D02*
X90712390Y-69735385D01*
X90712390Y-69735385D02*
X90807628Y-69735385D01*
X90807628Y-69735385D02*
X90855247Y-69759195D01*
X90855247Y-69759195D02*
X90879057Y-69783004D01*
X90879057Y-69783004D02*
X90902866Y-69830623D01*
X90318523Y-73451690D02*
X90342332Y-73475500D01*
X90342332Y-73475500D02*
X90413761Y-73499309D01*
X90413761Y-73499309D02*
X90461380Y-73499309D01*
X90461380Y-73499309D02*
X90532808Y-73475500D01*
X90532808Y-73475500D02*
X90580427Y-73427880D01*
X90580427Y-73427880D02*
X90604237Y-73380261D01*
X90604237Y-73380261D02*
X90628046Y-73285023D01*
X90628046Y-73285023D02*
X90628046Y-73213595D01*
X90628046Y-73213595D02*
X90604237Y-73118357D01*
X90604237Y-73118357D02*
X90580427Y-73070738D01*
X90580427Y-73070738D02*
X90532808Y-73023119D01*
X90532808Y-73023119D02*
X90461380Y-72999309D01*
X90461380Y-72999309D02*
X90413761Y-72999309D01*
X90413761Y-72999309D02*
X90342332Y-73023119D01*
X90342332Y-73023119D02*
X90318523Y-73046928D01*
X90128046Y-73046928D02*
X90104237Y-73023119D01*
X90104237Y-73023119D02*
X90056618Y-72999309D01*
X90056618Y-72999309D02*
X89937570Y-72999309D01*
X89937570Y-72999309D02*
X89889951Y-73023119D01*
X89889951Y-73023119D02*
X89866142Y-73046928D01*
X89866142Y-73046928D02*
X89842332Y-73094547D01*
X89842332Y-73094547D02*
X89842332Y-73142166D01*
X89842332Y-73142166D02*
X89866142Y-73213595D01*
X89866142Y-73213595D02*
X90151856Y-73499309D01*
X90151856Y-73499309D02*
X89842332Y-73499309D01*
X89651856Y-73046928D02*
X89628047Y-73023119D01*
X89628047Y-73023119D02*
X89580428Y-72999309D01*
X89580428Y-72999309D02*
X89461380Y-72999309D01*
X89461380Y-72999309D02*
X89413761Y-73023119D01*
X89413761Y-73023119D02*
X89389952Y-73046928D01*
X89389952Y-73046928D02*
X89366142Y-73094547D01*
X89366142Y-73094547D02*
X89366142Y-73142166D01*
X89366142Y-73142166D02*
X89389952Y-73213595D01*
X89389952Y-73213595D02*
X89675666Y-73499309D01*
X89675666Y-73499309D02*
X89366142Y-73499309D01*
X89199476Y-72999309D02*
X88889952Y-72999309D01*
X88889952Y-72999309D02*
X89056619Y-73189785D01*
X89056619Y-73189785D02*
X88985190Y-73189785D01*
X88985190Y-73189785D02*
X88937571Y-73213595D01*
X88937571Y-73213595D02*
X88913762Y-73237404D01*
X88913762Y-73237404D02*
X88889952Y-73285023D01*
X88889952Y-73285023D02*
X88889952Y-73404071D01*
X88889952Y-73404071D02*
X88913762Y-73451690D01*
X88913762Y-73451690D02*
X88937571Y-73475500D01*
X88937571Y-73475500D02*
X88985190Y-73499309D01*
X88985190Y-73499309D02*
X89128047Y-73499309D01*
X89128047Y-73499309D02*
X89175666Y-73475500D01*
X89175666Y-73475500D02*
X89199476Y-73451690D01*
X114169123Y-75399090D02*
X114192932Y-75422900D01*
X114192932Y-75422900D02*
X114264361Y-75446709D01*
X114264361Y-75446709D02*
X114311980Y-75446709D01*
X114311980Y-75446709D02*
X114383408Y-75422900D01*
X114383408Y-75422900D02*
X114431027Y-75375280D01*
X114431027Y-75375280D02*
X114454837Y-75327661D01*
X114454837Y-75327661D02*
X114478646Y-75232423D01*
X114478646Y-75232423D02*
X114478646Y-75160995D01*
X114478646Y-75160995D02*
X114454837Y-75065757D01*
X114454837Y-75065757D02*
X114431027Y-75018138D01*
X114431027Y-75018138D02*
X114383408Y-74970519D01*
X114383408Y-74970519D02*
X114311980Y-74946709D01*
X114311980Y-74946709D02*
X114264361Y-74946709D01*
X114264361Y-74946709D02*
X114192932Y-74970519D01*
X114192932Y-74970519D02*
X114169123Y-74994328D01*
X114002456Y-74946709D02*
X113692932Y-74946709D01*
X113692932Y-74946709D02*
X113859599Y-75137185D01*
X113859599Y-75137185D02*
X113788170Y-75137185D01*
X113788170Y-75137185D02*
X113740551Y-75160995D01*
X113740551Y-75160995D02*
X113716742Y-75184804D01*
X113716742Y-75184804D02*
X113692932Y-75232423D01*
X113692932Y-75232423D02*
X113692932Y-75351471D01*
X113692932Y-75351471D02*
X113716742Y-75399090D01*
X113716742Y-75399090D02*
X113740551Y-75422900D01*
X113740551Y-75422900D02*
X113788170Y-75446709D01*
X113788170Y-75446709D02*
X113931027Y-75446709D01*
X113931027Y-75446709D02*
X113978646Y-75422900D01*
X113978646Y-75422900D02*
X114002456Y-75399090D01*
X113383409Y-74946709D02*
X113335790Y-74946709D01*
X113335790Y-74946709D02*
X113288171Y-74970519D01*
X113288171Y-74970519D02*
X113264361Y-74994328D01*
X113264361Y-74994328D02*
X113240552Y-75041947D01*
X113240552Y-75041947D02*
X113216742Y-75137185D01*
X113216742Y-75137185D02*
X113216742Y-75256233D01*
X113216742Y-75256233D02*
X113240552Y-75351471D01*
X113240552Y-75351471D02*
X113264361Y-75399090D01*
X113264361Y-75399090D02*
X113288171Y-75422900D01*
X113288171Y-75422900D02*
X113335790Y-75446709D01*
X113335790Y-75446709D02*
X113383409Y-75446709D01*
X113383409Y-75446709D02*
X113431028Y-75422900D01*
X113431028Y-75422900D02*
X113454837Y-75399090D01*
X113454837Y-75399090D02*
X113478647Y-75351471D01*
X113478647Y-75351471D02*
X113502456Y-75256233D01*
X113502456Y-75256233D02*
X113502456Y-75137185D01*
X113502456Y-75137185D02*
X113478647Y-75041947D01*
X113478647Y-75041947D02*
X113454837Y-74994328D01*
X113454837Y-74994328D02*
X113431028Y-74970519D01*
X113431028Y-74970519D02*
X113383409Y-74946709D01*
X112978647Y-75446709D02*
X112883409Y-75446709D01*
X112883409Y-75446709D02*
X112835790Y-75422900D01*
X112835790Y-75422900D02*
X112811981Y-75399090D01*
X112811981Y-75399090D02*
X112764362Y-75327661D01*
X112764362Y-75327661D02*
X112740552Y-75232423D01*
X112740552Y-75232423D02*
X112740552Y-75041947D01*
X112740552Y-75041947D02*
X112764362Y-74994328D01*
X112764362Y-74994328D02*
X112788171Y-74970519D01*
X112788171Y-74970519D02*
X112835790Y-74946709D01*
X112835790Y-74946709D02*
X112931028Y-74946709D01*
X112931028Y-74946709D02*
X112978647Y-74970519D01*
X112978647Y-74970519D02*
X113002457Y-74994328D01*
X113002457Y-74994328D02*
X113026266Y-75041947D01*
X113026266Y-75041947D02*
X113026266Y-75160995D01*
X113026266Y-75160995D02*
X113002457Y-75208614D01*
X113002457Y-75208614D02*
X112978647Y-75232423D01*
X112978647Y-75232423D02*
X112931028Y-75256233D01*
X112931028Y-75256233D02*
X112835790Y-75256233D01*
X112835790Y-75256233D02*
X112788171Y-75232423D01*
X112788171Y-75232423D02*
X112764362Y-75208614D01*
X112764362Y-75208614D02*
X112740552Y-75160995D01*
X97989290Y-62858476D02*
X98013100Y-62834667D01*
X98013100Y-62834667D02*
X98036909Y-62763238D01*
X98036909Y-62763238D02*
X98036909Y-62715619D01*
X98036909Y-62715619D02*
X98013100Y-62644191D01*
X98013100Y-62644191D02*
X97965480Y-62596572D01*
X97965480Y-62596572D02*
X97917861Y-62572762D01*
X97917861Y-62572762D02*
X97822623Y-62548953D01*
X97822623Y-62548953D02*
X97751195Y-62548953D01*
X97751195Y-62548953D02*
X97655957Y-62572762D01*
X97655957Y-62572762D02*
X97608338Y-62596572D01*
X97608338Y-62596572D02*
X97560719Y-62644191D01*
X97560719Y-62644191D02*
X97536909Y-62715619D01*
X97536909Y-62715619D02*
X97536909Y-62763238D01*
X97536909Y-62763238D02*
X97560719Y-62834667D01*
X97560719Y-62834667D02*
X97584528Y-62858476D01*
X97584528Y-63048953D02*
X97560719Y-63072762D01*
X97560719Y-63072762D02*
X97536909Y-63120381D01*
X97536909Y-63120381D02*
X97536909Y-63239429D01*
X97536909Y-63239429D02*
X97560719Y-63287048D01*
X97560719Y-63287048D02*
X97584528Y-63310857D01*
X97584528Y-63310857D02*
X97632147Y-63334667D01*
X97632147Y-63334667D02*
X97679766Y-63334667D01*
X97679766Y-63334667D02*
X97751195Y-63310857D01*
X97751195Y-63310857D02*
X98036909Y-63025143D01*
X98036909Y-63025143D02*
X98036909Y-63334667D01*
X97536909Y-63501333D02*
X97536909Y-63810857D01*
X97536909Y-63810857D02*
X97727385Y-63644190D01*
X97727385Y-63644190D02*
X97727385Y-63715619D01*
X97727385Y-63715619D02*
X97751195Y-63763238D01*
X97751195Y-63763238D02*
X97775004Y-63787047D01*
X97775004Y-63787047D02*
X97822623Y-63810857D01*
X97822623Y-63810857D02*
X97941671Y-63810857D01*
X97941671Y-63810857D02*
X97989290Y-63787047D01*
X97989290Y-63787047D02*
X98013100Y-63763238D01*
X98013100Y-63763238D02*
X98036909Y-63715619D01*
X98036909Y-63715619D02*
X98036909Y-63572762D01*
X98036909Y-63572762D02*
X98013100Y-63525143D01*
X98013100Y-63525143D02*
X97989290Y-63501333D01*
X97536909Y-64120380D02*
X97536909Y-64167999D01*
X97536909Y-64167999D02*
X97560719Y-64215618D01*
X97560719Y-64215618D02*
X97584528Y-64239428D01*
X97584528Y-64239428D02*
X97632147Y-64263237D01*
X97632147Y-64263237D02*
X97727385Y-64287047D01*
X97727385Y-64287047D02*
X97846433Y-64287047D01*
X97846433Y-64287047D02*
X97941671Y-64263237D01*
X97941671Y-64263237D02*
X97989290Y-64239428D01*
X97989290Y-64239428D02*
X98013100Y-64215618D01*
X98013100Y-64215618D02*
X98036909Y-64167999D01*
X98036909Y-64167999D02*
X98036909Y-64120380D01*
X98036909Y-64120380D02*
X98013100Y-64072761D01*
X98013100Y-64072761D02*
X97989290Y-64048952D01*
X97989290Y-64048952D02*
X97941671Y-64025142D01*
X97941671Y-64025142D02*
X97846433Y-64001333D01*
X97846433Y-64001333D02*
X97727385Y-64001333D01*
X97727385Y-64001333D02*
X97632147Y-64025142D01*
X97632147Y-64025142D02*
X97584528Y-64048952D01*
X97584528Y-64048952D02*
X97560719Y-64072761D01*
X97560719Y-64072761D02*
X97536909Y-64120380D01*
X119198290Y-71011876D02*
X119222100Y-70988067D01*
X119222100Y-70988067D02*
X119245909Y-70916638D01*
X119245909Y-70916638D02*
X119245909Y-70869019D01*
X119245909Y-70869019D02*
X119222100Y-70797591D01*
X119222100Y-70797591D02*
X119174480Y-70749972D01*
X119174480Y-70749972D02*
X119126861Y-70726162D01*
X119126861Y-70726162D02*
X119031623Y-70702353D01*
X119031623Y-70702353D02*
X118960195Y-70702353D01*
X118960195Y-70702353D02*
X118864957Y-70726162D01*
X118864957Y-70726162D02*
X118817338Y-70749972D01*
X118817338Y-70749972D02*
X118769719Y-70797591D01*
X118769719Y-70797591D02*
X118745909Y-70869019D01*
X118745909Y-70869019D02*
X118745909Y-70916638D01*
X118745909Y-70916638D02*
X118769719Y-70988067D01*
X118769719Y-70988067D02*
X118793528Y-71011876D01*
X118745909Y-71178543D02*
X118745909Y-71488067D01*
X118745909Y-71488067D02*
X118936385Y-71321400D01*
X118936385Y-71321400D02*
X118936385Y-71392829D01*
X118936385Y-71392829D02*
X118960195Y-71440448D01*
X118960195Y-71440448D02*
X118984004Y-71464257D01*
X118984004Y-71464257D02*
X119031623Y-71488067D01*
X119031623Y-71488067D02*
X119150671Y-71488067D01*
X119150671Y-71488067D02*
X119198290Y-71464257D01*
X119198290Y-71464257D02*
X119222100Y-71440448D01*
X119222100Y-71440448D02*
X119245909Y-71392829D01*
X119245909Y-71392829D02*
X119245909Y-71249972D01*
X119245909Y-71249972D02*
X119222100Y-71202353D01*
X119222100Y-71202353D02*
X119198290Y-71178543D01*
X118745909Y-71797590D02*
X118745909Y-71845209D01*
X118745909Y-71845209D02*
X118769719Y-71892828D01*
X118769719Y-71892828D02*
X118793528Y-71916638D01*
X118793528Y-71916638D02*
X118841147Y-71940447D01*
X118841147Y-71940447D02*
X118936385Y-71964257D01*
X118936385Y-71964257D02*
X119055433Y-71964257D01*
X119055433Y-71964257D02*
X119150671Y-71940447D01*
X119150671Y-71940447D02*
X119198290Y-71916638D01*
X119198290Y-71916638D02*
X119222100Y-71892828D01*
X119222100Y-71892828D02*
X119245909Y-71845209D01*
X119245909Y-71845209D02*
X119245909Y-71797590D01*
X119245909Y-71797590D02*
X119222100Y-71749971D01*
X119222100Y-71749971D02*
X119198290Y-71726162D01*
X119198290Y-71726162D02*
X119150671Y-71702352D01*
X119150671Y-71702352D02*
X119055433Y-71678543D01*
X119055433Y-71678543D02*
X118936385Y-71678543D01*
X118936385Y-71678543D02*
X118841147Y-71702352D01*
X118841147Y-71702352D02*
X118793528Y-71726162D01*
X118793528Y-71726162D02*
X118769719Y-71749971D01*
X118769719Y-71749971D02*
X118745909Y-71797590D01*
X118793528Y-72154733D02*
X118769719Y-72178542D01*
X118769719Y-72178542D02*
X118745909Y-72226161D01*
X118745909Y-72226161D02*
X118745909Y-72345209D01*
X118745909Y-72345209D02*
X118769719Y-72392828D01*
X118769719Y-72392828D02*
X118793528Y-72416637D01*
X118793528Y-72416637D02*
X118841147Y-72440447D01*
X118841147Y-72440447D02*
X118888766Y-72440447D01*
X118888766Y-72440447D02*
X118960195Y-72416637D01*
X118960195Y-72416637D02*
X119245909Y-72130923D01*
X119245909Y-72130923D02*
X119245909Y-72440447D01*
X92121923Y-71953090D02*
X92145732Y-71976900D01*
X92145732Y-71976900D02*
X92217161Y-72000709D01*
X92217161Y-72000709D02*
X92264780Y-72000709D01*
X92264780Y-72000709D02*
X92336208Y-71976900D01*
X92336208Y-71976900D02*
X92383827Y-71929280D01*
X92383827Y-71929280D02*
X92407637Y-71881661D01*
X92407637Y-71881661D02*
X92431446Y-71786423D01*
X92431446Y-71786423D02*
X92431446Y-71714995D01*
X92431446Y-71714995D02*
X92407637Y-71619757D01*
X92407637Y-71619757D02*
X92383827Y-71572138D01*
X92383827Y-71572138D02*
X92336208Y-71524519D01*
X92336208Y-71524519D02*
X92264780Y-71500709D01*
X92264780Y-71500709D02*
X92217161Y-71500709D01*
X92217161Y-71500709D02*
X92145732Y-71524519D01*
X92145732Y-71524519D02*
X92121923Y-71548328D01*
X91931446Y-71548328D02*
X91907637Y-71524519D01*
X91907637Y-71524519D02*
X91860018Y-71500709D01*
X91860018Y-71500709D02*
X91740970Y-71500709D01*
X91740970Y-71500709D02*
X91693351Y-71524519D01*
X91693351Y-71524519D02*
X91669542Y-71548328D01*
X91669542Y-71548328D02*
X91645732Y-71595947D01*
X91645732Y-71595947D02*
X91645732Y-71643566D01*
X91645732Y-71643566D02*
X91669542Y-71714995D01*
X91669542Y-71714995D02*
X91955256Y-72000709D01*
X91955256Y-72000709D02*
X91645732Y-72000709D01*
X91455256Y-71548328D02*
X91431447Y-71524519D01*
X91431447Y-71524519D02*
X91383828Y-71500709D01*
X91383828Y-71500709D02*
X91264780Y-71500709D01*
X91264780Y-71500709D02*
X91217161Y-71524519D01*
X91217161Y-71524519D02*
X91193352Y-71548328D01*
X91193352Y-71548328D02*
X91169542Y-71595947D01*
X91169542Y-71595947D02*
X91169542Y-71643566D01*
X91169542Y-71643566D02*
X91193352Y-71714995D01*
X91193352Y-71714995D02*
X91479066Y-72000709D01*
X91479066Y-72000709D02*
X91169542Y-72000709D01*
X91002876Y-71500709D02*
X90669543Y-71500709D01*
X90669543Y-71500709D02*
X90883828Y-72000709D01*
X100773723Y-74331290D02*
X100797532Y-74355100D01*
X100797532Y-74355100D02*
X100868961Y-74378909D01*
X100868961Y-74378909D02*
X100916580Y-74378909D01*
X100916580Y-74378909D02*
X100988008Y-74355100D01*
X100988008Y-74355100D02*
X101035627Y-74307480D01*
X101035627Y-74307480D02*
X101059437Y-74259861D01*
X101059437Y-74259861D02*
X101083246Y-74164623D01*
X101083246Y-74164623D02*
X101083246Y-74093195D01*
X101083246Y-74093195D02*
X101059437Y-73997957D01*
X101059437Y-73997957D02*
X101035627Y-73950338D01*
X101035627Y-73950338D02*
X100988008Y-73902719D01*
X100988008Y-73902719D02*
X100916580Y-73878909D01*
X100916580Y-73878909D02*
X100868961Y-73878909D01*
X100868961Y-73878909D02*
X100797532Y-73902719D01*
X100797532Y-73902719D02*
X100773723Y-73926528D01*
X100583246Y-73926528D02*
X100559437Y-73902719D01*
X100559437Y-73902719D02*
X100511818Y-73878909D01*
X100511818Y-73878909D02*
X100392770Y-73878909D01*
X100392770Y-73878909D02*
X100345151Y-73902719D01*
X100345151Y-73902719D02*
X100321342Y-73926528D01*
X100321342Y-73926528D02*
X100297532Y-73974147D01*
X100297532Y-73974147D02*
X100297532Y-74021766D01*
X100297532Y-74021766D02*
X100321342Y-74093195D01*
X100321342Y-74093195D02*
X100607056Y-74378909D01*
X100607056Y-74378909D02*
X100297532Y-74378909D01*
X100130866Y-73878909D02*
X99821342Y-73878909D01*
X99821342Y-73878909D02*
X99988009Y-74069385D01*
X99988009Y-74069385D02*
X99916580Y-74069385D01*
X99916580Y-74069385D02*
X99868961Y-74093195D01*
X99868961Y-74093195D02*
X99845152Y-74117004D01*
X99845152Y-74117004D02*
X99821342Y-74164623D01*
X99821342Y-74164623D02*
X99821342Y-74283671D01*
X99821342Y-74283671D02*
X99845152Y-74331290D01*
X99845152Y-74331290D02*
X99868961Y-74355100D01*
X99868961Y-74355100D02*
X99916580Y-74378909D01*
X99916580Y-74378909D02*
X100059437Y-74378909D01*
X100059437Y-74378909D02*
X100107056Y-74355100D01*
X100107056Y-74355100D02*
X100130866Y-74331290D01*
X99392771Y-74045576D02*
X99392771Y-74378909D01*
X99511819Y-73855100D02*
X99630866Y-74212242D01*
X99630866Y-74212242D02*
X99321343Y-74212242D01*
X112619723Y-70425909D02*
X112786389Y-70187814D01*
X112905437Y-70425909D02*
X112905437Y-69925909D01*
X112905437Y-69925909D02*
X112714961Y-69925909D01*
X112714961Y-69925909D02*
X112667342Y-69949719D01*
X112667342Y-69949719D02*
X112643532Y-69973528D01*
X112643532Y-69973528D02*
X112619723Y-70021147D01*
X112619723Y-70021147D02*
X112619723Y-70092576D01*
X112619723Y-70092576D02*
X112643532Y-70140195D01*
X112643532Y-70140195D02*
X112667342Y-70164004D01*
X112667342Y-70164004D02*
X112714961Y-70187814D01*
X112714961Y-70187814D02*
X112905437Y-70187814D01*
X112453056Y-69925909D02*
X112143532Y-69925909D01*
X112143532Y-69925909D02*
X112310199Y-70116385D01*
X112310199Y-70116385D02*
X112238770Y-70116385D01*
X112238770Y-70116385D02*
X112191151Y-70140195D01*
X112191151Y-70140195D02*
X112167342Y-70164004D01*
X112167342Y-70164004D02*
X112143532Y-70211623D01*
X112143532Y-70211623D02*
X112143532Y-70330671D01*
X112143532Y-70330671D02*
X112167342Y-70378290D01*
X112167342Y-70378290D02*
X112191151Y-70402100D01*
X112191151Y-70402100D02*
X112238770Y-70425909D01*
X112238770Y-70425909D02*
X112381627Y-70425909D01*
X112381627Y-70425909D02*
X112429246Y-70402100D01*
X112429246Y-70402100D02*
X112453056Y-70378290D01*
X111834009Y-69925909D02*
X111786390Y-69925909D01*
X111786390Y-69925909D02*
X111738771Y-69949719D01*
X111738771Y-69949719D02*
X111714961Y-69973528D01*
X111714961Y-69973528D02*
X111691152Y-70021147D01*
X111691152Y-70021147D02*
X111667342Y-70116385D01*
X111667342Y-70116385D02*
X111667342Y-70235433D01*
X111667342Y-70235433D02*
X111691152Y-70330671D01*
X111691152Y-70330671D02*
X111714961Y-70378290D01*
X111714961Y-70378290D02*
X111738771Y-70402100D01*
X111738771Y-70402100D02*
X111786390Y-70425909D01*
X111786390Y-70425909D02*
X111834009Y-70425909D01*
X111834009Y-70425909D02*
X111881628Y-70402100D01*
X111881628Y-70402100D02*
X111905437Y-70378290D01*
X111905437Y-70378290D02*
X111929247Y-70330671D01*
X111929247Y-70330671D02*
X111953056Y-70235433D01*
X111953056Y-70235433D02*
X111953056Y-70116385D01*
X111953056Y-70116385D02*
X111929247Y-70021147D01*
X111929247Y-70021147D02*
X111905437Y-69973528D01*
X111905437Y-69973528D02*
X111881628Y-69949719D01*
X111881628Y-69949719D02*
X111834009Y-69925909D01*
X111500676Y-69925909D02*
X111167343Y-69925909D01*
X111167343Y-69925909D02*
X111381628Y-70425909D01*
X96150890Y-67090876D02*
X96174700Y-67067067D01*
X96174700Y-67067067D02*
X96198509Y-66995638D01*
X96198509Y-66995638D02*
X96198509Y-66948019D01*
X96198509Y-66948019D02*
X96174700Y-66876591D01*
X96174700Y-66876591D02*
X96127080Y-66828972D01*
X96127080Y-66828972D02*
X96079461Y-66805162D01*
X96079461Y-66805162D02*
X95984223Y-66781353D01*
X95984223Y-66781353D02*
X95912795Y-66781353D01*
X95912795Y-66781353D02*
X95817557Y-66805162D01*
X95817557Y-66805162D02*
X95769938Y-66828972D01*
X95769938Y-66828972D02*
X95722319Y-66876591D01*
X95722319Y-66876591D02*
X95698509Y-66948019D01*
X95698509Y-66948019D02*
X95698509Y-66995638D01*
X95698509Y-66995638D02*
X95722319Y-67067067D01*
X95722319Y-67067067D02*
X95746128Y-67090876D01*
X95746128Y-67281353D02*
X95722319Y-67305162D01*
X95722319Y-67305162D02*
X95698509Y-67352781D01*
X95698509Y-67352781D02*
X95698509Y-67471829D01*
X95698509Y-67471829D02*
X95722319Y-67519448D01*
X95722319Y-67519448D02*
X95746128Y-67543257D01*
X95746128Y-67543257D02*
X95793747Y-67567067D01*
X95793747Y-67567067D02*
X95841366Y-67567067D01*
X95841366Y-67567067D02*
X95912795Y-67543257D01*
X95912795Y-67543257D02*
X96198509Y-67257543D01*
X96198509Y-67257543D02*
X96198509Y-67567067D01*
X96198509Y-68043257D02*
X96198509Y-67757543D01*
X96198509Y-67900400D02*
X95698509Y-67900400D01*
X95698509Y-67900400D02*
X95769938Y-67852781D01*
X95769938Y-67852781D02*
X95817557Y-67805162D01*
X95817557Y-67805162D02*
X95841366Y-67757543D01*
X96198509Y-68519447D02*
X96198509Y-68233733D01*
X96198509Y-68376590D02*
X95698509Y-68376590D01*
X95698509Y-68376590D02*
X95769938Y-68328971D01*
X95769938Y-68328971D02*
X95817557Y-68281352D01*
X95817557Y-68281352D02*
X95841366Y-68233733D01*
D11*
%TO.C,J401*%
X37425078Y-68668985D02*
G75*
G02*
X36663078Y-68668985I-381000J0D01*
G01*
X36663078Y-68668985D02*
G75*
G02*
X37425078Y-68668985I381000J0D01*
G01*
D12*
%TO.C,C310*%
X117705236Y-73853000D02*
X117489564Y-73853000D01*
X117705236Y-74573000D02*
X117489564Y-74573000D01*
%TO.C,C313*%
X117491400Y-68986836D02*
X117491400Y-68771164D01*
X118211400Y-68986836D02*
X118211400Y-68771164D01*
%TO.C,C221*%
X91460190Y-67482507D02*
X91612693Y-67635010D01*
X91969307Y-66973390D02*
X92121810Y-67125893D01*
%TO.C,C214*%
X92267364Y-75326200D02*
X92483036Y-75326200D01*
X92267364Y-76046200D02*
X92483036Y-76046200D01*
%TO.C,C208*%
X98212800Y-75946436D02*
X98212800Y-75730764D01*
X98932800Y-75946436D02*
X98932800Y-75730764D01*
%TO.C,C229*%
X97194964Y-71160600D02*
X97410636Y-71160600D01*
X97194964Y-71880600D02*
X97410636Y-71880600D01*
%TO.C,C231*%
X96526800Y-69028236D02*
X96526800Y-68812564D01*
X97246800Y-69028236D02*
X97246800Y-68812564D01*
%TO.C,C307*%
X114314564Y-66461600D02*
X114530236Y-66461600D01*
X114314564Y-67181600D02*
X114530236Y-67181600D01*
%TO.C,C222*%
X97194964Y-72100400D02*
X97410636Y-72100400D01*
X97194964Y-72820400D02*
X97410636Y-72820400D01*
%TO.C,C311*%
X107126364Y-66461600D02*
X107342036Y-66461600D01*
X107126364Y-67181600D02*
X107342036Y-67181600D01*
%TO.C,C225*%
X93549836Y-69509600D02*
X93334164Y-69509600D01*
X93549836Y-70229600D02*
X93334164Y-70229600D01*
%TO.C,C206*%
X95368000Y-72212636D02*
X95368000Y-71996964D01*
X96088000Y-72212636D02*
X96088000Y-71996964D01*
%TO.C,C305*%
X117730636Y-66487000D02*
X117514964Y-66487000D01*
X117730636Y-67207000D02*
X117514964Y-67207000D01*
%TO.C,C216*%
X91479964Y-70474800D02*
X91695636Y-70474800D01*
X91479964Y-71194800D02*
X91695636Y-71194800D01*
%TO.C,C205*%
X97537636Y-66461600D02*
X97321964Y-66461600D01*
X97537636Y-67181600D02*
X97321964Y-67181600D01*
%TO.C,C312*%
X108599564Y-73802200D02*
X108815236Y-73802200D01*
X108599564Y-74522200D02*
X108815236Y-74522200D01*
%TO.C,C308*%
X111787036Y-72837000D02*
X111571364Y-72837000D01*
X111787036Y-73557000D02*
X111571364Y-73557000D01*
%TO.C,C314*%
X115653000Y-73280364D02*
X115653000Y-73496036D01*
X116373000Y-73280364D02*
X116373000Y-73496036D01*
%TO.C,C306*%
X106719964Y-73446600D02*
X106935636Y-73446600D01*
X106719964Y-74166600D02*
X106935636Y-74166600D01*
%TO.C,C219*%
X98366236Y-68281000D02*
X98150564Y-68281000D01*
X98366236Y-69001000D02*
X98150564Y-69001000D01*
%TO.C,C209*%
X94596400Y-69498364D02*
X94596400Y-69714036D01*
X95316400Y-69498364D02*
X95316400Y-69714036D01*
%TO.C,C220*%
X93499036Y-72354400D02*
X93283364Y-72354400D01*
X93499036Y-73074400D02*
X93283364Y-73074400D01*
%TO.C,C232*%
X93257964Y-74386400D02*
X93473636Y-74386400D01*
X93257964Y-75106400D02*
X93473636Y-75106400D01*
%TO.C,C228*%
X96305964Y-73726000D02*
X96521636Y-73726000D01*
X96305964Y-74446000D02*
X96521636Y-74446000D01*
%TO.C,C217*%
X94428200Y-72212636D02*
X94428200Y-71996964D01*
X95148200Y-72212636D02*
X95148200Y-71996964D01*
%TO.C,C226*%
X93524436Y-70449400D02*
X93308764Y-70449400D01*
X93524436Y-71169400D02*
X93308764Y-71169400D01*
%TO.C,C223*%
X91670236Y-72913200D02*
X91454564Y-72913200D01*
X91670236Y-73633200D02*
X91454564Y-73633200D01*
%TO.C,C309*%
X113717436Y-73700600D02*
X113501764Y-73700600D01*
X113717436Y-74420600D02*
X113501764Y-74420600D01*
%TO.C,C230*%
X97450800Y-65265964D02*
X97450800Y-65481636D01*
X98170800Y-65265964D02*
X98170800Y-65481636D01*
%TO.C,C302*%
X118659800Y-73635036D02*
X118659800Y-73419364D01*
X119379800Y-73635036D02*
X119379800Y-73419364D01*
%TO.C,C227*%
X93524436Y-71389200D02*
X93308764Y-71389200D01*
X93524436Y-72109200D02*
X93308764Y-72109200D01*
%TO.C,C234*%
X98366236Y-73716600D02*
X98150564Y-73716600D01*
X98366236Y-74436600D02*
X98150564Y-74436600D01*
%TO.C,R307*%
X111868459Y-70704068D02*
X112175741Y-70704068D01*
X111868459Y-71464068D02*
X112175741Y-71464068D01*
%TO.C,C211*%
X95561600Y-69422164D02*
X95561600Y-69637836D01*
X96281600Y-69422164D02*
X96281600Y-69637836D01*
%TD*%
M02*
