M48
; DRILL file {KiCad 9.0.4} date 2026-01-26T15:03:45-0800
; FORMAT={-:-/ absolute / metric / decimal}
; #@! TF.CreationDate,2026-01-26T15:03:45-08:00
; #@! TF.GenerationSoftware,Kicad,Pcbnew,9.0.4
; #@! TF.FileFunction,Plated,1,6,PTH
FMAT,2
METRIC
; #@! TA.AperFunction,Plated,PTH,ViaDrill
T1C0.200
; #@! TA.AperFunction,Plated,PTH,ComponentDrill
T2C0.200
; #@! TA.AperFunction,Plated,PTH,ComponentDrill
T3C0.500
; #@! TA.AperFunction,Plated,PTH,ComponentDrill
T4C0.800
; #@! TA.AperFunction,Plated,PTH,ComponentDrill
T5C0.889
; #@! TA.AperFunction,Plated,PTH,ComponentDrill
T6C0.950
; #@! TA.AperFunction,Plated,PTH,ComponentDrill
T7C1.000
; #@! TA.AperFunction,Plated,PTH,ComponentDrill
T8C1.016
; #@! TA.AperFunction,Plated,PTH,ComponentDrill
T9C1.600
; #@! TA.AperFunction,Plated,PTH,ComponentDrill
T10C1.626
; #@! TA.AperFunction,Plated,PTH,ComponentDrill
T11C2.300
; #@! TA.AperFunction,Plated,PTH,ComponentDrill
T12C3.200
%
G90
G05
T1
X32.055Y-105.385
X34.5Y-69.75
X35.194Y-105.108
X35.495Y-107.064
X35.5Y-76.5
X36.155Y-104.575
X36.25Y-71.75
X36.25Y-73.5
X36.765Y-103.508
X37.059Y-57.887
X37.201Y-105.108
X38.862Y-41.91
X38.913Y-52.984
X38.913Y-53.492
X38.913Y-56.388
X38.927Y-56.882
X38.927Y-57.39
X38.927Y-58.392
X38.964Y-48.416
X38.964Y-48.92
X38.964Y-49.378
X39.012Y-104.155
X39.014Y-45.415
X39.52Y-104.18
X39.674Y-76.499
X41.226Y-105.145
X41.783Y-57.803
X44.5Y-63.5
X44.668Y-61.616
X45.239Y-57.297
X48.082Y-57.658
X50.395Y-108.087
X50.419Y-106.158
X54.205Y-88.656
X54.205Y-91.627
X56.059Y-95.412
X56.693Y-96.622
X57.048Y-87.276
X57.658Y-96.622
X58.014Y-87.224
X58.319Y-94.421
X58.7Y-96.657
X59.654Y-96.686
X59.959Y-87.135
X60.604Y-89.306
X60.62Y-96.635
X60.96Y-87.124
X61.571Y-96.53
X62.586Y-96.622
X62.878Y-87.103
X63.132Y-97.923
X63.349Y-94.65
X64.554Y-97.313
X64.717Y-93.726
X64.808Y-89.744
X64.819Y-90.729
X65.43Y-98.349
X68.454Y-106.41
X68.957Y-107.81
X71.958Y-80.696
X72.365Y-80.239
X72.796Y-79.934
X73.254Y-80.264
X76.759Y-56.82
X77.191Y-55.296
X77.318Y-57.023
X77.724Y-62.484
X77.749Y-55.423
X77.775Y-54.026
X78.13Y-63.25
X78.181Y-54.762
X78.283Y-54.254
X78.801Y-93.218
X78.816Y-53.746
X79.045Y-53.188
X79.146Y-52.654
X79.604Y-52.273
X80.01Y-64.135
X80.061Y-55.982
X80.213Y-71.323
X80.264Y-74.168
X80.391Y-64.516
X80.416Y-56.388
X80.924Y-56.617
X81.28Y-75.311
X81.341Y-93.218
X81.407Y-73.279
X81.534Y-56.667
X81.602Y-50.892
X81.788Y-80.264
X81.812Y-69.089
X82.042Y-76.835
X82.166Y-51.903
X82.169Y-53.975
X82.169Y-67.691
X82.296Y-64.11
X82.439Y-80.518
X82.55Y-76.2
X82.753Y-56.032
X82.753Y-64.414
X82.779Y-56.769
X82.804Y-77.724
X82.804Y-79.883
X83.058Y-63.246
X83.058Y-72.542
X83.083Y-58.242
X83.109Y-57.734
X83.109Y-107.29
X83.134Y-57.175
X83.249Y-80.264
X83.337Y-56.566
X83.458Y-51.83
X83.628Y-57.912
X83.664Y-46.422
X83.664Y-50.943
X83.664Y-53.432
X83.69Y-52.441
X83.693Y-74.803
X83.82Y-63.246
X84.201Y-60.833
X84.339Y-80.757
X84.568Y-62.621
X84.734Y-108.152
X84.923Y-70.698
X85.039Y-69.139
X85.177Y-63.332
X85.344Y-59.944
X85.381Y-62.672
X85.547Y-108.152
X85.696Y-46.422
X85.696Y-50.943
X85.696Y-53.432
X85.722Y-52.441
X85.727Y-54.423
X85.727Y-54.931
X85.727Y-55.947
X85.738Y-48.388
X85.738Y-48.896
X85.738Y-49.404
X85.738Y-49.912
X85.797Y-70.073
X85.852Y-76.581
X85.939Y-67.904
X86.0Y-55.417
X86.178Y-68.701
X86.36Y-63.094
X86.395Y-93.32
X86.498Y-68.158
X86.584Y-70.073
X86.614Y-80.391
X86.868Y-61.468
X86.889Y-64.282
X86.905Y-68.514
X86.931Y-60.642
X87.117Y-70.098
X87.122Y-80.137
X87.173Y-85.496
X87.249Y-78.74
X87.295Y-76.524
X87.371Y-66.466
X87.376Y-58.039
X87.376Y-62.865
X87.376Y-80.645
X87.434Y-57.081
X87.503Y-61.722
X87.757Y-78.486
X88.011Y-80.391
X88.116Y-77.309
X88.133Y-64.078
X88.133Y-76.118
X88.138Y-72.136
X88.159Y-64.866
X88.184Y-68.092
X88.265Y-80.899
X88.413Y-78.125
X88.532Y-59.726
X88.621Y-82.626
X88.773Y-80.391
X88.886Y-60.386
X88.921Y-69.285
X88.946Y-78.232
X88.972Y-63.316
X88.987Y-67.752
X88.997Y-73.222
X88.997Y-75.61
X89.027Y-80.899
X89.232Y-104.235
X89.281Y-55.88
X89.281Y-56.896
X89.535Y-80.391
X89.699Y-66.838
X89.699Y-67.701
X89.708Y-74.01
X89.708Y-70.073
X89.734Y-65.272
X89.734Y-73.299
X89.759Y-77.54
X89.789Y-60.579
X89.885Y-71.024
X89.902Y-59.436
X89.916Y-80.899
X90.297Y-80.391
X90.343Y-56.255
X90.521Y-70.86
X90.543Y-66.882
X90.543Y-68.482
X90.543Y-69.282
X90.543Y-70.082
X90.543Y-72.482
X90.543Y-74.082
X90.546Y-66.11
X90.65Y-80.899
X90.932Y-57.15
X91.08Y-63.367
X91.121Y-61.976
X91.186Y-72.39
X91.258Y-74.797
X91.275Y-70.015
X91.283Y-75.635
X91.308Y-74.035
X91.313Y-57.912
X91.343Y-66.082
X91.343Y-67.682
X91.343Y-68.482
X91.343Y-69.282
X91.343Y-70.882
X91.343Y-71.682
X91.343Y-73.282
X91.359Y-77.49
X91.435Y-66.974
X91.44Y-80.899
X91.491Y-80.213
X91.897Y-57.963
X92.137Y-62.295
X92.143Y-66.082
X92.143Y-66.882
X92.143Y-68.482
X92.143Y-69.282
X92.143Y-70.082
X92.143Y-70.882
X92.143Y-71.682
X92.143Y-72.482
X92.143Y-73.282
X92.143Y-74.082
X92.143Y-74.882
X92.143Y-75.682
X92.147Y-67.66
X92.202Y-81.026
X92.223Y-63.443
X92.354Y-55.474
X92.528Y-77.236
X92.589Y-87.402
X92.837Y-81.153
X92.899Y-67.65
X92.899Y-83.322
X92.934Y-69.108
X92.943Y-66.082
X92.943Y-66.882
X92.943Y-68.482
X92.943Y-70.082
X92.943Y-70.882
X92.943Y-71.682
X92.943Y-72.482
X92.943Y-73.282
X92.943Y-74.082
X92.943Y-74.882
X92.943Y-75.682
X92.964Y-80.137
X93.01Y-58.77
X93.066Y-57.556
X93.091Y-84.328
X93.229Y-60.665
X93.458Y-63.266
X93.472Y-80.264
X93.696Y-68.447
X93.696Y-83.027
X93.712Y-66.888
X93.743Y-66.082
X93.743Y-67.682
X93.743Y-69.282
X93.743Y-70.082
X93.743Y-70.882
X93.743Y-71.682
X93.743Y-72.482
X93.743Y-73.349
X93.743Y-74.882
X93.743Y-75.682
X93.747Y-74.086
X93.777Y-78.994
X93.777Y-84.125
X93.925Y-58.236
X94.107Y-80.772
X94.204Y-77.794
X94.28Y-56.814
X94.312Y-104.235
X94.483Y-60.091
X94.492Y-79.887
X94.509Y-74.035
X94.518Y-67.657
X94.543Y-66.082
X94.543Y-66.882
X94.543Y-68.482
X94.543Y-69.282
X94.543Y-70.082
X94.543Y-71.682
X94.543Y-72.482
X94.543Y-73.282
X94.543Y-75.682
X94.61Y-74.899
X94.763Y-83.636
X94.941Y-78.379
X94.971Y-109.264
X94.971Y-111.599
X94.996Y-81.28
X95.123Y-86.131
X95.129Y-87.428
X95.195Y-80.602
X95.245Y-58.871
X95.322Y-74.01
X95.343Y-66.082
X95.343Y-66.882
X95.343Y-67.682
X95.343Y-68.482
X95.343Y-69.282
X95.343Y-70.082
X95.343Y-71.682
X95.343Y-72.482
X95.343Y-73.282
X95.343Y-74.882
X95.343Y-75.682
X95.449Y-78.125
X95.677Y-77.413
X95.693Y-60.843
X95.753Y-62.453
X96.109Y-75.635
X96.134Y-74.035
X96.134Y-84.043
X96.139Y-61.468
X96.143Y-66.082
X96.143Y-66.882
X96.143Y-67.682
X96.143Y-69.282
X96.143Y-70.082
X96.143Y-71.682
X96.143Y-72.482
X96.143Y-73.282
X96.143Y-74.882
X96.16Y-80.588
X96.236Y-62.681
X96.592Y-78.175
X96.592Y-81.858
X96.896Y-66.822
X96.926Y-110.264
X96.943Y-67.682
X96.943Y-68.482
X96.943Y-69.282
X96.943Y-70.082
X96.943Y-71.682
X96.943Y-72.482
X96.943Y-73.282
X96.943Y-74.082
X96.943Y-74.882
X96.943Y-75.682
X96.947Y-65.298
X97.1Y-78.048
X97.201Y-49.346
X97.277Y-54.401
X97.282Y-60.071
X97.506Y-83.535
X97.719Y-87.352
X97.723Y-111.709
X97.743Y-66.082
X97.743Y-66.882
X97.743Y-67.682
X97.743Y-68.482
X97.743Y-70.082
X97.743Y-71.682
X97.743Y-73.282
X97.743Y-74.082
X97.743Y-74.882
X97.76Y-75.737
X97.79Y-65.271
X97.917Y-61.468
X98.116Y-82.57
X98.141Y-80.487
X98.166Y-60.04
X98.171Y-60.833
X98.497Y-74.137
X98.522Y-73.222
X98.543Y-66.082
X98.543Y-66.882
X98.543Y-67.682
X98.543Y-68.482
X98.543Y-69.282
X98.543Y-70.082
X98.543Y-70.882
X98.543Y-71.682
X98.543Y-75.682
X98.598Y-76.423
X98.679Y-60.452
X98.69Y-59.878
X98.725Y-81.604
X98.954Y-77.363
X98.995Y-61.605
X99.132Y-82.011
X99.309Y-67.711
X99.309Y-70.835
X99.335Y-65.247
X99.335Y-66.06
X99.343Y-66.882
X99.343Y-68.482
X99.343Y-69.282
X99.343Y-70.082
X99.343Y-71.682
X99.343Y-73.282
X99.343Y-74.082
X99.386Y-74.899
X99.487Y-61.792
X99.843Y-61.284
X99.894Y-77.591
X100.122Y-70.098
X100.122Y-71.673
X100.143Y-68.482
X100.143Y-69.282
X100.143Y-73.282
X100.143Y-74.082
X100.143Y-74.882
X100.148Y-65.247
X100.173Y-67.761
X100.249Y-82.417
X100.351Y-61.513
X100.671Y-80.261
X100.859Y-54.401
X100.91Y-77.21
X100.925Y-59.599
X100.935Y-75.686
X100.986Y-76.524
X100.992Y-105.918
X100.992Y-106.731
X101.037Y-82.519
X101.433Y-59.243
X101.595Y-82.544
X101.646Y-79.318
X101.672Y-77.236
X101.799Y-76.448
X101.902Y-64.082
X102.103Y-67.914
X102.18Y-69.997
X102.205Y-82.519
X102.256Y-54.909
X102.357Y-74.137
X102.364Y-63.121
X102.652Y-80.261
X102.667Y-50.902
X102.686Y-72.46
X102.713Y-67.253
X102.957Y-69.886
X102.979Y-49.383
X102.989Y-53.904
X103.022Y-50.412
X103.044Y-51.908
X103.592Y-82.267
X104.135Y-80.741
X104.557Y-82.267
X104.837Y-69.962
X104.895Y-74.213
X104.921Y-72.46
X105.051Y-52.416
X105.076Y-51.908
X105.701Y-57.77
X106.004Y-46.697
X106.029Y-47.662
X106.036Y-49.978
X106.107Y-82.814
X106.143Y-53.381
X106.27Y-51.121
X106.409Y-73.624
X106.726Y-77.612
X106.742Y-57.795
X106.755Y-55.115
X106.815Y-66.817
X106.931Y-52.213
X106.996Y-81.29
X107.221Y-72.43
X107.247Y-74.03
X107.59Y-55.976
X107.628Y-66.817
X107.733Y-77.63
X107.87Y-52.213
X107.977Y-50.003
X108.009Y-72.43
X108.009Y-74.081
X108.034Y-68.442
X108.034Y-73.218
X108.428Y-66.817
X108.647Y-55.001
X108.724Y-77.63
X108.839Y-60.655
X108.847Y-68.392
X109.001Y-47.612
X109.077Y-46.748
X109.19Y-76.016
X109.228Y-66.817
X109.228Y-74.081
X109.634Y-69.281
X109.66Y-68.417
X109.66Y-73.218
X109.698Y-76.042
X109.711Y-67.655
X109.841Y-80.495
X109.841Y-81.003
X109.866Y-81.587
X110.028Y-66.817
X110.028Y-74.081
X110.169Y-55.89
X110.171Y-54.874
X110.171Y-57.922
X110.172Y-77.635
X110.422Y-67.63
X110.422Y-72.405
X110.473Y-68.468
X110.473Y-73.167
X110.523Y-71.465
X110.549Y-69.408
X111.108Y-69.357
X111.15Y-62.916
X111.187Y-48.002
X111.231Y-64.683
X111.26Y-67.579
X111.273Y-73.167
X111.539Y-70.347
X111.616Y-71.617
X111.618Y-74.081
X111.73Y-76.016
X111.887Y-54.305
X111.963Y-59.817
X111.968Y-51.658
X112.022Y-68.392
X112.06Y-67.655
X112.073Y-73.167
X112.428Y-71.617
X112.736Y-81.511
X112.762Y-80.546
X112.809Y-72.379
X113.216Y-66.309
X113.231Y-74.105
X113.241Y-64.709
X113.343Y-71.16
X113.622Y-68.417
X113.648Y-71.617
X113.66Y-67.655
X113.673Y-72.43
X113.752Y-58.684
X114.028Y-66.817
X114.029Y-71.236
X114.031Y-74.105
X114.435Y-65.288
X114.435Y-67.604
X114.706Y-72.542
X114.828Y-66.817
X114.831Y-74.105
X115.193Y-64.683
X115.273Y-65.674
X115.299Y-68.519
X115.62Y-69.493
X115.628Y-66.817
X115.631Y-74.105
X115.886Y-71.638
X116.013Y-72.908
X116.369Y-75.575
X116.428Y-66.817
X116.467Y-74.107
X116.594Y-69.204
X116.721Y-67.706
X116.824Y-68.425
X117.069Y-62.89
X117.131Y-69.428
X117.228Y-66.817
X117.229Y-74.107
X117.555Y-64.658
X117.612Y-68.399
X118.028Y-66.817
X118.029Y-74.107
X118.042Y-69.357
X118.11Y-81.229
X118.135Y-79.883
X118.207Y-84.199
X118.474Y-68.392
X118.553Y-64.907
X118.828Y-66.817
X118.829Y-74.107
X118.829Y-71.516
X118.982Y-72.987
X119.109Y-69.128
X120.458Y-64.907
X121.255Y-79.373
X121.295Y-72.865
X121.295Y-73.831
X121.32Y-66.287
X121.346Y-67.227
X121.601Y-68.514
X121.601Y-71.46
X122.144Y-81.405
X122.311Y-72.865
X122.311Y-73.831
X122.515Y-71.46
X122.566Y-68.514
X122.768Y-77.341
X122.962Y-82.99
X123.403Y-79.569
X123.981Y-79.569
X124.546Y-79.569
X125.069Y-81.01
X125.883Y-84.735
X126.517Y-62.789
X126.832Y-82.421
X127.33Y-84.328
X127.381Y-49.276
X128.321Y-62.789
X128.473Y-49.276
X128.524Y-64.897
X129.095Y-64.325
T2
X59.158Y-90.954
X59.158Y-91.954
X59.158Y-92.954
X60.158Y-90.954
X60.158Y-91.954
X60.158Y-92.954
X61.158Y-90.954
X61.158Y-91.954
X61.158Y-92.954
T3
X83.002Y-68.971
X83.002Y-70.871
T4
X93.665Y-88.749
X93.665Y-96.369
X96.205Y-88.749
X96.205Y-96.369
X98.745Y-88.749
X98.745Y-96.369
X101.285Y-88.749
X101.285Y-96.369
T5
X55.207Y-107.524
X56.477Y-104.984
X57.747Y-107.524
X59.017Y-104.984
X60.287Y-107.524
X61.557Y-104.984
X62.827Y-107.524
X64.097Y-104.984
T6
X38.279Y-109.374
X38.279Y-111.374
X40.779Y-109.374
X40.779Y-111.374
T7
X33.334Y-28.356
X33.334Y-30.896
X35.874Y-28.356
X35.874Y-30.896
X38.414Y-28.356
X38.414Y-30.896
X40.954Y-28.356
X40.954Y-30.896
X43.494Y-28.356
X43.494Y-30.896
X46.034Y-28.356
X46.034Y-30.896
X48.574Y-28.356
X48.574Y-30.896
X51.114Y-28.356
X51.114Y-30.896
X53.654Y-28.356
X53.654Y-30.896
X56.194Y-28.356
X56.194Y-30.896
X58.734Y-28.356
X58.734Y-30.896
X61.274Y-28.356
X61.274Y-30.896
X63.814Y-28.356
X63.814Y-30.896
X66.354Y-28.356
X66.354Y-30.896
X68.894Y-28.356
X68.894Y-30.896
X71.434Y-28.356
X71.434Y-30.896
X73.974Y-28.356
X73.974Y-30.896
X76.514Y-28.356
X76.514Y-30.896
X78.234Y-109.065
X79.054Y-28.356
X79.054Y-30.896
X80.774Y-109.065
X81.594Y-28.356
X81.594Y-30.896
X84.134Y-28.356
X84.134Y-30.896
X85.341Y-114.51
X86.674Y-28.356
X86.674Y-30.896
X86.726Y-117.35
X88.111Y-114.51
X89.214Y-28.356
X89.214Y-30.896
X89.496Y-117.35
X90.881Y-114.51
X91.754Y-28.356
X91.754Y-30.896
X92.266Y-117.35
X93.651Y-114.51
X94.294Y-28.356
X94.294Y-30.896
X95.036Y-117.35
X96.421Y-114.51
X96.834Y-28.356
X96.834Y-30.896
X99.374Y-28.356
X99.374Y-30.896
X101.914Y-28.356
X101.914Y-30.896
X104.454Y-28.356
X104.454Y-30.896
X106.994Y-28.356
X106.994Y-30.896
X108.224Y-38.202
X109.534Y-28.356
X109.534Y-30.896
X112.074Y-28.356
X112.074Y-30.896
X112.268Y-106.807
X112.797Y-115.826
X112.797Y-122.326
X113.224Y-38.202
X113.589Y-95.966
X113.589Y-98.506
X114.614Y-28.356
X114.614Y-30.896
X117.154Y-28.356
X117.154Y-30.896
X117.268Y-106.807
X117.297Y-115.826
X117.297Y-122.326
X119.694Y-28.356
X119.694Y-30.896
X120.631Y-38.202
X122.234Y-28.356
X122.234Y-30.896
X124.774Y-28.356
X124.774Y-30.896
X125.631Y-38.202
X125.968Y-112.827
X125.968Y-115.367
X125.968Y-117.907
X125.968Y-120.447
X125.968Y-122.987
X127.314Y-28.356
X127.314Y-30.896
T8
X54.191Y-100.158
X56.731Y-100.158
X62.573Y-100.158
X65.113Y-100.158
T9
X52.197Y-58.166
X63.627Y-58.293
X91.948Y-41.275
X104.877Y-61.519
X126.873Y-106.553
X127.0Y-93.912
X127.0Y-99.433
X127.102Y-88.494
T10
X51.778Y-110.826
X67.526Y-110.826
T11
X33.529Y-114.074
X45.569Y-114.074
T12
X78.381Y-115.93
X103.381Y-115.93
M30
