%TF.GenerationSoftware,KiCad,Pcbnew,8.0.1*%
%TF.CreationDate,2025-05-27T09:35:13-07:00*%
%TF.ProjectId,mb,6d622e6b-6963-4616-945f-706362585858,A*%
%TF.SameCoordinates,Original*%
%TF.FileFunction,Soldermask,Bot*%
%TF.FilePolarity,Negative*%
%FSLAX46Y46*%
G04 Gerber Fmt 4.6, Leading zero omitted, Abs format (unit mm)*
G04 Created by KiCad (PCBNEW 8.0.1) date 2025-05-27 09:35:13*
%MOMM*%
%LPD*%
G01*
G04 APERTURE LIST*
G04 Aperture macros list*
%AMRoundRect*
0 Rectangle with rounded corners*
0 $1 Rounding radius*
0 $2 $3 $4 $5 $6 $7 $8 $9 X,Y pos of 4 corners*
0 Add a 4 corners polygon primitive as box body*
4,1,4,$2,$3,$4,$5,$6,$7,$8,$9,$2,$3,0*
0 Add four circle primitives for the rounded corners*
1,1,$1+$1,$2,$3*
1,1,$1+$1,$4,$5*
1,1,$1+$1,$6,$7*
1,1,$1+$1,$8,$9*
0 Add four rect primitives between the rounded corners*
20,1,$1+$1,$2,$3,$4,$5,0*
20,1,$1+$1,$4,$5,$6,$7,0*
20,1,$1+$1,$6,$7,$8,$9,0*
20,1,$1+$1,$8,$9,$2,$3,0*%
G04 Aperture macros list end*
%ADD10C,2.800000*%
%ADD11R,1.700000X1.700000*%
%ADD12C,1.700000*%
%ADD13R,1.600000X1.600000*%
%ADD14C,1.600000*%
%ADD15C,4.000000*%
%ADD16O,1.700000X1.700000*%
%ADD17O,1.600000X1.600000*%
%ADD18C,2.540000*%
%ADD19C,1.778000*%
%ADD20C,2.032000*%
%ADD21C,3.251200*%
%ADD22RoundRect,0.140000X-0.140000X-0.170000X0.140000X-0.170000X0.140000X0.170000X-0.140000X0.170000X0*%
%ADD23RoundRect,0.140000X-0.170000X0.140000X-0.170000X-0.140000X0.170000X-0.140000X0.170000X0.140000X0*%
%ADD24RoundRect,0.140000X0.219203X0.021213X0.021213X0.219203X-0.219203X-0.021213X-0.021213X-0.219203X0*%
%ADD25RoundRect,0.140000X0.140000X0.170000X-0.140000X0.170000X-0.140000X-0.170000X0.140000X-0.170000X0*%
%ADD26RoundRect,0.140000X0.170000X-0.140000X0.170000X0.140000X-0.170000X0.140000X-0.170000X-0.140000X0*%
%ADD27RoundRect,0.135000X0.135000X0.185000X-0.135000X0.185000X-0.135000X-0.185000X0.135000X-0.185000X0*%
G04 APERTURE END LIST*
D10*
%TO.C,TP402*%
X50657200Y-49717200D03*
%TD*%
%TO.C,TP401*%
X50657200Y-41005000D03*
%TD*%
%TO.C,TP202*%
X124428200Y-44230200D03*
%TD*%
%TO.C,TP204*%
X124428200Y-99801750D03*
%TD*%
D11*
%TO.C,SW201*%
X102261357Y-96851300D03*
D12*
X102261357Y-103351300D03*
X97761357Y-96851300D03*
X97761357Y-103351300D03*
%TD*%
D13*
%TO.C,J405*%
X47458400Y-91475600D03*
D14*
X47458400Y-88975600D03*
X45458400Y-88975600D03*
X45458400Y-91475600D03*
D15*
X42758400Y-84225600D03*
X42758400Y-96265600D03*
%TD*%
D10*
%TO.C,TP209*%
X124428200Y-76724450D03*
%TD*%
D11*
%TO.C,J403*%
X56402427Y-72292973D03*
D16*
X53862427Y-72292973D03*
%TD*%
D10*
%TO.C,TP208*%
X124393400Y-65185800D03*
%TD*%
%TO.C,TP203*%
X124428200Y-88263100D03*
%TD*%
D11*
%TO.C,J502*%
X76606400Y-122021600D03*
D16*
X76606400Y-119481600D03*
X79146400Y-122021600D03*
X79146400Y-119481600D03*
X81686400Y-122021600D03*
X81686400Y-119481600D03*
X84226400Y-122021600D03*
X84226400Y-119481600D03*
X86766400Y-122021600D03*
X86766400Y-119481600D03*
X89306400Y-122021600D03*
X89306400Y-119481600D03*
X91846400Y-122021600D03*
X91846400Y-119481600D03*
X94386400Y-122021600D03*
X94386400Y-119481600D03*
X96926400Y-122021600D03*
X96926400Y-119481600D03*
X99466400Y-122021600D03*
X99466400Y-119481600D03*
X102006400Y-122021600D03*
X102006400Y-119481600D03*
X104546400Y-122021600D03*
X104546400Y-119481600D03*
X107086400Y-122021600D03*
X107086400Y-119481600D03*
X109626400Y-122021600D03*
X109626400Y-119481600D03*
X112166400Y-122021600D03*
X112166400Y-119481600D03*
X114706400Y-122021600D03*
X114706400Y-119481600D03*
X117246400Y-122021600D03*
X117246400Y-119481600D03*
X119786400Y-122021600D03*
X119786400Y-119481600D03*
X122326400Y-122021600D03*
X122326400Y-119481600D03*
X124866400Y-122021600D03*
X124866400Y-119481600D03*
X127406400Y-122021600D03*
X127406400Y-119481600D03*
%TD*%
D13*
%TO.C,SW202*%
X109265000Y-106926300D03*
D17*
X111805000Y-106926300D03*
X114345000Y-106926300D03*
X116885000Y-106926300D03*
X116885000Y-99306300D03*
X114345000Y-99306300D03*
X111805000Y-99306300D03*
X109265000Y-99306300D03*
%TD*%
D11*
%TO.C,J503*%
X33334400Y-30895800D03*
D16*
X33334400Y-28355800D03*
X35874400Y-30895800D03*
X35874400Y-28355800D03*
X38414400Y-30895800D03*
X38414400Y-28355800D03*
X40954400Y-30895800D03*
X40954400Y-28355800D03*
X43494400Y-30895800D03*
X43494400Y-28355800D03*
X46034400Y-30895800D03*
X46034400Y-28355800D03*
X48574400Y-30895800D03*
X48574400Y-28355800D03*
X51114400Y-30895800D03*
X51114400Y-28355800D03*
X53654400Y-30895800D03*
X53654400Y-28355800D03*
X56194400Y-30895800D03*
X56194400Y-28355800D03*
X58734400Y-30895800D03*
X58734400Y-28355800D03*
X61274400Y-30895800D03*
X61274400Y-28355800D03*
X63814400Y-30895800D03*
X63814400Y-28355800D03*
X66354400Y-30895800D03*
X66354400Y-28355800D03*
X68894400Y-30895800D03*
X68894400Y-28355800D03*
X71434400Y-30895800D03*
X71434400Y-28355800D03*
X73974400Y-30895800D03*
X73974400Y-28355800D03*
X76514400Y-30895800D03*
X76514400Y-28355800D03*
X79054400Y-30895800D03*
X79054400Y-28355800D03*
X81594400Y-30895800D03*
X81594400Y-28355800D03*
X84134400Y-30895800D03*
X84134400Y-28355800D03*
X86674400Y-30895800D03*
X86674400Y-28355800D03*
X89214400Y-30895800D03*
X89214400Y-28355800D03*
X91754400Y-30895800D03*
X91754400Y-28355800D03*
X94294400Y-30895800D03*
X94294400Y-28355800D03*
X96834400Y-30895800D03*
X96834400Y-28355800D03*
X99374400Y-30895800D03*
X99374400Y-28355800D03*
X101914400Y-30895800D03*
X101914400Y-28355800D03*
X104454400Y-30895800D03*
X104454400Y-28355800D03*
X106994400Y-30895800D03*
X106994400Y-28355800D03*
X109534400Y-30895800D03*
X109534400Y-28355800D03*
X112074400Y-30895800D03*
X112074400Y-28355800D03*
X114614400Y-30895800D03*
X114614400Y-28355800D03*
X117154400Y-30895800D03*
X117154400Y-28355800D03*
X119694400Y-30895800D03*
X119694400Y-28355800D03*
X122234400Y-30895800D03*
X122234400Y-28355800D03*
X124774400Y-30895800D03*
X124774400Y-28355800D03*
X127314400Y-30895800D03*
X127314400Y-28355800D03*
%TD*%
D18*
%TO.C,J406*%
X43259700Y-106844400D03*
X43259700Y-118274400D03*
D19*
X52149700Y-117004400D03*
X49609700Y-115734400D03*
X52149700Y-114464400D03*
X49609700Y-113194400D03*
X52149700Y-111924400D03*
X49609700Y-110654400D03*
X52149700Y-109384400D03*
X49609700Y-108114400D03*
D20*
X56975700Y-118020400D03*
X56975700Y-115480400D03*
X56975700Y-109638400D03*
X56975700Y-107098400D03*
D21*
X46307700Y-104685400D03*
X46307700Y-120433400D03*
%TD*%
D10*
%TO.C,TP201*%
X124428200Y-111340400D03*
%TD*%
D22*
%TO.C,C310*%
X105498400Y-73821800D03*
X106458400Y-73821800D03*
%TD*%
D23*
%TO.C,C313*%
X106232400Y-68007800D03*
X106232400Y-68967800D03*
%TD*%
D24*
%TO.C,C221*%
X80511411Y-67252411D03*
X79832589Y-66573589D03*
%TD*%
D25*
%TO.C,C214*%
X81236200Y-75295000D03*
X80276200Y-75295000D03*
%TD*%
D23*
%TO.C,C208*%
X86953800Y-74967400D03*
X86953800Y-75927400D03*
%TD*%
D25*
%TO.C,C229*%
X86163800Y-71129400D03*
X85203800Y-71129400D03*
%TD*%
D23*
%TO.C,C231*%
X85267800Y-68049200D03*
X85267800Y-69009200D03*
%TD*%
D25*
%TO.C,C307*%
X103283400Y-66430400D03*
X102323400Y-66430400D03*
%TD*%
%TO.C,C222*%
X86163800Y-72069200D03*
X85203800Y-72069200D03*
%TD*%
%TO.C,C311*%
X96095200Y-66430400D03*
X95135200Y-66430400D03*
%TD*%
D22*
%TO.C,C225*%
X81343000Y-69478400D03*
X82303000Y-69478400D03*
%TD*%
D23*
%TO.C,C206*%
X84109000Y-71233600D03*
X84109000Y-72193600D03*
%TD*%
D22*
%TO.C,C305*%
X105523800Y-66455800D03*
X106483800Y-66455800D03*
%TD*%
D25*
%TO.C,C216*%
X80448800Y-70443600D03*
X79488800Y-70443600D03*
%TD*%
D22*
%TO.C,C205*%
X85330800Y-66430400D03*
X86290800Y-66430400D03*
%TD*%
D25*
%TO.C,C312*%
X97568400Y-73771000D03*
X96608400Y-73771000D03*
%TD*%
D22*
%TO.C,C308*%
X99580200Y-72805800D03*
X100540200Y-72805800D03*
%TD*%
D26*
%TO.C,C314*%
X104556000Y-73768400D03*
X104556000Y-72808400D03*
%TD*%
D25*
%TO.C,C306*%
X95688800Y-73415400D03*
X94728800Y-73415400D03*
%TD*%
D22*
%TO.C,C219*%
X86159400Y-68249800D03*
X87119400Y-68249800D03*
%TD*%
D26*
%TO.C,C209*%
X83337400Y-69695000D03*
X83337400Y-68735000D03*
%TD*%
D22*
%TO.C,C220*%
X81292200Y-72323200D03*
X82252200Y-72323200D03*
%TD*%
D25*
%TO.C,C232*%
X82226800Y-74355200D03*
X81266800Y-74355200D03*
%TD*%
%TO.C,C228*%
X85274800Y-73694800D03*
X84314800Y-73694800D03*
%TD*%
D23*
%TO.C,C217*%
X83169200Y-71233600D03*
X83169200Y-72193600D03*
%TD*%
D22*
%TO.C,C226*%
X81317600Y-70418200D03*
X82277600Y-70418200D03*
%TD*%
%TO.C,C223*%
X79463400Y-72882000D03*
X80423400Y-72882000D03*
%TD*%
%TO.C,C309*%
X101510600Y-73669400D03*
X102470600Y-73669400D03*
%TD*%
D26*
%TO.C,C230*%
X86191800Y-65462600D03*
X86191800Y-64502600D03*
%TD*%
D23*
%TO.C,C302*%
X107400800Y-72656000D03*
X107400800Y-73616000D03*
%TD*%
D22*
%TO.C,C227*%
X81317600Y-71358000D03*
X82277600Y-71358000D03*
%TD*%
%TO.C,C234*%
X86159400Y-73685400D03*
X87119400Y-73685400D03*
%TD*%
D27*
%TO.C,R307*%
X100913100Y-70692868D03*
X99893100Y-70692868D03*
%TD*%
D26*
%TO.C,C211*%
X84302600Y-69618800D03*
X84302600Y-68658800D03*
%TD*%
M02*
