%TF.GenerationSoftware,KiCad,Pcbnew,8.0.1*%
%TF.CreationDate,2025-05-27T09:35:13-07:00*%
%TF.ProjectId,mb,6d622e6b-6963-4616-945f-706362585858,A*%
%TF.SameCoordinates,Original*%
%TF.FileFunction,Legend,Bot*%
%TF.FilePolarity,Positive*%
%FSLAX46Y46*%
G04 Gerber Fmt 4.6, Leading zero omitted, Abs format (unit mm)*
G04 Created by KiCad (PCBNEW 8.0.1) date 2025-05-27 09:35:13*
%MOMM*%
%LPD*%
G01*
G04 APERTURE LIST*
%ADD10C,0.100000*%
%ADD11C,0.508000*%
%ADD12C,0.120000*%
G04 APERTURE END LIST*
D10*
X68132400Y-44845400D02*
X118132400Y-44845400D01*
X118132400Y-84845400D01*
X68132400Y-84845400D01*
X68132400Y-44845400D01*
X106588723Y-75016290D02*
X106612532Y-75040100D01*
X106612532Y-75040100D02*
X106683961Y-75063909D01*
X106683961Y-75063909D02*
X106731580Y-75063909D01*
X106731580Y-75063909D02*
X106803008Y-75040100D01*
X106803008Y-75040100D02*
X106850627Y-74992480D01*
X106850627Y-74992480D02*
X106874437Y-74944861D01*
X106874437Y-74944861D02*
X106898246Y-74849623D01*
X106898246Y-74849623D02*
X106898246Y-74778195D01*
X106898246Y-74778195D02*
X106874437Y-74682957D01*
X106874437Y-74682957D02*
X106850627Y-74635338D01*
X106850627Y-74635338D02*
X106803008Y-74587719D01*
X106803008Y-74587719D02*
X106731580Y-74563909D01*
X106731580Y-74563909D02*
X106683961Y-74563909D01*
X106683961Y-74563909D02*
X106612532Y-74587719D01*
X106612532Y-74587719D02*
X106588723Y-74611528D01*
X106422056Y-74563909D02*
X106112532Y-74563909D01*
X106112532Y-74563909D02*
X106279199Y-74754385D01*
X106279199Y-74754385D02*
X106207770Y-74754385D01*
X106207770Y-74754385D02*
X106160151Y-74778195D01*
X106160151Y-74778195D02*
X106136342Y-74802004D01*
X106136342Y-74802004D02*
X106112532Y-74849623D01*
X106112532Y-74849623D02*
X106112532Y-74968671D01*
X106112532Y-74968671D02*
X106136342Y-75016290D01*
X106136342Y-75016290D02*
X106160151Y-75040100D01*
X106160151Y-75040100D02*
X106207770Y-75063909D01*
X106207770Y-75063909D02*
X106350627Y-75063909D01*
X106350627Y-75063909D02*
X106398246Y-75040100D01*
X106398246Y-75040100D02*
X106422056Y-75016290D01*
X105636342Y-75063909D02*
X105922056Y-75063909D01*
X105779199Y-75063909D02*
X105779199Y-74563909D01*
X105779199Y-74563909D02*
X105826818Y-74635338D01*
X105826818Y-74635338D02*
X105874437Y-74682957D01*
X105874437Y-74682957D02*
X105922056Y-74706766D01*
X105326819Y-74563909D02*
X105279200Y-74563909D01*
X105279200Y-74563909D02*
X105231581Y-74587719D01*
X105231581Y-74587719D02*
X105207771Y-74611528D01*
X105207771Y-74611528D02*
X105183962Y-74659147D01*
X105183962Y-74659147D02*
X105160152Y-74754385D01*
X105160152Y-74754385D02*
X105160152Y-74873433D01*
X105160152Y-74873433D02*
X105183962Y-74968671D01*
X105183962Y-74968671D02*
X105207771Y-75016290D01*
X105207771Y-75016290D02*
X105231581Y-75040100D01*
X105231581Y-75040100D02*
X105279200Y-75063909D01*
X105279200Y-75063909D02*
X105326819Y-75063909D01*
X105326819Y-75063909D02*
X105374438Y-75040100D01*
X105374438Y-75040100D02*
X105398247Y-75016290D01*
X105398247Y-75016290D02*
X105422057Y-74968671D01*
X105422057Y-74968671D02*
X105445866Y-74873433D01*
X105445866Y-74873433D02*
X105445866Y-74754385D01*
X105445866Y-74754385D02*
X105422057Y-74659147D01*
X105422057Y-74659147D02*
X105398247Y-74611528D01*
X105398247Y-74611528D02*
X105374438Y-74587719D01*
X105374438Y-74587719D02*
X105326819Y-74563909D01*
X105250890Y-67928276D02*
X105274700Y-67904467D01*
X105274700Y-67904467D02*
X105298509Y-67833038D01*
X105298509Y-67833038D02*
X105298509Y-67785419D01*
X105298509Y-67785419D02*
X105274700Y-67713991D01*
X105274700Y-67713991D02*
X105227080Y-67666372D01*
X105227080Y-67666372D02*
X105179461Y-67642562D01*
X105179461Y-67642562D02*
X105084223Y-67618753D01*
X105084223Y-67618753D02*
X105012795Y-67618753D01*
X105012795Y-67618753D02*
X104917557Y-67642562D01*
X104917557Y-67642562D02*
X104869938Y-67666372D01*
X104869938Y-67666372D02*
X104822319Y-67713991D01*
X104822319Y-67713991D02*
X104798509Y-67785419D01*
X104798509Y-67785419D02*
X104798509Y-67833038D01*
X104798509Y-67833038D02*
X104822319Y-67904467D01*
X104822319Y-67904467D02*
X104846128Y-67928276D01*
X104798509Y-68094943D02*
X104798509Y-68404467D01*
X104798509Y-68404467D02*
X104988985Y-68237800D01*
X104988985Y-68237800D02*
X104988985Y-68309229D01*
X104988985Y-68309229D02*
X105012795Y-68356848D01*
X105012795Y-68356848D02*
X105036604Y-68380657D01*
X105036604Y-68380657D02*
X105084223Y-68404467D01*
X105084223Y-68404467D02*
X105203271Y-68404467D01*
X105203271Y-68404467D02*
X105250890Y-68380657D01*
X105250890Y-68380657D02*
X105274700Y-68356848D01*
X105274700Y-68356848D02*
X105298509Y-68309229D01*
X105298509Y-68309229D02*
X105298509Y-68166372D01*
X105298509Y-68166372D02*
X105274700Y-68118753D01*
X105274700Y-68118753D02*
X105250890Y-68094943D01*
X105298509Y-68880657D02*
X105298509Y-68594943D01*
X105298509Y-68737800D02*
X104798509Y-68737800D01*
X104798509Y-68737800D02*
X104869938Y-68690181D01*
X104869938Y-68690181D02*
X104917557Y-68642562D01*
X104917557Y-68642562D02*
X104941366Y-68594943D01*
X104798509Y-69047323D02*
X104798509Y-69356847D01*
X104798509Y-69356847D02*
X104988985Y-69190180D01*
X104988985Y-69190180D02*
X104988985Y-69261609D01*
X104988985Y-69261609D02*
X105012795Y-69309228D01*
X105012795Y-69309228D02*
X105036604Y-69333037D01*
X105036604Y-69333037D02*
X105084223Y-69356847D01*
X105084223Y-69356847D02*
X105203271Y-69356847D01*
X105203271Y-69356847D02*
X105250890Y-69333037D01*
X105250890Y-69333037D02*
X105274700Y-69309228D01*
X105274700Y-69309228D02*
X105298509Y-69261609D01*
X105298509Y-69261609D02*
X105298509Y-69118752D01*
X105298509Y-69118752D02*
X105274700Y-69071133D01*
X105274700Y-69071133D02*
X105250890Y-69047323D01*
X79044430Y-66012454D02*
X79044430Y-66046126D01*
X79044430Y-66046126D02*
X79078102Y-66113469D01*
X79078102Y-66113469D02*
X79111774Y-66147141D01*
X79111774Y-66147141D02*
X79179117Y-66180813D01*
X79179117Y-66180813D02*
X79246461Y-66180813D01*
X79246461Y-66180813D02*
X79296968Y-66163977D01*
X79296968Y-66163977D02*
X79381148Y-66113469D01*
X79381148Y-66113469D02*
X79431655Y-66062962D01*
X79431655Y-66062962D02*
X79482163Y-65978782D01*
X79482163Y-65978782D02*
X79498999Y-65928275D01*
X79498999Y-65928275D02*
X79498999Y-65860931D01*
X79498999Y-65860931D02*
X79465327Y-65793588D01*
X79465327Y-65793588D02*
X79431655Y-65759916D01*
X79431655Y-65759916D02*
X79364312Y-65726244D01*
X79364312Y-65726244D02*
X79330640Y-65726244D01*
X79195953Y-65591557D02*
X79195953Y-65557885D01*
X79195953Y-65557885D02*
X79179117Y-65507378D01*
X79179117Y-65507378D02*
X79094938Y-65423198D01*
X79094938Y-65423198D02*
X79044430Y-65406362D01*
X79044430Y-65406362D02*
X79010758Y-65406362D01*
X79010758Y-65406362D02*
X78960251Y-65423198D01*
X78960251Y-65423198D02*
X78926579Y-65456870D01*
X78926579Y-65456870D02*
X78892907Y-65524214D01*
X78892907Y-65524214D02*
X78892907Y-65928275D01*
X78892907Y-65928275D02*
X78674041Y-65709408D01*
X78859236Y-65254840D02*
X78859236Y-65221168D01*
X78859236Y-65221168D02*
X78842400Y-65170660D01*
X78842400Y-65170660D02*
X78758221Y-65086481D01*
X78758221Y-65086481D02*
X78707713Y-65069645D01*
X78707713Y-65069645D02*
X78674041Y-65069645D01*
X78674041Y-65069645D02*
X78623534Y-65086481D01*
X78623534Y-65086481D02*
X78589862Y-65120153D01*
X78589862Y-65120153D02*
X78556190Y-65187496D01*
X78556190Y-65187496D02*
X78556190Y-65591557D01*
X78556190Y-65591557D02*
X78337324Y-65372691D01*
X78000607Y-65035974D02*
X78202637Y-65238004D01*
X78101622Y-65136989D02*
X78455175Y-64783436D01*
X78455175Y-64783436D02*
X78438339Y-64867615D01*
X78438339Y-64867615D02*
X78438339Y-64934959D01*
X78438339Y-64934959D02*
X78455175Y-64985466D01*
X81315723Y-76337090D02*
X81339532Y-76360900D01*
X81339532Y-76360900D02*
X81410961Y-76384709D01*
X81410961Y-76384709D02*
X81458580Y-76384709D01*
X81458580Y-76384709D02*
X81530008Y-76360900D01*
X81530008Y-76360900D02*
X81577627Y-76313280D01*
X81577627Y-76313280D02*
X81601437Y-76265661D01*
X81601437Y-76265661D02*
X81625246Y-76170423D01*
X81625246Y-76170423D02*
X81625246Y-76098995D01*
X81625246Y-76098995D02*
X81601437Y-76003757D01*
X81601437Y-76003757D02*
X81577627Y-75956138D01*
X81577627Y-75956138D02*
X81530008Y-75908519D01*
X81530008Y-75908519D02*
X81458580Y-75884709D01*
X81458580Y-75884709D02*
X81410961Y-75884709D01*
X81410961Y-75884709D02*
X81339532Y-75908519D01*
X81339532Y-75908519D02*
X81315723Y-75932328D01*
X81125246Y-75932328D02*
X81101437Y-75908519D01*
X81101437Y-75908519D02*
X81053818Y-75884709D01*
X81053818Y-75884709D02*
X80934770Y-75884709D01*
X80934770Y-75884709D02*
X80887151Y-75908519D01*
X80887151Y-75908519D02*
X80863342Y-75932328D01*
X80863342Y-75932328D02*
X80839532Y-75979947D01*
X80839532Y-75979947D02*
X80839532Y-76027566D01*
X80839532Y-76027566D02*
X80863342Y-76098995D01*
X80863342Y-76098995D02*
X81149056Y-76384709D01*
X81149056Y-76384709D02*
X80839532Y-76384709D01*
X80363342Y-76384709D02*
X80649056Y-76384709D01*
X80506199Y-76384709D02*
X80506199Y-75884709D01*
X80506199Y-75884709D02*
X80553818Y-75956138D01*
X80553818Y-75956138D02*
X80601437Y-76003757D01*
X80601437Y-76003757D02*
X80649056Y-76027566D01*
X79934771Y-76051376D02*
X79934771Y-76384709D01*
X80053819Y-75860900D02*
X80172866Y-76218042D01*
X80172866Y-76218042D02*
X79863343Y-76218042D01*
X87183090Y-76767476D02*
X87206900Y-76743667D01*
X87206900Y-76743667D02*
X87230709Y-76672238D01*
X87230709Y-76672238D02*
X87230709Y-76624619D01*
X87230709Y-76624619D02*
X87206900Y-76553191D01*
X87206900Y-76553191D02*
X87159280Y-76505572D01*
X87159280Y-76505572D02*
X87111661Y-76481762D01*
X87111661Y-76481762D02*
X87016423Y-76457953D01*
X87016423Y-76457953D02*
X86944995Y-76457953D01*
X86944995Y-76457953D02*
X86849757Y-76481762D01*
X86849757Y-76481762D02*
X86802138Y-76505572D01*
X86802138Y-76505572D02*
X86754519Y-76553191D01*
X86754519Y-76553191D02*
X86730709Y-76624619D01*
X86730709Y-76624619D02*
X86730709Y-76672238D01*
X86730709Y-76672238D02*
X86754519Y-76743667D01*
X86754519Y-76743667D02*
X86778328Y-76767476D01*
X86778328Y-76957953D02*
X86754519Y-76981762D01*
X86754519Y-76981762D02*
X86730709Y-77029381D01*
X86730709Y-77029381D02*
X86730709Y-77148429D01*
X86730709Y-77148429D02*
X86754519Y-77196048D01*
X86754519Y-77196048D02*
X86778328Y-77219857D01*
X86778328Y-77219857D02*
X86825947Y-77243667D01*
X86825947Y-77243667D02*
X86873566Y-77243667D01*
X86873566Y-77243667D02*
X86944995Y-77219857D01*
X86944995Y-77219857D02*
X87230709Y-76934143D01*
X87230709Y-76934143D02*
X87230709Y-77243667D01*
X86730709Y-77553190D02*
X86730709Y-77600809D01*
X86730709Y-77600809D02*
X86754519Y-77648428D01*
X86754519Y-77648428D02*
X86778328Y-77672238D01*
X86778328Y-77672238D02*
X86825947Y-77696047D01*
X86825947Y-77696047D02*
X86921185Y-77719857D01*
X86921185Y-77719857D02*
X87040233Y-77719857D01*
X87040233Y-77719857D02*
X87135471Y-77696047D01*
X87135471Y-77696047D02*
X87183090Y-77672238D01*
X87183090Y-77672238D02*
X87206900Y-77648428D01*
X87206900Y-77648428D02*
X87230709Y-77600809D01*
X87230709Y-77600809D02*
X87230709Y-77553190D01*
X87230709Y-77553190D02*
X87206900Y-77505571D01*
X87206900Y-77505571D02*
X87183090Y-77481762D01*
X87183090Y-77481762D02*
X87135471Y-77457952D01*
X87135471Y-77457952D02*
X87040233Y-77434143D01*
X87040233Y-77434143D02*
X86921185Y-77434143D01*
X86921185Y-77434143D02*
X86825947Y-77457952D01*
X86825947Y-77457952D02*
X86778328Y-77481762D01*
X86778328Y-77481762D02*
X86754519Y-77505571D01*
X86754519Y-77505571D02*
X86730709Y-77553190D01*
X86944995Y-78005571D02*
X86921185Y-77957952D01*
X86921185Y-77957952D02*
X86897376Y-77934142D01*
X86897376Y-77934142D02*
X86849757Y-77910333D01*
X86849757Y-77910333D02*
X86825947Y-77910333D01*
X86825947Y-77910333D02*
X86778328Y-77934142D01*
X86778328Y-77934142D02*
X86754519Y-77957952D01*
X86754519Y-77957952D02*
X86730709Y-78005571D01*
X86730709Y-78005571D02*
X86730709Y-78100809D01*
X86730709Y-78100809D02*
X86754519Y-78148428D01*
X86754519Y-78148428D02*
X86778328Y-78172237D01*
X86778328Y-78172237D02*
X86825947Y-78196047D01*
X86825947Y-78196047D02*
X86849757Y-78196047D01*
X86849757Y-78196047D02*
X86897376Y-78172237D01*
X86897376Y-78172237D02*
X86921185Y-78148428D01*
X86921185Y-78148428D02*
X86944995Y-78100809D01*
X86944995Y-78100809D02*
X86944995Y-78005571D01*
X86944995Y-78005571D02*
X86968804Y-77957952D01*
X86968804Y-77957952D02*
X86992614Y-77934142D01*
X86992614Y-77934142D02*
X87040233Y-77910333D01*
X87040233Y-77910333D02*
X87135471Y-77910333D01*
X87135471Y-77910333D02*
X87183090Y-77934142D01*
X87183090Y-77934142D02*
X87206900Y-77957952D01*
X87206900Y-77957952D02*
X87230709Y-78005571D01*
X87230709Y-78005571D02*
X87230709Y-78100809D01*
X87230709Y-78100809D02*
X87206900Y-78148428D01*
X87206900Y-78148428D02*
X87183090Y-78172237D01*
X87183090Y-78172237D02*
X87135471Y-78196047D01*
X87135471Y-78196047D02*
X87040233Y-78196047D01*
X87040233Y-78196047D02*
X86992614Y-78172237D01*
X86992614Y-78172237D02*
X86968804Y-78148428D01*
X86968804Y-78148428D02*
X86944995Y-78100809D01*
X88224523Y-71282490D02*
X88248332Y-71306300D01*
X88248332Y-71306300D02*
X88319761Y-71330109D01*
X88319761Y-71330109D02*
X88367380Y-71330109D01*
X88367380Y-71330109D02*
X88438808Y-71306300D01*
X88438808Y-71306300D02*
X88486427Y-71258680D01*
X88486427Y-71258680D02*
X88510237Y-71211061D01*
X88510237Y-71211061D02*
X88534046Y-71115823D01*
X88534046Y-71115823D02*
X88534046Y-71044395D01*
X88534046Y-71044395D02*
X88510237Y-70949157D01*
X88510237Y-70949157D02*
X88486427Y-70901538D01*
X88486427Y-70901538D02*
X88438808Y-70853919D01*
X88438808Y-70853919D02*
X88367380Y-70830109D01*
X88367380Y-70830109D02*
X88319761Y-70830109D01*
X88319761Y-70830109D02*
X88248332Y-70853919D01*
X88248332Y-70853919D02*
X88224523Y-70877728D01*
X88034046Y-70877728D02*
X88010237Y-70853919D01*
X88010237Y-70853919D02*
X87962618Y-70830109D01*
X87962618Y-70830109D02*
X87843570Y-70830109D01*
X87843570Y-70830109D02*
X87795951Y-70853919D01*
X87795951Y-70853919D02*
X87772142Y-70877728D01*
X87772142Y-70877728D02*
X87748332Y-70925347D01*
X87748332Y-70925347D02*
X87748332Y-70972966D01*
X87748332Y-70972966D02*
X87772142Y-71044395D01*
X87772142Y-71044395D02*
X88057856Y-71330109D01*
X88057856Y-71330109D02*
X87748332Y-71330109D01*
X87557856Y-70877728D02*
X87534047Y-70853919D01*
X87534047Y-70853919D02*
X87486428Y-70830109D01*
X87486428Y-70830109D02*
X87367380Y-70830109D01*
X87367380Y-70830109D02*
X87319761Y-70853919D01*
X87319761Y-70853919D02*
X87295952Y-70877728D01*
X87295952Y-70877728D02*
X87272142Y-70925347D01*
X87272142Y-70925347D02*
X87272142Y-70972966D01*
X87272142Y-70972966D02*
X87295952Y-71044395D01*
X87295952Y-71044395D02*
X87581666Y-71330109D01*
X87581666Y-71330109D02*
X87272142Y-71330109D01*
X87034047Y-71330109D02*
X86938809Y-71330109D01*
X86938809Y-71330109D02*
X86891190Y-71306300D01*
X86891190Y-71306300D02*
X86867381Y-71282490D01*
X86867381Y-71282490D02*
X86819762Y-71211061D01*
X86819762Y-71211061D02*
X86795952Y-71115823D01*
X86795952Y-71115823D02*
X86795952Y-70925347D01*
X86795952Y-70925347D02*
X86819762Y-70877728D01*
X86819762Y-70877728D02*
X86843571Y-70853919D01*
X86843571Y-70853919D02*
X86891190Y-70830109D01*
X86891190Y-70830109D02*
X86986428Y-70830109D01*
X86986428Y-70830109D02*
X87034047Y-70853919D01*
X87034047Y-70853919D02*
X87057857Y-70877728D01*
X87057857Y-70877728D02*
X87081666Y-70925347D01*
X87081666Y-70925347D02*
X87081666Y-71044395D01*
X87081666Y-71044395D02*
X87057857Y-71092014D01*
X87057857Y-71092014D02*
X87034047Y-71115823D01*
X87034047Y-71115823D02*
X86986428Y-71139633D01*
X86986428Y-71139633D02*
X86891190Y-71139633D01*
X86891190Y-71139633D02*
X86843571Y-71115823D01*
X86843571Y-71115823D02*
X86819762Y-71092014D01*
X86819762Y-71092014D02*
X86795952Y-71044395D01*
X87249723Y-69393490D02*
X87273532Y-69417300D01*
X87273532Y-69417300D02*
X87344961Y-69441109D01*
X87344961Y-69441109D02*
X87392580Y-69441109D01*
X87392580Y-69441109D02*
X87464008Y-69417300D01*
X87464008Y-69417300D02*
X87511627Y-69369680D01*
X87511627Y-69369680D02*
X87535437Y-69322061D01*
X87535437Y-69322061D02*
X87559246Y-69226823D01*
X87559246Y-69226823D02*
X87559246Y-69155395D01*
X87559246Y-69155395D02*
X87535437Y-69060157D01*
X87535437Y-69060157D02*
X87511627Y-69012538D01*
X87511627Y-69012538D02*
X87464008Y-68964919D01*
X87464008Y-68964919D02*
X87392580Y-68941109D01*
X87392580Y-68941109D02*
X87344961Y-68941109D01*
X87344961Y-68941109D02*
X87273532Y-68964919D01*
X87273532Y-68964919D02*
X87249723Y-68988728D01*
X87059246Y-68988728D02*
X87035437Y-68964919D01*
X87035437Y-68964919D02*
X86987818Y-68941109D01*
X86987818Y-68941109D02*
X86868770Y-68941109D01*
X86868770Y-68941109D02*
X86821151Y-68964919D01*
X86821151Y-68964919D02*
X86797342Y-68988728D01*
X86797342Y-68988728D02*
X86773532Y-69036347D01*
X86773532Y-69036347D02*
X86773532Y-69083966D01*
X86773532Y-69083966D02*
X86797342Y-69155395D01*
X86797342Y-69155395D02*
X87083056Y-69441109D01*
X87083056Y-69441109D02*
X86773532Y-69441109D01*
X86606866Y-68941109D02*
X86297342Y-68941109D01*
X86297342Y-68941109D02*
X86464009Y-69131585D01*
X86464009Y-69131585D02*
X86392580Y-69131585D01*
X86392580Y-69131585D02*
X86344961Y-69155395D01*
X86344961Y-69155395D02*
X86321152Y-69179204D01*
X86321152Y-69179204D02*
X86297342Y-69226823D01*
X86297342Y-69226823D02*
X86297342Y-69345871D01*
X86297342Y-69345871D02*
X86321152Y-69393490D01*
X86321152Y-69393490D02*
X86344961Y-69417300D01*
X86344961Y-69417300D02*
X86392580Y-69441109D01*
X86392580Y-69441109D02*
X86535437Y-69441109D01*
X86535437Y-69441109D02*
X86583056Y-69417300D01*
X86583056Y-69417300D02*
X86606866Y-69393490D01*
X85821152Y-69441109D02*
X86106866Y-69441109D01*
X85964009Y-69441109D02*
X85964009Y-68941109D01*
X85964009Y-68941109D02*
X86011628Y-69012538D01*
X86011628Y-69012538D02*
X86059247Y-69060157D01*
X86059247Y-69060157D02*
X86106866Y-69083966D01*
X101330923Y-66583490D02*
X101354732Y-66607300D01*
X101354732Y-66607300D02*
X101426161Y-66631109D01*
X101426161Y-66631109D02*
X101473780Y-66631109D01*
X101473780Y-66631109D02*
X101545208Y-66607300D01*
X101545208Y-66607300D02*
X101592827Y-66559680D01*
X101592827Y-66559680D02*
X101616637Y-66512061D01*
X101616637Y-66512061D02*
X101640446Y-66416823D01*
X101640446Y-66416823D02*
X101640446Y-66345395D01*
X101640446Y-66345395D02*
X101616637Y-66250157D01*
X101616637Y-66250157D02*
X101592827Y-66202538D01*
X101592827Y-66202538D02*
X101545208Y-66154919D01*
X101545208Y-66154919D02*
X101473780Y-66131109D01*
X101473780Y-66131109D02*
X101426161Y-66131109D01*
X101426161Y-66131109D02*
X101354732Y-66154919D01*
X101354732Y-66154919D02*
X101330923Y-66178728D01*
X101164256Y-66131109D02*
X100854732Y-66131109D01*
X100854732Y-66131109D02*
X101021399Y-66321585D01*
X101021399Y-66321585D02*
X100949970Y-66321585D01*
X100949970Y-66321585D02*
X100902351Y-66345395D01*
X100902351Y-66345395D02*
X100878542Y-66369204D01*
X100878542Y-66369204D02*
X100854732Y-66416823D01*
X100854732Y-66416823D02*
X100854732Y-66535871D01*
X100854732Y-66535871D02*
X100878542Y-66583490D01*
X100878542Y-66583490D02*
X100902351Y-66607300D01*
X100902351Y-66607300D02*
X100949970Y-66631109D01*
X100949970Y-66631109D02*
X101092827Y-66631109D01*
X101092827Y-66631109D02*
X101140446Y-66607300D01*
X101140446Y-66607300D02*
X101164256Y-66583490D01*
X100545209Y-66131109D02*
X100497590Y-66131109D01*
X100497590Y-66131109D02*
X100449971Y-66154919D01*
X100449971Y-66154919D02*
X100426161Y-66178728D01*
X100426161Y-66178728D02*
X100402352Y-66226347D01*
X100402352Y-66226347D02*
X100378542Y-66321585D01*
X100378542Y-66321585D02*
X100378542Y-66440633D01*
X100378542Y-66440633D02*
X100402352Y-66535871D01*
X100402352Y-66535871D02*
X100426161Y-66583490D01*
X100426161Y-66583490D02*
X100449971Y-66607300D01*
X100449971Y-66607300D02*
X100497590Y-66631109D01*
X100497590Y-66631109D02*
X100545209Y-66631109D01*
X100545209Y-66631109D02*
X100592828Y-66607300D01*
X100592828Y-66607300D02*
X100616637Y-66583490D01*
X100616637Y-66583490D02*
X100640447Y-66535871D01*
X100640447Y-66535871D02*
X100664256Y-66440633D01*
X100664256Y-66440633D02*
X100664256Y-66321585D01*
X100664256Y-66321585D02*
X100640447Y-66226347D01*
X100640447Y-66226347D02*
X100616637Y-66178728D01*
X100616637Y-66178728D02*
X100592828Y-66154919D01*
X100592828Y-66154919D02*
X100545209Y-66131109D01*
X100211876Y-66131109D02*
X99878543Y-66131109D01*
X99878543Y-66131109D02*
X100092828Y-66631109D01*
X88199123Y-72323890D02*
X88222932Y-72347700D01*
X88222932Y-72347700D02*
X88294361Y-72371509D01*
X88294361Y-72371509D02*
X88341980Y-72371509D01*
X88341980Y-72371509D02*
X88413408Y-72347700D01*
X88413408Y-72347700D02*
X88461027Y-72300080D01*
X88461027Y-72300080D02*
X88484837Y-72252461D01*
X88484837Y-72252461D02*
X88508646Y-72157223D01*
X88508646Y-72157223D02*
X88508646Y-72085795D01*
X88508646Y-72085795D02*
X88484837Y-71990557D01*
X88484837Y-71990557D02*
X88461027Y-71942938D01*
X88461027Y-71942938D02*
X88413408Y-71895319D01*
X88413408Y-71895319D02*
X88341980Y-71871509D01*
X88341980Y-71871509D02*
X88294361Y-71871509D01*
X88294361Y-71871509D02*
X88222932Y-71895319D01*
X88222932Y-71895319D02*
X88199123Y-71919128D01*
X88008646Y-71919128D02*
X87984837Y-71895319D01*
X87984837Y-71895319D02*
X87937218Y-71871509D01*
X87937218Y-71871509D02*
X87818170Y-71871509D01*
X87818170Y-71871509D02*
X87770551Y-71895319D01*
X87770551Y-71895319D02*
X87746742Y-71919128D01*
X87746742Y-71919128D02*
X87722932Y-71966747D01*
X87722932Y-71966747D02*
X87722932Y-72014366D01*
X87722932Y-72014366D02*
X87746742Y-72085795D01*
X87746742Y-72085795D02*
X88032456Y-72371509D01*
X88032456Y-72371509D02*
X87722932Y-72371509D01*
X87532456Y-71919128D02*
X87508647Y-71895319D01*
X87508647Y-71895319D02*
X87461028Y-71871509D01*
X87461028Y-71871509D02*
X87341980Y-71871509D01*
X87341980Y-71871509D02*
X87294361Y-71895319D01*
X87294361Y-71895319D02*
X87270552Y-71919128D01*
X87270552Y-71919128D02*
X87246742Y-71966747D01*
X87246742Y-71966747D02*
X87246742Y-72014366D01*
X87246742Y-72014366D02*
X87270552Y-72085795D01*
X87270552Y-72085795D02*
X87556266Y-72371509D01*
X87556266Y-72371509D02*
X87246742Y-72371509D01*
X87056266Y-71919128D02*
X87032457Y-71895319D01*
X87032457Y-71895319D02*
X86984838Y-71871509D01*
X86984838Y-71871509D02*
X86865790Y-71871509D01*
X86865790Y-71871509D02*
X86818171Y-71895319D01*
X86818171Y-71895319D02*
X86794362Y-71919128D01*
X86794362Y-71919128D02*
X86770552Y-71966747D01*
X86770552Y-71966747D02*
X86770552Y-72014366D01*
X86770552Y-72014366D02*
X86794362Y-72085795D01*
X86794362Y-72085795D02*
X87080076Y-72371509D01*
X87080076Y-72371509D02*
X86770552Y-72371509D01*
X96174723Y-65448890D02*
X96198532Y-65472700D01*
X96198532Y-65472700D02*
X96269961Y-65496509D01*
X96269961Y-65496509D02*
X96317580Y-65496509D01*
X96317580Y-65496509D02*
X96389008Y-65472700D01*
X96389008Y-65472700D02*
X96436627Y-65425080D01*
X96436627Y-65425080D02*
X96460437Y-65377461D01*
X96460437Y-65377461D02*
X96484246Y-65282223D01*
X96484246Y-65282223D02*
X96484246Y-65210795D01*
X96484246Y-65210795D02*
X96460437Y-65115557D01*
X96460437Y-65115557D02*
X96436627Y-65067938D01*
X96436627Y-65067938D02*
X96389008Y-65020319D01*
X96389008Y-65020319D02*
X96317580Y-64996509D01*
X96317580Y-64996509D02*
X96269961Y-64996509D01*
X96269961Y-64996509D02*
X96198532Y-65020319D01*
X96198532Y-65020319D02*
X96174723Y-65044128D01*
X96008056Y-64996509D02*
X95698532Y-64996509D01*
X95698532Y-64996509D02*
X95865199Y-65186985D01*
X95865199Y-65186985D02*
X95793770Y-65186985D01*
X95793770Y-65186985D02*
X95746151Y-65210795D01*
X95746151Y-65210795D02*
X95722342Y-65234604D01*
X95722342Y-65234604D02*
X95698532Y-65282223D01*
X95698532Y-65282223D02*
X95698532Y-65401271D01*
X95698532Y-65401271D02*
X95722342Y-65448890D01*
X95722342Y-65448890D02*
X95746151Y-65472700D01*
X95746151Y-65472700D02*
X95793770Y-65496509D01*
X95793770Y-65496509D02*
X95936627Y-65496509D01*
X95936627Y-65496509D02*
X95984246Y-65472700D01*
X95984246Y-65472700D02*
X96008056Y-65448890D01*
X95222342Y-65496509D02*
X95508056Y-65496509D01*
X95365199Y-65496509D02*
X95365199Y-64996509D01*
X95365199Y-64996509D02*
X95412818Y-65067938D01*
X95412818Y-65067938D02*
X95460437Y-65115557D01*
X95460437Y-65115557D02*
X95508056Y-65139366D01*
X94746152Y-65496509D02*
X95031866Y-65496509D01*
X94889009Y-65496509D02*
X94889009Y-64996509D01*
X94889009Y-64996509D02*
X94936628Y-65067938D01*
X94936628Y-65067938D02*
X94984247Y-65115557D01*
X94984247Y-65115557D02*
X95031866Y-65139366D01*
X82687290Y-67217076D02*
X82711100Y-67193267D01*
X82711100Y-67193267D02*
X82734909Y-67121838D01*
X82734909Y-67121838D02*
X82734909Y-67074219D01*
X82734909Y-67074219D02*
X82711100Y-67002791D01*
X82711100Y-67002791D02*
X82663480Y-66955172D01*
X82663480Y-66955172D02*
X82615861Y-66931362D01*
X82615861Y-66931362D02*
X82520623Y-66907553D01*
X82520623Y-66907553D02*
X82449195Y-66907553D01*
X82449195Y-66907553D02*
X82353957Y-66931362D01*
X82353957Y-66931362D02*
X82306338Y-66955172D01*
X82306338Y-66955172D02*
X82258719Y-67002791D01*
X82258719Y-67002791D02*
X82234909Y-67074219D01*
X82234909Y-67074219D02*
X82234909Y-67121838D01*
X82234909Y-67121838D02*
X82258719Y-67193267D01*
X82258719Y-67193267D02*
X82282528Y-67217076D01*
X82282528Y-67407553D02*
X82258719Y-67431362D01*
X82258719Y-67431362D02*
X82234909Y-67478981D01*
X82234909Y-67478981D02*
X82234909Y-67598029D01*
X82234909Y-67598029D02*
X82258719Y-67645648D01*
X82258719Y-67645648D02*
X82282528Y-67669457D01*
X82282528Y-67669457D02*
X82330147Y-67693267D01*
X82330147Y-67693267D02*
X82377766Y-67693267D01*
X82377766Y-67693267D02*
X82449195Y-67669457D01*
X82449195Y-67669457D02*
X82734909Y-67383743D01*
X82734909Y-67383743D02*
X82734909Y-67693267D01*
X82282528Y-67883743D02*
X82258719Y-67907552D01*
X82258719Y-67907552D02*
X82234909Y-67955171D01*
X82234909Y-67955171D02*
X82234909Y-68074219D01*
X82234909Y-68074219D02*
X82258719Y-68121838D01*
X82258719Y-68121838D02*
X82282528Y-68145647D01*
X82282528Y-68145647D02*
X82330147Y-68169457D01*
X82330147Y-68169457D02*
X82377766Y-68169457D01*
X82377766Y-68169457D02*
X82449195Y-68145647D01*
X82449195Y-68145647D02*
X82734909Y-67859933D01*
X82734909Y-67859933D02*
X82734909Y-68169457D01*
X82234909Y-68621837D02*
X82234909Y-68383742D01*
X82234909Y-68383742D02*
X82473004Y-68359933D01*
X82473004Y-68359933D02*
X82449195Y-68383742D01*
X82449195Y-68383742D02*
X82425385Y-68431361D01*
X82425385Y-68431361D02*
X82425385Y-68550409D01*
X82425385Y-68550409D02*
X82449195Y-68598028D01*
X82449195Y-68598028D02*
X82473004Y-68621837D01*
X82473004Y-68621837D02*
X82520623Y-68645647D01*
X82520623Y-68645647D02*
X82639671Y-68645647D01*
X82639671Y-68645647D02*
X82687290Y-68621837D01*
X82687290Y-68621837D02*
X82711100Y-68598028D01*
X82711100Y-68598028D02*
X82734909Y-68550409D01*
X82734909Y-68550409D02*
X82734909Y-68431361D01*
X82734909Y-68431361D02*
X82711100Y-68383742D01*
X82711100Y-68383742D02*
X82687290Y-68359933D01*
X85405123Y-70571290D02*
X85428932Y-70595100D01*
X85428932Y-70595100D02*
X85500361Y-70618909D01*
X85500361Y-70618909D02*
X85547980Y-70618909D01*
X85547980Y-70618909D02*
X85619408Y-70595100D01*
X85619408Y-70595100D02*
X85667027Y-70547480D01*
X85667027Y-70547480D02*
X85690837Y-70499861D01*
X85690837Y-70499861D02*
X85714646Y-70404623D01*
X85714646Y-70404623D02*
X85714646Y-70333195D01*
X85714646Y-70333195D02*
X85690837Y-70237957D01*
X85690837Y-70237957D02*
X85667027Y-70190338D01*
X85667027Y-70190338D02*
X85619408Y-70142719D01*
X85619408Y-70142719D02*
X85547980Y-70118909D01*
X85547980Y-70118909D02*
X85500361Y-70118909D01*
X85500361Y-70118909D02*
X85428932Y-70142719D01*
X85428932Y-70142719D02*
X85405123Y-70166528D01*
X85214646Y-70166528D02*
X85190837Y-70142719D01*
X85190837Y-70142719D02*
X85143218Y-70118909D01*
X85143218Y-70118909D02*
X85024170Y-70118909D01*
X85024170Y-70118909D02*
X84976551Y-70142719D01*
X84976551Y-70142719D02*
X84952742Y-70166528D01*
X84952742Y-70166528D02*
X84928932Y-70214147D01*
X84928932Y-70214147D02*
X84928932Y-70261766D01*
X84928932Y-70261766D02*
X84952742Y-70333195D01*
X84952742Y-70333195D02*
X85238456Y-70618909D01*
X85238456Y-70618909D02*
X84928932Y-70618909D01*
X84619409Y-70118909D02*
X84571790Y-70118909D01*
X84571790Y-70118909D02*
X84524171Y-70142719D01*
X84524171Y-70142719D02*
X84500361Y-70166528D01*
X84500361Y-70166528D02*
X84476552Y-70214147D01*
X84476552Y-70214147D02*
X84452742Y-70309385D01*
X84452742Y-70309385D02*
X84452742Y-70428433D01*
X84452742Y-70428433D02*
X84476552Y-70523671D01*
X84476552Y-70523671D02*
X84500361Y-70571290D01*
X84500361Y-70571290D02*
X84524171Y-70595100D01*
X84524171Y-70595100D02*
X84571790Y-70618909D01*
X84571790Y-70618909D02*
X84619409Y-70618909D01*
X84619409Y-70618909D02*
X84667028Y-70595100D01*
X84667028Y-70595100D02*
X84690837Y-70571290D01*
X84690837Y-70571290D02*
X84714647Y-70523671D01*
X84714647Y-70523671D02*
X84738456Y-70428433D01*
X84738456Y-70428433D02*
X84738456Y-70309385D01*
X84738456Y-70309385D02*
X84714647Y-70214147D01*
X84714647Y-70214147D02*
X84690837Y-70166528D01*
X84690837Y-70166528D02*
X84667028Y-70142719D01*
X84667028Y-70142719D02*
X84619409Y-70118909D01*
X84024171Y-70118909D02*
X84119409Y-70118909D01*
X84119409Y-70118909D02*
X84167028Y-70142719D01*
X84167028Y-70142719D02*
X84190838Y-70166528D01*
X84190838Y-70166528D02*
X84238457Y-70237957D01*
X84238457Y-70237957D02*
X84262266Y-70333195D01*
X84262266Y-70333195D02*
X84262266Y-70523671D01*
X84262266Y-70523671D02*
X84238457Y-70571290D01*
X84238457Y-70571290D02*
X84214647Y-70595100D01*
X84214647Y-70595100D02*
X84167028Y-70618909D01*
X84167028Y-70618909D02*
X84071790Y-70618909D01*
X84071790Y-70618909D02*
X84024171Y-70595100D01*
X84024171Y-70595100D02*
X84000362Y-70571290D01*
X84000362Y-70571290D02*
X83976552Y-70523671D01*
X83976552Y-70523671D02*
X83976552Y-70404623D01*
X83976552Y-70404623D02*
X84000362Y-70357004D01*
X84000362Y-70357004D02*
X84024171Y-70333195D01*
X84024171Y-70333195D02*
X84071790Y-70309385D01*
X84071790Y-70309385D02*
X84167028Y-70309385D01*
X84167028Y-70309385D02*
X84214647Y-70333195D01*
X84214647Y-70333195D02*
X84238457Y-70357004D01*
X84238457Y-70357004D02*
X84262266Y-70404623D01*
X108620723Y-66659690D02*
X108644532Y-66683500D01*
X108644532Y-66683500D02*
X108715961Y-66707309D01*
X108715961Y-66707309D02*
X108763580Y-66707309D01*
X108763580Y-66707309D02*
X108835008Y-66683500D01*
X108835008Y-66683500D02*
X108882627Y-66635880D01*
X108882627Y-66635880D02*
X108906437Y-66588261D01*
X108906437Y-66588261D02*
X108930246Y-66493023D01*
X108930246Y-66493023D02*
X108930246Y-66421595D01*
X108930246Y-66421595D02*
X108906437Y-66326357D01*
X108906437Y-66326357D02*
X108882627Y-66278738D01*
X108882627Y-66278738D02*
X108835008Y-66231119D01*
X108835008Y-66231119D02*
X108763580Y-66207309D01*
X108763580Y-66207309D02*
X108715961Y-66207309D01*
X108715961Y-66207309D02*
X108644532Y-66231119D01*
X108644532Y-66231119D02*
X108620723Y-66254928D01*
X108454056Y-66207309D02*
X108144532Y-66207309D01*
X108144532Y-66207309D02*
X108311199Y-66397785D01*
X108311199Y-66397785D02*
X108239770Y-66397785D01*
X108239770Y-66397785D02*
X108192151Y-66421595D01*
X108192151Y-66421595D02*
X108168342Y-66445404D01*
X108168342Y-66445404D02*
X108144532Y-66493023D01*
X108144532Y-66493023D02*
X108144532Y-66612071D01*
X108144532Y-66612071D02*
X108168342Y-66659690D01*
X108168342Y-66659690D02*
X108192151Y-66683500D01*
X108192151Y-66683500D02*
X108239770Y-66707309D01*
X108239770Y-66707309D02*
X108382627Y-66707309D01*
X108382627Y-66707309D02*
X108430246Y-66683500D01*
X108430246Y-66683500D02*
X108454056Y-66659690D01*
X107835009Y-66207309D02*
X107787390Y-66207309D01*
X107787390Y-66207309D02*
X107739771Y-66231119D01*
X107739771Y-66231119D02*
X107715961Y-66254928D01*
X107715961Y-66254928D02*
X107692152Y-66302547D01*
X107692152Y-66302547D02*
X107668342Y-66397785D01*
X107668342Y-66397785D02*
X107668342Y-66516833D01*
X107668342Y-66516833D02*
X107692152Y-66612071D01*
X107692152Y-66612071D02*
X107715961Y-66659690D01*
X107715961Y-66659690D02*
X107739771Y-66683500D01*
X107739771Y-66683500D02*
X107787390Y-66707309D01*
X107787390Y-66707309D02*
X107835009Y-66707309D01*
X107835009Y-66707309D02*
X107882628Y-66683500D01*
X107882628Y-66683500D02*
X107906437Y-66659690D01*
X107906437Y-66659690D02*
X107930247Y-66612071D01*
X107930247Y-66612071D02*
X107954056Y-66516833D01*
X107954056Y-66516833D02*
X107954056Y-66397785D01*
X107954056Y-66397785D02*
X107930247Y-66302547D01*
X107930247Y-66302547D02*
X107906437Y-66254928D01*
X107906437Y-66254928D02*
X107882628Y-66231119D01*
X107882628Y-66231119D02*
X107835009Y-66207309D01*
X107215962Y-66207309D02*
X107454057Y-66207309D01*
X107454057Y-66207309D02*
X107477866Y-66445404D01*
X107477866Y-66445404D02*
X107454057Y-66421595D01*
X107454057Y-66421595D02*
X107406438Y-66397785D01*
X107406438Y-66397785D02*
X107287390Y-66397785D01*
X107287390Y-66397785D02*
X107239771Y-66421595D01*
X107239771Y-66421595D02*
X107215962Y-66445404D01*
X107215962Y-66445404D02*
X107192152Y-66493023D01*
X107192152Y-66493023D02*
X107192152Y-66612071D01*
X107192152Y-66612071D02*
X107215962Y-66659690D01*
X107215962Y-66659690D02*
X107239771Y-66683500D01*
X107239771Y-66683500D02*
X107287390Y-66707309D01*
X107287390Y-66707309D02*
X107406438Y-66707309D01*
X107406438Y-66707309D02*
X107454057Y-66683500D01*
X107454057Y-66683500D02*
X107477866Y-66659690D01*
X78572523Y-70571290D02*
X78596332Y-70595100D01*
X78596332Y-70595100D02*
X78667761Y-70618909D01*
X78667761Y-70618909D02*
X78715380Y-70618909D01*
X78715380Y-70618909D02*
X78786808Y-70595100D01*
X78786808Y-70595100D02*
X78834427Y-70547480D01*
X78834427Y-70547480D02*
X78858237Y-70499861D01*
X78858237Y-70499861D02*
X78882046Y-70404623D01*
X78882046Y-70404623D02*
X78882046Y-70333195D01*
X78882046Y-70333195D02*
X78858237Y-70237957D01*
X78858237Y-70237957D02*
X78834427Y-70190338D01*
X78834427Y-70190338D02*
X78786808Y-70142719D01*
X78786808Y-70142719D02*
X78715380Y-70118909D01*
X78715380Y-70118909D02*
X78667761Y-70118909D01*
X78667761Y-70118909D02*
X78596332Y-70142719D01*
X78596332Y-70142719D02*
X78572523Y-70166528D01*
X78382046Y-70166528D02*
X78358237Y-70142719D01*
X78358237Y-70142719D02*
X78310618Y-70118909D01*
X78310618Y-70118909D02*
X78191570Y-70118909D01*
X78191570Y-70118909D02*
X78143951Y-70142719D01*
X78143951Y-70142719D02*
X78120142Y-70166528D01*
X78120142Y-70166528D02*
X78096332Y-70214147D01*
X78096332Y-70214147D02*
X78096332Y-70261766D01*
X78096332Y-70261766D02*
X78120142Y-70333195D01*
X78120142Y-70333195D02*
X78405856Y-70618909D01*
X78405856Y-70618909D02*
X78096332Y-70618909D01*
X77620142Y-70618909D02*
X77905856Y-70618909D01*
X77762999Y-70618909D02*
X77762999Y-70118909D01*
X77762999Y-70118909D02*
X77810618Y-70190338D01*
X77810618Y-70190338D02*
X77858237Y-70237957D01*
X77858237Y-70237957D02*
X77905856Y-70261766D01*
X77191571Y-70118909D02*
X77286809Y-70118909D01*
X77286809Y-70118909D02*
X77334428Y-70142719D01*
X77334428Y-70142719D02*
X77358238Y-70166528D01*
X77358238Y-70166528D02*
X77405857Y-70237957D01*
X77405857Y-70237957D02*
X77429666Y-70333195D01*
X77429666Y-70333195D02*
X77429666Y-70523671D01*
X77429666Y-70523671D02*
X77405857Y-70571290D01*
X77405857Y-70571290D02*
X77382047Y-70595100D01*
X77382047Y-70595100D02*
X77334428Y-70618909D01*
X77334428Y-70618909D02*
X77239190Y-70618909D01*
X77239190Y-70618909D02*
X77191571Y-70595100D01*
X77191571Y-70595100D02*
X77167762Y-70571290D01*
X77167762Y-70571290D02*
X77143952Y-70523671D01*
X77143952Y-70523671D02*
X77143952Y-70404623D01*
X77143952Y-70404623D02*
X77167762Y-70357004D01*
X77167762Y-70357004D02*
X77191571Y-70333195D01*
X77191571Y-70333195D02*
X77239190Y-70309385D01*
X77239190Y-70309385D02*
X77334428Y-70309385D01*
X77334428Y-70309385D02*
X77382047Y-70333195D01*
X77382047Y-70333195D02*
X77405857Y-70357004D01*
X77405857Y-70357004D02*
X77429666Y-70404623D01*
X88376923Y-66608890D02*
X88400732Y-66632700D01*
X88400732Y-66632700D02*
X88472161Y-66656509D01*
X88472161Y-66656509D02*
X88519780Y-66656509D01*
X88519780Y-66656509D02*
X88591208Y-66632700D01*
X88591208Y-66632700D02*
X88638827Y-66585080D01*
X88638827Y-66585080D02*
X88662637Y-66537461D01*
X88662637Y-66537461D02*
X88686446Y-66442223D01*
X88686446Y-66442223D02*
X88686446Y-66370795D01*
X88686446Y-66370795D02*
X88662637Y-66275557D01*
X88662637Y-66275557D02*
X88638827Y-66227938D01*
X88638827Y-66227938D02*
X88591208Y-66180319D01*
X88591208Y-66180319D02*
X88519780Y-66156509D01*
X88519780Y-66156509D02*
X88472161Y-66156509D01*
X88472161Y-66156509D02*
X88400732Y-66180319D01*
X88400732Y-66180319D02*
X88376923Y-66204128D01*
X88186446Y-66204128D02*
X88162637Y-66180319D01*
X88162637Y-66180319D02*
X88115018Y-66156509D01*
X88115018Y-66156509D02*
X87995970Y-66156509D01*
X87995970Y-66156509D02*
X87948351Y-66180319D01*
X87948351Y-66180319D02*
X87924542Y-66204128D01*
X87924542Y-66204128D02*
X87900732Y-66251747D01*
X87900732Y-66251747D02*
X87900732Y-66299366D01*
X87900732Y-66299366D02*
X87924542Y-66370795D01*
X87924542Y-66370795D02*
X88210256Y-66656509D01*
X88210256Y-66656509D02*
X87900732Y-66656509D01*
X87591209Y-66156509D02*
X87543590Y-66156509D01*
X87543590Y-66156509D02*
X87495971Y-66180319D01*
X87495971Y-66180319D02*
X87472161Y-66204128D01*
X87472161Y-66204128D02*
X87448352Y-66251747D01*
X87448352Y-66251747D02*
X87424542Y-66346985D01*
X87424542Y-66346985D02*
X87424542Y-66466033D01*
X87424542Y-66466033D02*
X87448352Y-66561271D01*
X87448352Y-66561271D02*
X87472161Y-66608890D01*
X87472161Y-66608890D02*
X87495971Y-66632700D01*
X87495971Y-66632700D02*
X87543590Y-66656509D01*
X87543590Y-66656509D02*
X87591209Y-66656509D01*
X87591209Y-66656509D02*
X87638828Y-66632700D01*
X87638828Y-66632700D02*
X87662637Y-66608890D01*
X87662637Y-66608890D02*
X87686447Y-66561271D01*
X87686447Y-66561271D02*
X87710256Y-66466033D01*
X87710256Y-66466033D02*
X87710256Y-66346985D01*
X87710256Y-66346985D02*
X87686447Y-66251747D01*
X87686447Y-66251747D02*
X87662637Y-66204128D01*
X87662637Y-66204128D02*
X87638828Y-66180319D01*
X87638828Y-66180319D02*
X87591209Y-66156509D01*
X86972162Y-66156509D02*
X87210257Y-66156509D01*
X87210257Y-66156509D02*
X87234066Y-66394604D01*
X87234066Y-66394604D02*
X87210257Y-66370795D01*
X87210257Y-66370795D02*
X87162638Y-66346985D01*
X87162638Y-66346985D02*
X87043590Y-66346985D01*
X87043590Y-66346985D02*
X86995971Y-66370795D01*
X86995971Y-66370795D02*
X86972162Y-66394604D01*
X86972162Y-66394604D02*
X86948352Y-66442223D01*
X86948352Y-66442223D02*
X86948352Y-66561271D01*
X86948352Y-66561271D02*
X86972162Y-66608890D01*
X86972162Y-66608890D02*
X86995971Y-66632700D01*
X86995971Y-66632700D02*
X87043590Y-66656509D01*
X87043590Y-66656509D02*
X87162638Y-66656509D01*
X87162638Y-66656509D02*
X87210257Y-66632700D01*
X87210257Y-66632700D02*
X87234066Y-66608890D01*
X97647923Y-74914690D02*
X97671732Y-74938500D01*
X97671732Y-74938500D02*
X97743161Y-74962309D01*
X97743161Y-74962309D02*
X97790780Y-74962309D01*
X97790780Y-74962309D02*
X97862208Y-74938500D01*
X97862208Y-74938500D02*
X97909827Y-74890880D01*
X97909827Y-74890880D02*
X97933637Y-74843261D01*
X97933637Y-74843261D02*
X97957446Y-74748023D01*
X97957446Y-74748023D02*
X97957446Y-74676595D01*
X97957446Y-74676595D02*
X97933637Y-74581357D01*
X97933637Y-74581357D02*
X97909827Y-74533738D01*
X97909827Y-74533738D02*
X97862208Y-74486119D01*
X97862208Y-74486119D02*
X97790780Y-74462309D01*
X97790780Y-74462309D02*
X97743161Y-74462309D01*
X97743161Y-74462309D02*
X97671732Y-74486119D01*
X97671732Y-74486119D02*
X97647923Y-74509928D01*
X97481256Y-74462309D02*
X97171732Y-74462309D01*
X97171732Y-74462309D02*
X97338399Y-74652785D01*
X97338399Y-74652785D02*
X97266970Y-74652785D01*
X97266970Y-74652785D02*
X97219351Y-74676595D01*
X97219351Y-74676595D02*
X97195542Y-74700404D01*
X97195542Y-74700404D02*
X97171732Y-74748023D01*
X97171732Y-74748023D02*
X97171732Y-74867071D01*
X97171732Y-74867071D02*
X97195542Y-74914690D01*
X97195542Y-74914690D02*
X97219351Y-74938500D01*
X97219351Y-74938500D02*
X97266970Y-74962309D01*
X97266970Y-74962309D02*
X97409827Y-74962309D01*
X97409827Y-74962309D02*
X97457446Y-74938500D01*
X97457446Y-74938500D02*
X97481256Y-74914690D01*
X96695542Y-74962309D02*
X96981256Y-74962309D01*
X96838399Y-74962309D02*
X96838399Y-74462309D01*
X96838399Y-74462309D02*
X96886018Y-74533738D01*
X96886018Y-74533738D02*
X96933637Y-74581357D01*
X96933637Y-74581357D02*
X96981256Y-74605166D01*
X96505066Y-74509928D02*
X96481257Y-74486119D01*
X96481257Y-74486119D02*
X96433638Y-74462309D01*
X96433638Y-74462309D02*
X96314590Y-74462309D01*
X96314590Y-74462309D02*
X96266971Y-74486119D01*
X96266971Y-74486119D02*
X96243162Y-74509928D01*
X96243162Y-74509928D02*
X96219352Y-74557547D01*
X96219352Y-74557547D02*
X96219352Y-74605166D01*
X96219352Y-74605166D02*
X96243162Y-74676595D01*
X96243162Y-74676595D02*
X96528876Y-74962309D01*
X96528876Y-74962309D02*
X96219352Y-74962309D01*
X100518123Y-73898690D02*
X100541932Y-73922500D01*
X100541932Y-73922500D02*
X100613361Y-73946309D01*
X100613361Y-73946309D02*
X100660980Y-73946309D01*
X100660980Y-73946309D02*
X100732408Y-73922500D01*
X100732408Y-73922500D02*
X100780027Y-73874880D01*
X100780027Y-73874880D02*
X100803837Y-73827261D01*
X100803837Y-73827261D02*
X100827646Y-73732023D01*
X100827646Y-73732023D02*
X100827646Y-73660595D01*
X100827646Y-73660595D02*
X100803837Y-73565357D01*
X100803837Y-73565357D02*
X100780027Y-73517738D01*
X100780027Y-73517738D02*
X100732408Y-73470119D01*
X100732408Y-73470119D02*
X100660980Y-73446309D01*
X100660980Y-73446309D02*
X100613361Y-73446309D01*
X100613361Y-73446309D02*
X100541932Y-73470119D01*
X100541932Y-73470119D02*
X100518123Y-73493928D01*
X100351456Y-73446309D02*
X100041932Y-73446309D01*
X100041932Y-73446309D02*
X100208599Y-73636785D01*
X100208599Y-73636785D02*
X100137170Y-73636785D01*
X100137170Y-73636785D02*
X100089551Y-73660595D01*
X100089551Y-73660595D02*
X100065742Y-73684404D01*
X100065742Y-73684404D02*
X100041932Y-73732023D01*
X100041932Y-73732023D02*
X100041932Y-73851071D01*
X100041932Y-73851071D02*
X100065742Y-73898690D01*
X100065742Y-73898690D02*
X100089551Y-73922500D01*
X100089551Y-73922500D02*
X100137170Y-73946309D01*
X100137170Y-73946309D02*
X100280027Y-73946309D01*
X100280027Y-73946309D02*
X100327646Y-73922500D01*
X100327646Y-73922500D02*
X100351456Y-73898690D01*
X99732409Y-73446309D02*
X99684790Y-73446309D01*
X99684790Y-73446309D02*
X99637171Y-73470119D01*
X99637171Y-73470119D02*
X99613361Y-73493928D01*
X99613361Y-73493928D02*
X99589552Y-73541547D01*
X99589552Y-73541547D02*
X99565742Y-73636785D01*
X99565742Y-73636785D02*
X99565742Y-73755833D01*
X99565742Y-73755833D02*
X99589552Y-73851071D01*
X99589552Y-73851071D02*
X99613361Y-73898690D01*
X99613361Y-73898690D02*
X99637171Y-73922500D01*
X99637171Y-73922500D02*
X99684790Y-73946309D01*
X99684790Y-73946309D02*
X99732409Y-73946309D01*
X99732409Y-73946309D02*
X99780028Y-73922500D01*
X99780028Y-73922500D02*
X99803837Y-73898690D01*
X99803837Y-73898690D02*
X99827647Y-73851071D01*
X99827647Y-73851071D02*
X99851456Y-73755833D01*
X99851456Y-73755833D02*
X99851456Y-73636785D01*
X99851456Y-73636785D02*
X99827647Y-73541547D01*
X99827647Y-73541547D02*
X99803837Y-73493928D01*
X99803837Y-73493928D02*
X99780028Y-73470119D01*
X99780028Y-73470119D02*
X99732409Y-73446309D01*
X99280028Y-73660595D02*
X99327647Y-73636785D01*
X99327647Y-73636785D02*
X99351457Y-73612976D01*
X99351457Y-73612976D02*
X99375266Y-73565357D01*
X99375266Y-73565357D02*
X99375266Y-73541547D01*
X99375266Y-73541547D02*
X99351457Y-73493928D01*
X99351457Y-73493928D02*
X99327647Y-73470119D01*
X99327647Y-73470119D02*
X99280028Y-73446309D01*
X99280028Y-73446309D02*
X99184790Y-73446309D01*
X99184790Y-73446309D02*
X99137171Y-73470119D01*
X99137171Y-73470119D02*
X99113362Y-73493928D01*
X99113362Y-73493928D02*
X99089552Y-73541547D01*
X99089552Y-73541547D02*
X99089552Y-73565357D01*
X99089552Y-73565357D02*
X99113362Y-73612976D01*
X99113362Y-73612976D02*
X99137171Y-73636785D01*
X99137171Y-73636785D02*
X99184790Y-73660595D01*
X99184790Y-73660595D02*
X99280028Y-73660595D01*
X99280028Y-73660595D02*
X99327647Y-73684404D01*
X99327647Y-73684404D02*
X99351457Y-73708214D01*
X99351457Y-73708214D02*
X99375266Y-73755833D01*
X99375266Y-73755833D02*
X99375266Y-73851071D01*
X99375266Y-73851071D02*
X99351457Y-73898690D01*
X99351457Y-73898690D02*
X99327647Y-73922500D01*
X99327647Y-73922500D02*
X99280028Y-73946309D01*
X99280028Y-73946309D02*
X99184790Y-73946309D01*
X99184790Y-73946309D02*
X99137171Y-73922500D01*
X99137171Y-73922500D02*
X99113362Y-73898690D01*
X99113362Y-73898690D02*
X99089552Y-73851071D01*
X99089552Y-73851071D02*
X99089552Y-73755833D01*
X99089552Y-73755833D02*
X99113362Y-73708214D01*
X99113362Y-73708214D02*
X99137171Y-73684404D01*
X99137171Y-73684404D02*
X99184790Y-73660595D01*
X104734490Y-70747676D02*
X104758300Y-70723867D01*
X104758300Y-70723867D02*
X104782109Y-70652438D01*
X104782109Y-70652438D02*
X104782109Y-70604819D01*
X104782109Y-70604819D02*
X104758300Y-70533391D01*
X104758300Y-70533391D02*
X104710680Y-70485772D01*
X104710680Y-70485772D02*
X104663061Y-70461962D01*
X104663061Y-70461962D02*
X104567823Y-70438153D01*
X104567823Y-70438153D02*
X104496395Y-70438153D01*
X104496395Y-70438153D02*
X104401157Y-70461962D01*
X104401157Y-70461962D02*
X104353538Y-70485772D01*
X104353538Y-70485772D02*
X104305919Y-70533391D01*
X104305919Y-70533391D02*
X104282109Y-70604819D01*
X104282109Y-70604819D02*
X104282109Y-70652438D01*
X104282109Y-70652438D02*
X104305919Y-70723867D01*
X104305919Y-70723867D02*
X104329728Y-70747676D01*
X104282109Y-70914343D02*
X104282109Y-71223867D01*
X104282109Y-71223867D02*
X104472585Y-71057200D01*
X104472585Y-71057200D02*
X104472585Y-71128629D01*
X104472585Y-71128629D02*
X104496395Y-71176248D01*
X104496395Y-71176248D02*
X104520204Y-71200057D01*
X104520204Y-71200057D02*
X104567823Y-71223867D01*
X104567823Y-71223867D02*
X104686871Y-71223867D01*
X104686871Y-71223867D02*
X104734490Y-71200057D01*
X104734490Y-71200057D02*
X104758300Y-71176248D01*
X104758300Y-71176248D02*
X104782109Y-71128629D01*
X104782109Y-71128629D02*
X104782109Y-70985772D01*
X104782109Y-70985772D02*
X104758300Y-70938153D01*
X104758300Y-70938153D02*
X104734490Y-70914343D01*
X104782109Y-71700057D02*
X104782109Y-71414343D01*
X104782109Y-71557200D02*
X104282109Y-71557200D01*
X104282109Y-71557200D02*
X104353538Y-71509581D01*
X104353538Y-71509581D02*
X104401157Y-71461962D01*
X104401157Y-71461962D02*
X104424966Y-71414343D01*
X104448776Y-72128628D02*
X104782109Y-72128628D01*
X104258300Y-72009580D02*
X104615442Y-71890533D01*
X104615442Y-71890533D02*
X104615442Y-72200056D01*
X93787123Y-73568490D02*
X93810932Y-73592300D01*
X93810932Y-73592300D02*
X93882361Y-73616109D01*
X93882361Y-73616109D02*
X93929980Y-73616109D01*
X93929980Y-73616109D02*
X94001408Y-73592300D01*
X94001408Y-73592300D02*
X94049027Y-73544680D01*
X94049027Y-73544680D02*
X94072837Y-73497061D01*
X94072837Y-73497061D02*
X94096646Y-73401823D01*
X94096646Y-73401823D02*
X94096646Y-73330395D01*
X94096646Y-73330395D02*
X94072837Y-73235157D01*
X94072837Y-73235157D02*
X94049027Y-73187538D01*
X94049027Y-73187538D02*
X94001408Y-73139919D01*
X94001408Y-73139919D02*
X93929980Y-73116109D01*
X93929980Y-73116109D02*
X93882361Y-73116109D01*
X93882361Y-73116109D02*
X93810932Y-73139919D01*
X93810932Y-73139919D02*
X93787123Y-73163728D01*
X93620456Y-73116109D02*
X93310932Y-73116109D01*
X93310932Y-73116109D02*
X93477599Y-73306585D01*
X93477599Y-73306585D02*
X93406170Y-73306585D01*
X93406170Y-73306585D02*
X93358551Y-73330395D01*
X93358551Y-73330395D02*
X93334742Y-73354204D01*
X93334742Y-73354204D02*
X93310932Y-73401823D01*
X93310932Y-73401823D02*
X93310932Y-73520871D01*
X93310932Y-73520871D02*
X93334742Y-73568490D01*
X93334742Y-73568490D02*
X93358551Y-73592300D01*
X93358551Y-73592300D02*
X93406170Y-73616109D01*
X93406170Y-73616109D02*
X93549027Y-73616109D01*
X93549027Y-73616109D02*
X93596646Y-73592300D01*
X93596646Y-73592300D02*
X93620456Y-73568490D01*
X93001409Y-73116109D02*
X92953790Y-73116109D01*
X92953790Y-73116109D02*
X92906171Y-73139919D01*
X92906171Y-73139919D02*
X92882361Y-73163728D01*
X92882361Y-73163728D02*
X92858552Y-73211347D01*
X92858552Y-73211347D02*
X92834742Y-73306585D01*
X92834742Y-73306585D02*
X92834742Y-73425633D01*
X92834742Y-73425633D02*
X92858552Y-73520871D01*
X92858552Y-73520871D02*
X92882361Y-73568490D01*
X92882361Y-73568490D02*
X92906171Y-73592300D01*
X92906171Y-73592300D02*
X92953790Y-73616109D01*
X92953790Y-73616109D02*
X93001409Y-73616109D01*
X93001409Y-73616109D02*
X93049028Y-73592300D01*
X93049028Y-73592300D02*
X93072837Y-73568490D01*
X93072837Y-73568490D02*
X93096647Y-73520871D01*
X93096647Y-73520871D02*
X93120456Y-73425633D01*
X93120456Y-73425633D02*
X93120456Y-73306585D01*
X93120456Y-73306585D02*
X93096647Y-73211347D01*
X93096647Y-73211347D02*
X93072837Y-73163728D01*
X93072837Y-73163728D02*
X93049028Y-73139919D01*
X93049028Y-73139919D02*
X93001409Y-73116109D01*
X92406171Y-73116109D02*
X92501409Y-73116109D01*
X92501409Y-73116109D02*
X92549028Y-73139919D01*
X92549028Y-73139919D02*
X92572838Y-73163728D01*
X92572838Y-73163728D02*
X92620457Y-73235157D01*
X92620457Y-73235157D02*
X92644266Y-73330395D01*
X92644266Y-73330395D02*
X92644266Y-73520871D01*
X92644266Y-73520871D02*
X92620457Y-73568490D01*
X92620457Y-73568490D02*
X92596647Y-73592300D01*
X92596647Y-73592300D02*
X92549028Y-73616109D01*
X92549028Y-73616109D02*
X92453790Y-73616109D01*
X92453790Y-73616109D02*
X92406171Y-73592300D01*
X92406171Y-73592300D02*
X92382362Y-73568490D01*
X92382362Y-73568490D02*
X92358552Y-73520871D01*
X92358552Y-73520871D02*
X92358552Y-73401823D01*
X92358552Y-73401823D02*
X92382362Y-73354204D01*
X92382362Y-73354204D02*
X92406171Y-73330395D01*
X92406171Y-73330395D02*
X92453790Y-73306585D01*
X92453790Y-73306585D02*
X92549028Y-73306585D01*
X92549028Y-73306585D02*
X92596647Y-73330395D01*
X92596647Y-73330395D02*
X92620457Y-73354204D01*
X92620457Y-73354204D02*
X92644266Y-73401823D01*
X89103923Y-68428290D02*
X89127732Y-68452100D01*
X89127732Y-68452100D02*
X89199161Y-68475909D01*
X89199161Y-68475909D02*
X89246780Y-68475909D01*
X89246780Y-68475909D02*
X89318208Y-68452100D01*
X89318208Y-68452100D02*
X89365827Y-68404480D01*
X89365827Y-68404480D02*
X89389637Y-68356861D01*
X89389637Y-68356861D02*
X89413446Y-68261623D01*
X89413446Y-68261623D02*
X89413446Y-68190195D01*
X89413446Y-68190195D02*
X89389637Y-68094957D01*
X89389637Y-68094957D02*
X89365827Y-68047338D01*
X89365827Y-68047338D02*
X89318208Y-67999719D01*
X89318208Y-67999719D02*
X89246780Y-67975909D01*
X89246780Y-67975909D02*
X89199161Y-67975909D01*
X89199161Y-67975909D02*
X89127732Y-67999719D01*
X89127732Y-67999719D02*
X89103923Y-68023528D01*
X88913446Y-68023528D02*
X88889637Y-67999719D01*
X88889637Y-67999719D02*
X88842018Y-67975909D01*
X88842018Y-67975909D02*
X88722970Y-67975909D01*
X88722970Y-67975909D02*
X88675351Y-67999719D01*
X88675351Y-67999719D02*
X88651542Y-68023528D01*
X88651542Y-68023528D02*
X88627732Y-68071147D01*
X88627732Y-68071147D02*
X88627732Y-68118766D01*
X88627732Y-68118766D02*
X88651542Y-68190195D01*
X88651542Y-68190195D02*
X88937256Y-68475909D01*
X88937256Y-68475909D02*
X88627732Y-68475909D01*
X88151542Y-68475909D02*
X88437256Y-68475909D01*
X88294399Y-68475909D02*
X88294399Y-67975909D01*
X88294399Y-67975909D02*
X88342018Y-68047338D01*
X88342018Y-68047338D02*
X88389637Y-68094957D01*
X88389637Y-68094957D02*
X88437256Y-68118766D01*
X87913447Y-68475909D02*
X87818209Y-68475909D01*
X87818209Y-68475909D02*
X87770590Y-68452100D01*
X87770590Y-68452100D02*
X87746781Y-68428290D01*
X87746781Y-68428290D02*
X87699162Y-68356861D01*
X87699162Y-68356861D02*
X87675352Y-68261623D01*
X87675352Y-68261623D02*
X87675352Y-68071147D01*
X87675352Y-68071147D02*
X87699162Y-68023528D01*
X87699162Y-68023528D02*
X87722971Y-67999719D01*
X87722971Y-67999719D02*
X87770590Y-67975909D01*
X87770590Y-67975909D02*
X87865828Y-67975909D01*
X87865828Y-67975909D02*
X87913447Y-67999719D01*
X87913447Y-67999719D02*
X87937257Y-68023528D01*
X87937257Y-68023528D02*
X87961066Y-68071147D01*
X87961066Y-68071147D02*
X87961066Y-68190195D01*
X87961066Y-68190195D02*
X87937257Y-68237814D01*
X87937257Y-68237814D02*
X87913447Y-68261623D01*
X87913447Y-68261623D02*
X87865828Y-68285433D01*
X87865828Y-68285433D02*
X87770590Y-68285433D01*
X87770590Y-68285433D02*
X87722971Y-68261623D01*
X87722971Y-68261623D02*
X87699162Y-68237814D01*
X87699162Y-68237814D02*
X87675352Y-68190195D01*
X83566690Y-66674276D02*
X83590500Y-66650467D01*
X83590500Y-66650467D02*
X83614309Y-66579038D01*
X83614309Y-66579038D02*
X83614309Y-66531419D01*
X83614309Y-66531419D02*
X83590500Y-66459991D01*
X83590500Y-66459991D02*
X83542880Y-66412372D01*
X83542880Y-66412372D02*
X83495261Y-66388562D01*
X83495261Y-66388562D02*
X83400023Y-66364753D01*
X83400023Y-66364753D02*
X83328595Y-66364753D01*
X83328595Y-66364753D02*
X83233357Y-66388562D01*
X83233357Y-66388562D02*
X83185738Y-66412372D01*
X83185738Y-66412372D02*
X83138119Y-66459991D01*
X83138119Y-66459991D02*
X83114309Y-66531419D01*
X83114309Y-66531419D02*
X83114309Y-66579038D01*
X83114309Y-66579038D02*
X83138119Y-66650467D01*
X83138119Y-66650467D02*
X83161928Y-66674276D01*
X83161928Y-66864753D02*
X83138119Y-66888562D01*
X83138119Y-66888562D02*
X83114309Y-66936181D01*
X83114309Y-66936181D02*
X83114309Y-67055229D01*
X83114309Y-67055229D02*
X83138119Y-67102848D01*
X83138119Y-67102848D02*
X83161928Y-67126657D01*
X83161928Y-67126657D02*
X83209547Y-67150467D01*
X83209547Y-67150467D02*
X83257166Y-67150467D01*
X83257166Y-67150467D02*
X83328595Y-67126657D01*
X83328595Y-67126657D02*
X83614309Y-66840943D01*
X83614309Y-66840943D02*
X83614309Y-67150467D01*
X83114309Y-67459990D02*
X83114309Y-67507609D01*
X83114309Y-67507609D02*
X83138119Y-67555228D01*
X83138119Y-67555228D02*
X83161928Y-67579038D01*
X83161928Y-67579038D02*
X83209547Y-67602847D01*
X83209547Y-67602847D02*
X83304785Y-67626657D01*
X83304785Y-67626657D02*
X83423833Y-67626657D01*
X83423833Y-67626657D02*
X83519071Y-67602847D01*
X83519071Y-67602847D02*
X83566690Y-67579038D01*
X83566690Y-67579038D02*
X83590500Y-67555228D01*
X83590500Y-67555228D02*
X83614309Y-67507609D01*
X83614309Y-67507609D02*
X83614309Y-67459990D01*
X83614309Y-67459990D02*
X83590500Y-67412371D01*
X83590500Y-67412371D02*
X83566690Y-67388562D01*
X83566690Y-67388562D02*
X83519071Y-67364752D01*
X83519071Y-67364752D02*
X83423833Y-67340943D01*
X83423833Y-67340943D02*
X83304785Y-67340943D01*
X83304785Y-67340943D02*
X83209547Y-67364752D01*
X83209547Y-67364752D02*
X83161928Y-67388562D01*
X83161928Y-67388562D02*
X83138119Y-67412371D01*
X83138119Y-67412371D02*
X83114309Y-67459990D01*
X83614309Y-67864752D02*
X83614309Y-67959990D01*
X83614309Y-67959990D02*
X83590500Y-68007609D01*
X83590500Y-68007609D02*
X83566690Y-68031418D01*
X83566690Y-68031418D02*
X83495261Y-68079037D01*
X83495261Y-68079037D02*
X83400023Y-68102847D01*
X83400023Y-68102847D02*
X83209547Y-68102847D01*
X83209547Y-68102847D02*
X83161928Y-68079037D01*
X83161928Y-68079037D02*
X83138119Y-68055228D01*
X83138119Y-68055228D02*
X83114309Y-68007609D01*
X83114309Y-68007609D02*
X83114309Y-67912371D01*
X83114309Y-67912371D02*
X83138119Y-67864752D01*
X83138119Y-67864752D02*
X83161928Y-67840942D01*
X83161928Y-67840942D02*
X83209547Y-67817133D01*
X83209547Y-67817133D02*
X83328595Y-67817133D01*
X83328595Y-67817133D02*
X83376214Y-67840942D01*
X83376214Y-67840942D02*
X83400023Y-67864752D01*
X83400023Y-67864752D02*
X83423833Y-67912371D01*
X83423833Y-67912371D02*
X83423833Y-68007609D01*
X83423833Y-68007609D02*
X83400023Y-68055228D01*
X83400023Y-68055228D02*
X83376214Y-68079037D01*
X83376214Y-68079037D02*
X83328595Y-68102847D01*
X80452123Y-72273090D02*
X80475932Y-72296900D01*
X80475932Y-72296900D02*
X80547361Y-72320709D01*
X80547361Y-72320709D02*
X80594980Y-72320709D01*
X80594980Y-72320709D02*
X80666408Y-72296900D01*
X80666408Y-72296900D02*
X80714027Y-72249280D01*
X80714027Y-72249280D02*
X80737837Y-72201661D01*
X80737837Y-72201661D02*
X80761646Y-72106423D01*
X80761646Y-72106423D02*
X80761646Y-72034995D01*
X80761646Y-72034995D02*
X80737837Y-71939757D01*
X80737837Y-71939757D02*
X80714027Y-71892138D01*
X80714027Y-71892138D02*
X80666408Y-71844519D01*
X80666408Y-71844519D02*
X80594980Y-71820709D01*
X80594980Y-71820709D02*
X80547361Y-71820709D01*
X80547361Y-71820709D02*
X80475932Y-71844519D01*
X80475932Y-71844519D02*
X80452123Y-71868328D01*
X80261646Y-71868328D02*
X80237837Y-71844519D01*
X80237837Y-71844519D02*
X80190218Y-71820709D01*
X80190218Y-71820709D02*
X80071170Y-71820709D01*
X80071170Y-71820709D02*
X80023551Y-71844519D01*
X80023551Y-71844519D02*
X79999742Y-71868328D01*
X79999742Y-71868328D02*
X79975932Y-71915947D01*
X79975932Y-71915947D02*
X79975932Y-71963566D01*
X79975932Y-71963566D02*
X79999742Y-72034995D01*
X79999742Y-72034995D02*
X80285456Y-72320709D01*
X80285456Y-72320709D02*
X79975932Y-72320709D01*
X79785456Y-71868328D02*
X79761647Y-71844519D01*
X79761647Y-71844519D02*
X79714028Y-71820709D01*
X79714028Y-71820709D02*
X79594980Y-71820709D01*
X79594980Y-71820709D02*
X79547361Y-71844519D01*
X79547361Y-71844519D02*
X79523552Y-71868328D01*
X79523552Y-71868328D02*
X79499742Y-71915947D01*
X79499742Y-71915947D02*
X79499742Y-71963566D01*
X79499742Y-71963566D02*
X79523552Y-72034995D01*
X79523552Y-72034995D02*
X79809266Y-72320709D01*
X79809266Y-72320709D02*
X79499742Y-72320709D01*
X79190219Y-71820709D02*
X79142600Y-71820709D01*
X79142600Y-71820709D02*
X79094981Y-71844519D01*
X79094981Y-71844519D02*
X79071171Y-71868328D01*
X79071171Y-71868328D02*
X79047362Y-71915947D01*
X79047362Y-71915947D02*
X79023552Y-72011185D01*
X79023552Y-72011185D02*
X79023552Y-72130233D01*
X79023552Y-72130233D02*
X79047362Y-72225471D01*
X79047362Y-72225471D02*
X79071171Y-72273090D01*
X79071171Y-72273090D02*
X79094981Y-72296900D01*
X79094981Y-72296900D02*
X79142600Y-72320709D01*
X79142600Y-72320709D02*
X79190219Y-72320709D01*
X79190219Y-72320709D02*
X79237838Y-72296900D01*
X79237838Y-72296900D02*
X79261647Y-72273090D01*
X79261647Y-72273090D02*
X79285457Y-72225471D01*
X79285457Y-72225471D02*
X79309266Y-72130233D01*
X79309266Y-72130233D02*
X79309266Y-72011185D01*
X79309266Y-72011185D02*
X79285457Y-71915947D01*
X79285457Y-71915947D02*
X79261647Y-71868328D01*
X79261647Y-71868328D02*
X79237838Y-71844519D01*
X79237838Y-71844519D02*
X79190219Y-71820709D01*
X80325123Y-74482890D02*
X80348932Y-74506700D01*
X80348932Y-74506700D02*
X80420361Y-74530509D01*
X80420361Y-74530509D02*
X80467980Y-74530509D01*
X80467980Y-74530509D02*
X80539408Y-74506700D01*
X80539408Y-74506700D02*
X80587027Y-74459080D01*
X80587027Y-74459080D02*
X80610837Y-74411461D01*
X80610837Y-74411461D02*
X80634646Y-74316223D01*
X80634646Y-74316223D02*
X80634646Y-74244795D01*
X80634646Y-74244795D02*
X80610837Y-74149557D01*
X80610837Y-74149557D02*
X80587027Y-74101938D01*
X80587027Y-74101938D02*
X80539408Y-74054319D01*
X80539408Y-74054319D02*
X80467980Y-74030509D01*
X80467980Y-74030509D02*
X80420361Y-74030509D01*
X80420361Y-74030509D02*
X80348932Y-74054319D01*
X80348932Y-74054319D02*
X80325123Y-74078128D01*
X80134646Y-74078128D02*
X80110837Y-74054319D01*
X80110837Y-74054319D02*
X80063218Y-74030509D01*
X80063218Y-74030509D02*
X79944170Y-74030509D01*
X79944170Y-74030509D02*
X79896551Y-74054319D01*
X79896551Y-74054319D02*
X79872742Y-74078128D01*
X79872742Y-74078128D02*
X79848932Y-74125747D01*
X79848932Y-74125747D02*
X79848932Y-74173366D01*
X79848932Y-74173366D02*
X79872742Y-74244795D01*
X79872742Y-74244795D02*
X80158456Y-74530509D01*
X80158456Y-74530509D02*
X79848932Y-74530509D01*
X79682266Y-74030509D02*
X79372742Y-74030509D01*
X79372742Y-74030509D02*
X79539409Y-74220985D01*
X79539409Y-74220985D02*
X79467980Y-74220985D01*
X79467980Y-74220985D02*
X79420361Y-74244795D01*
X79420361Y-74244795D02*
X79396552Y-74268604D01*
X79396552Y-74268604D02*
X79372742Y-74316223D01*
X79372742Y-74316223D02*
X79372742Y-74435271D01*
X79372742Y-74435271D02*
X79396552Y-74482890D01*
X79396552Y-74482890D02*
X79420361Y-74506700D01*
X79420361Y-74506700D02*
X79467980Y-74530509D01*
X79467980Y-74530509D02*
X79610837Y-74530509D01*
X79610837Y-74530509D02*
X79658456Y-74506700D01*
X79658456Y-74506700D02*
X79682266Y-74482890D01*
X79182266Y-74078128D02*
X79158457Y-74054319D01*
X79158457Y-74054319D02*
X79110838Y-74030509D01*
X79110838Y-74030509D02*
X78991790Y-74030509D01*
X78991790Y-74030509D02*
X78944171Y-74054319D01*
X78944171Y-74054319D02*
X78920362Y-74078128D01*
X78920362Y-74078128D02*
X78896552Y-74125747D01*
X78896552Y-74125747D02*
X78896552Y-74173366D01*
X78896552Y-74173366D02*
X78920362Y-74244795D01*
X78920362Y-74244795D02*
X79206076Y-74530509D01*
X79206076Y-74530509D02*
X78896552Y-74530509D01*
X85141523Y-74752890D02*
X85165332Y-74776700D01*
X85165332Y-74776700D02*
X85236761Y-74800509D01*
X85236761Y-74800509D02*
X85284380Y-74800509D01*
X85284380Y-74800509D02*
X85355808Y-74776700D01*
X85355808Y-74776700D02*
X85403427Y-74729080D01*
X85403427Y-74729080D02*
X85427237Y-74681461D01*
X85427237Y-74681461D02*
X85451046Y-74586223D01*
X85451046Y-74586223D02*
X85451046Y-74514795D01*
X85451046Y-74514795D02*
X85427237Y-74419557D01*
X85427237Y-74419557D02*
X85403427Y-74371938D01*
X85403427Y-74371938D02*
X85355808Y-74324319D01*
X85355808Y-74324319D02*
X85284380Y-74300509D01*
X85284380Y-74300509D02*
X85236761Y-74300509D01*
X85236761Y-74300509D02*
X85165332Y-74324319D01*
X85165332Y-74324319D02*
X85141523Y-74348128D01*
X84951046Y-74348128D02*
X84927237Y-74324319D01*
X84927237Y-74324319D02*
X84879618Y-74300509D01*
X84879618Y-74300509D02*
X84760570Y-74300509D01*
X84760570Y-74300509D02*
X84712951Y-74324319D01*
X84712951Y-74324319D02*
X84689142Y-74348128D01*
X84689142Y-74348128D02*
X84665332Y-74395747D01*
X84665332Y-74395747D02*
X84665332Y-74443366D01*
X84665332Y-74443366D02*
X84689142Y-74514795D01*
X84689142Y-74514795D02*
X84974856Y-74800509D01*
X84974856Y-74800509D02*
X84665332Y-74800509D01*
X84474856Y-74348128D02*
X84451047Y-74324319D01*
X84451047Y-74324319D02*
X84403428Y-74300509D01*
X84403428Y-74300509D02*
X84284380Y-74300509D01*
X84284380Y-74300509D02*
X84236761Y-74324319D01*
X84236761Y-74324319D02*
X84212952Y-74348128D01*
X84212952Y-74348128D02*
X84189142Y-74395747D01*
X84189142Y-74395747D02*
X84189142Y-74443366D01*
X84189142Y-74443366D02*
X84212952Y-74514795D01*
X84212952Y-74514795D02*
X84498666Y-74800509D01*
X84498666Y-74800509D02*
X84189142Y-74800509D01*
X83903428Y-74514795D02*
X83951047Y-74490985D01*
X83951047Y-74490985D02*
X83974857Y-74467176D01*
X83974857Y-74467176D02*
X83998666Y-74419557D01*
X83998666Y-74419557D02*
X83998666Y-74395747D01*
X83998666Y-74395747D02*
X83974857Y-74348128D01*
X83974857Y-74348128D02*
X83951047Y-74324319D01*
X83951047Y-74324319D02*
X83903428Y-74300509D01*
X83903428Y-74300509D02*
X83808190Y-74300509D01*
X83808190Y-74300509D02*
X83760571Y-74324319D01*
X83760571Y-74324319D02*
X83736762Y-74348128D01*
X83736762Y-74348128D02*
X83712952Y-74395747D01*
X83712952Y-74395747D02*
X83712952Y-74419557D01*
X83712952Y-74419557D02*
X83736762Y-74467176D01*
X83736762Y-74467176D02*
X83760571Y-74490985D01*
X83760571Y-74490985D02*
X83808190Y-74514795D01*
X83808190Y-74514795D02*
X83903428Y-74514795D01*
X83903428Y-74514795D02*
X83951047Y-74538604D01*
X83951047Y-74538604D02*
X83974857Y-74562414D01*
X83974857Y-74562414D02*
X83998666Y-74610033D01*
X83998666Y-74610033D02*
X83998666Y-74705271D01*
X83998666Y-74705271D02*
X83974857Y-74752890D01*
X83974857Y-74752890D02*
X83951047Y-74776700D01*
X83951047Y-74776700D02*
X83903428Y-74800509D01*
X83903428Y-74800509D02*
X83808190Y-74800509D01*
X83808190Y-74800509D02*
X83760571Y-74776700D01*
X83760571Y-74776700D02*
X83736762Y-74752890D01*
X83736762Y-74752890D02*
X83712952Y-74705271D01*
X83712952Y-74705271D02*
X83712952Y-74610033D01*
X83712952Y-74610033D02*
X83736762Y-74562414D01*
X83736762Y-74562414D02*
X83760571Y-74538604D01*
X83760571Y-74538604D02*
X83808190Y-74514795D01*
X83322290Y-73160676D02*
X83346100Y-73136867D01*
X83346100Y-73136867D02*
X83369909Y-73065438D01*
X83369909Y-73065438D02*
X83369909Y-73017819D01*
X83369909Y-73017819D02*
X83346100Y-72946391D01*
X83346100Y-72946391D02*
X83298480Y-72898772D01*
X83298480Y-72898772D02*
X83250861Y-72874962D01*
X83250861Y-72874962D02*
X83155623Y-72851153D01*
X83155623Y-72851153D02*
X83084195Y-72851153D01*
X83084195Y-72851153D02*
X82988957Y-72874962D01*
X82988957Y-72874962D02*
X82941338Y-72898772D01*
X82941338Y-72898772D02*
X82893719Y-72946391D01*
X82893719Y-72946391D02*
X82869909Y-73017819D01*
X82869909Y-73017819D02*
X82869909Y-73065438D01*
X82869909Y-73065438D02*
X82893719Y-73136867D01*
X82893719Y-73136867D02*
X82917528Y-73160676D01*
X82917528Y-73351153D02*
X82893719Y-73374962D01*
X82893719Y-73374962D02*
X82869909Y-73422581D01*
X82869909Y-73422581D02*
X82869909Y-73541629D01*
X82869909Y-73541629D02*
X82893719Y-73589248D01*
X82893719Y-73589248D02*
X82917528Y-73613057D01*
X82917528Y-73613057D02*
X82965147Y-73636867D01*
X82965147Y-73636867D02*
X83012766Y-73636867D01*
X83012766Y-73636867D02*
X83084195Y-73613057D01*
X83084195Y-73613057D02*
X83369909Y-73327343D01*
X83369909Y-73327343D02*
X83369909Y-73636867D01*
X83369909Y-74113057D02*
X83369909Y-73827343D01*
X83369909Y-73970200D02*
X82869909Y-73970200D01*
X82869909Y-73970200D02*
X82941338Y-73922581D01*
X82941338Y-73922581D02*
X82988957Y-73874962D01*
X82988957Y-73874962D02*
X83012766Y-73827343D01*
X82869909Y-74279723D02*
X82869909Y-74613056D01*
X82869909Y-74613056D02*
X83369909Y-74398771D01*
X80426723Y-69606090D02*
X80450532Y-69629900D01*
X80450532Y-69629900D02*
X80521961Y-69653709D01*
X80521961Y-69653709D02*
X80569580Y-69653709D01*
X80569580Y-69653709D02*
X80641008Y-69629900D01*
X80641008Y-69629900D02*
X80688627Y-69582280D01*
X80688627Y-69582280D02*
X80712437Y-69534661D01*
X80712437Y-69534661D02*
X80736246Y-69439423D01*
X80736246Y-69439423D02*
X80736246Y-69367995D01*
X80736246Y-69367995D02*
X80712437Y-69272757D01*
X80712437Y-69272757D02*
X80688627Y-69225138D01*
X80688627Y-69225138D02*
X80641008Y-69177519D01*
X80641008Y-69177519D02*
X80569580Y-69153709D01*
X80569580Y-69153709D02*
X80521961Y-69153709D01*
X80521961Y-69153709D02*
X80450532Y-69177519D01*
X80450532Y-69177519D02*
X80426723Y-69201328D01*
X80236246Y-69201328D02*
X80212437Y-69177519D01*
X80212437Y-69177519D02*
X80164818Y-69153709D01*
X80164818Y-69153709D02*
X80045770Y-69153709D01*
X80045770Y-69153709D02*
X79998151Y-69177519D01*
X79998151Y-69177519D02*
X79974342Y-69201328D01*
X79974342Y-69201328D02*
X79950532Y-69248947D01*
X79950532Y-69248947D02*
X79950532Y-69296566D01*
X79950532Y-69296566D02*
X79974342Y-69367995D01*
X79974342Y-69367995D02*
X80260056Y-69653709D01*
X80260056Y-69653709D02*
X79950532Y-69653709D01*
X79760056Y-69201328D02*
X79736247Y-69177519D01*
X79736247Y-69177519D02*
X79688628Y-69153709D01*
X79688628Y-69153709D02*
X79569580Y-69153709D01*
X79569580Y-69153709D02*
X79521961Y-69177519D01*
X79521961Y-69177519D02*
X79498152Y-69201328D01*
X79498152Y-69201328D02*
X79474342Y-69248947D01*
X79474342Y-69248947D02*
X79474342Y-69296566D01*
X79474342Y-69296566D02*
X79498152Y-69367995D01*
X79498152Y-69367995D02*
X79783866Y-69653709D01*
X79783866Y-69653709D02*
X79474342Y-69653709D01*
X79045771Y-69153709D02*
X79141009Y-69153709D01*
X79141009Y-69153709D02*
X79188628Y-69177519D01*
X79188628Y-69177519D02*
X79212438Y-69201328D01*
X79212438Y-69201328D02*
X79260057Y-69272757D01*
X79260057Y-69272757D02*
X79283866Y-69367995D01*
X79283866Y-69367995D02*
X79283866Y-69558471D01*
X79283866Y-69558471D02*
X79260057Y-69606090D01*
X79260057Y-69606090D02*
X79236247Y-69629900D01*
X79236247Y-69629900D02*
X79188628Y-69653709D01*
X79188628Y-69653709D02*
X79093390Y-69653709D01*
X79093390Y-69653709D02*
X79045771Y-69629900D01*
X79045771Y-69629900D02*
X79021962Y-69606090D01*
X79021962Y-69606090D02*
X78998152Y-69558471D01*
X78998152Y-69558471D02*
X78998152Y-69439423D01*
X78998152Y-69439423D02*
X79021962Y-69391804D01*
X79021962Y-69391804D02*
X79045771Y-69367995D01*
X79045771Y-69367995D02*
X79093390Y-69344185D01*
X79093390Y-69344185D02*
X79188628Y-69344185D01*
X79188628Y-69344185D02*
X79236247Y-69367995D01*
X79236247Y-69367995D02*
X79260057Y-69391804D01*
X79260057Y-69391804D02*
X79283866Y-69439423D01*
X78699523Y-73060490D02*
X78723332Y-73084300D01*
X78723332Y-73084300D02*
X78794761Y-73108109D01*
X78794761Y-73108109D02*
X78842380Y-73108109D01*
X78842380Y-73108109D02*
X78913808Y-73084300D01*
X78913808Y-73084300D02*
X78961427Y-73036680D01*
X78961427Y-73036680D02*
X78985237Y-72989061D01*
X78985237Y-72989061D02*
X79009046Y-72893823D01*
X79009046Y-72893823D02*
X79009046Y-72822395D01*
X79009046Y-72822395D02*
X78985237Y-72727157D01*
X78985237Y-72727157D02*
X78961427Y-72679538D01*
X78961427Y-72679538D02*
X78913808Y-72631919D01*
X78913808Y-72631919D02*
X78842380Y-72608109D01*
X78842380Y-72608109D02*
X78794761Y-72608109D01*
X78794761Y-72608109D02*
X78723332Y-72631919D01*
X78723332Y-72631919D02*
X78699523Y-72655728D01*
X78509046Y-72655728D02*
X78485237Y-72631919D01*
X78485237Y-72631919D02*
X78437618Y-72608109D01*
X78437618Y-72608109D02*
X78318570Y-72608109D01*
X78318570Y-72608109D02*
X78270951Y-72631919D01*
X78270951Y-72631919D02*
X78247142Y-72655728D01*
X78247142Y-72655728D02*
X78223332Y-72703347D01*
X78223332Y-72703347D02*
X78223332Y-72750966D01*
X78223332Y-72750966D02*
X78247142Y-72822395D01*
X78247142Y-72822395D02*
X78532856Y-73108109D01*
X78532856Y-73108109D02*
X78223332Y-73108109D01*
X78032856Y-72655728D02*
X78009047Y-72631919D01*
X78009047Y-72631919D02*
X77961428Y-72608109D01*
X77961428Y-72608109D02*
X77842380Y-72608109D01*
X77842380Y-72608109D02*
X77794761Y-72631919D01*
X77794761Y-72631919D02*
X77770952Y-72655728D01*
X77770952Y-72655728D02*
X77747142Y-72703347D01*
X77747142Y-72703347D02*
X77747142Y-72750966D01*
X77747142Y-72750966D02*
X77770952Y-72822395D01*
X77770952Y-72822395D02*
X78056666Y-73108109D01*
X78056666Y-73108109D02*
X77747142Y-73108109D01*
X77580476Y-72608109D02*
X77270952Y-72608109D01*
X77270952Y-72608109D02*
X77437619Y-72798585D01*
X77437619Y-72798585D02*
X77366190Y-72798585D01*
X77366190Y-72798585D02*
X77318571Y-72822395D01*
X77318571Y-72822395D02*
X77294762Y-72846204D01*
X77294762Y-72846204D02*
X77270952Y-72893823D01*
X77270952Y-72893823D02*
X77270952Y-73012871D01*
X77270952Y-73012871D02*
X77294762Y-73060490D01*
X77294762Y-73060490D02*
X77318571Y-73084300D01*
X77318571Y-73084300D02*
X77366190Y-73108109D01*
X77366190Y-73108109D02*
X77509047Y-73108109D01*
X77509047Y-73108109D02*
X77556666Y-73084300D01*
X77556666Y-73084300D02*
X77580476Y-73060490D01*
X102550123Y-75007890D02*
X102573932Y-75031700D01*
X102573932Y-75031700D02*
X102645361Y-75055509D01*
X102645361Y-75055509D02*
X102692980Y-75055509D01*
X102692980Y-75055509D02*
X102764408Y-75031700D01*
X102764408Y-75031700D02*
X102812027Y-74984080D01*
X102812027Y-74984080D02*
X102835837Y-74936461D01*
X102835837Y-74936461D02*
X102859646Y-74841223D01*
X102859646Y-74841223D02*
X102859646Y-74769795D01*
X102859646Y-74769795D02*
X102835837Y-74674557D01*
X102835837Y-74674557D02*
X102812027Y-74626938D01*
X102812027Y-74626938D02*
X102764408Y-74579319D01*
X102764408Y-74579319D02*
X102692980Y-74555509D01*
X102692980Y-74555509D02*
X102645361Y-74555509D01*
X102645361Y-74555509D02*
X102573932Y-74579319D01*
X102573932Y-74579319D02*
X102550123Y-74603128D01*
X102383456Y-74555509D02*
X102073932Y-74555509D01*
X102073932Y-74555509D02*
X102240599Y-74745985D01*
X102240599Y-74745985D02*
X102169170Y-74745985D01*
X102169170Y-74745985D02*
X102121551Y-74769795D01*
X102121551Y-74769795D02*
X102097742Y-74793604D01*
X102097742Y-74793604D02*
X102073932Y-74841223D01*
X102073932Y-74841223D02*
X102073932Y-74960271D01*
X102073932Y-74960271D02*
X102097742Y-75007890D01*
X102097742Y-75007890D02*
X102121551Y-75031700D01*
X102121551Y-75031700D02*
X102169170Y-75055509D01*
X102169170Y-75055509D02*
X102312027Y-75055509D01*
X102312027Y-75055509D02*
X102359646Y-75031700D01*
X102359646Y-75031700D02*
X102383456Y-75007890D01*
X101764409Y-74555509D02*
X101716790Y-74555509D01*
X101716790Y-74555509D02*
X101669171Y-74579319D01*
X101669171Y-74579319D02*
X101645361Y-74603128D01*
X101645361Y-74603128D02*
X101621552Y-74650747D01*
X101621552Y-74650747D02*
X101597742Y-74745985D01*
X101597742Y-74745985D02*
X101597742Y-74865033D01*
X101597742Y-74865033D02*
X101621552Y-74960271D01*
X101621552Y-74960271D02*
X101645361Y-75007890D01*
X101645361Y-75007890D02*
X101669171Y-75031700D01*
X101669171Y-75031700D02*
X101716790Y-75055509D01*
X101716790Y-75055509D02*
X101764409Y-75055509D01*
X101764409Y-75055509D02*
X101812028Y-75031700D01*
X101812028Y-75031700D02*
X101835837Y-75007890D01*
X101835837Y-75007890D02*
X101859647Y-74960271D01*
X101859647Y-74960271D02*
X101883456Y-74865033D01*
X101883456Y-74865033D02*
X101883456Y-74745985D01*
X101883456Y-74745985D02*
X101859647Y-74650747D01*
X101859647Y-74650747D02*
X101835837Y-74603128D01*
X101835837Y-74603128D02*
X101812028Y-74579319D01*
X101812028Y-74579319D02*
X101764409Y-74555509D01*
X101359647Y-75055509D02*
X101264409Y-75055509D01*
X101264409Y-75055509D02*
X101216790Y-75031700D01*
X101216790Y-75031700D02*
X101192981Y-75007890D01*
X101192981Y-75007890D02*
X101145362Y-74936461D01*
X101145362Y-74936461D02*
X101121552Y-74841223D01*
X101121552Y-74841223D02*
X101121552Y-74650747D01*
X101121552Y-74650747D02*
X101145362Y-74603128D01*
X101145362Y-74603128D02*
X101169171Y-74579319D01*
X101169171Y-74579319D02*
X101216790Y-74555509D01*
X101216790Y-74555509D02*
X101312028Y-74555509D01*
X101312028Y-74555509D02*
X101359647Y-74579319D01*
X101359647Y-74579319D02*
X101383457Y-74603128D01*
X101383457Y-74603128D02*
X101407266Y-74650747D01*
X101407266Y-74650747D02*
X101407266Y-74769795D01*
X101407266Y-74769795D02*
X101383457Y-74817414D01*
X101383457Y-74817414D02*
X101359647Y-74841223D01*
X101359647Y-74841223D02*
X101312028Y-74865033D01*
X101312028Y-74865033D02*
X101216790Y-74865033D01*
X101216790Y-74865033D02*
X101169171Y-74841223D01*
X101169171Y-74841223D02*
X101145362Y-74817414D01*
X101145362Y-74817414D02*
X101121552Y-74769795D01*
X86370290Y-62467276D02*
X86394100Y-62443467D01*
X86394100Y-62443467D02*
X86417909Y-62372038D01*
X86417909Y-62372038D02*
X86417909Y-62324419D01*
X86417909Y-62324419D02*
X86394100Y-62252991D01*
X86394100Y-62252991D02*
X86346480Y-62205372D01*
X86346480Y-62205372D02*
X86298861Y-62181562D01*
X86298861Y-62181562D02*
X86203623Y-62157753D01*
X86203623Y-62157753D02*
X86132195Y-62157753D01*
X86132195Y-62157753D02*
X86036957Y-62181562D01*
X86036957Y-62181562D02*
X85989338Y-62205372D01*
X85989338Y-62205372D02*
X85941719Y-62252991D01*
X85941719Y-62252991D02*
X85917909Y-62324419D01*
X85917909Y-62324419D02*
X85917909Y-62372038D01*
X85917909Y-62372038D02*
X85941719Y-62443467D01*
X85941719Y-62443467D02*
X85965528Y-62467276D01*
X85965528Y-62657753D02*
X85941719Y-62681562D01*
X85941719Y-62681562D02*
X85917909Y-62729181D01*
X85917909Y-62729181D02*
X85917909Y-62848229D01*
X85917909Y-62848229D02*
X85941719Y-62895848D01*
X85941719Y-62895848D02*
X85965528Y-62919657D01*
X85965528Y-62919657D02*
X86013147Y-62943467D01*
X86013147Y-62943467D02*
X86060766Y-62943467D01*
X86060766Y-62943467D02*
X86132195Y-62919657D01*
X86132195Y-62919657D02*
X86417909Y-62633943D01*
X86417909Y-62633943D02*
X86417909Y-62943467D01*
X85917909Y-63110133D02*
X85917909Y-63419657D01*
X85917909Y-63419657D02*
X86108385Y-63252990D01*
X86108385Y-63252990D02*
X86108385Y-63324419D01*
X86108385Y-63324419D02*
X86132195Y-63372038D01*
X86132195Y-63372038D02*
X86156004Y-63395847D01*
X86156004Y-63395847D02*
X86203623Y-63419657D01*
X86203623Y-63419657D02*
X86322671Y-63419657D01*
X86322671Y-63419657D02*
X86370290Y-63395847D01*
X86370290Y-63395847D02*
X86394100Y-63372038D01*
X86394100Y-63372038D02*
X86417909Y-63324419D01*
X86417909Y-63324419D02*
X86417909Y-63181562D01*
X86417909Y-63181562D02*
X86394100Y-63133943D01*
X86394100Y-63133943D02*
X86370290Y-63110133D01*
X85917909Y-63729180D02*
X85917909Y-63776799D01*
X85917909Y-63776799D02*
X85941719Y-63824418D01*
X85941719Y-63824418D02*
X85965528Y-63848228D01*
X85965528Y-63848228D02*
X86013147Y-63872037D01*
X86013147Y-63872037D02*
X86108385Y-63895847D01*
X86108385Y-63895847D02*
X86227433Y-63895847D01*
X86227433Y-63895847D02*
X86322671Y-63872037D01*
X86322671Y-63872037D02*
X86370290Y-63848228D01*
X86370290Y-63848228D02*
X86394100Y-63824418D01*
X86394100Y-63824418D02*
X86417909Y-63776799D01*
X86417909Y-63776799D02*
X86417909Y-63729180D01*
X86417909Y-63729180D02*
X86394100Y-63681561D01*
X86394100Y-63681561D02*
X86370290Y-63657752D01*
X86370290Y-63657752D02*
X86322671Y-63633942D01*
X86322671Y-63633942D02*
X86227433Y-63610133D01*
X86227433Y-63610133D02*
X86108385Y-63610133D01*
X86108385Y-63610133D02*
X86013147Y-63633942D01*
X86013147Y-63633942D02*
X85965528Y-63657752D01*
X85965528Y-63657752D02*
X85941719Y-63681561D01*
X85941719Y-63681561D02*
X85917909Y-63729180D01*
X107579290Y-70620676D02*
X107603100Y-70596867D01*
X107603100Y-70596867D02*
X107626909Y-70525438D01*
X107626909Y-70525438D02*
X107626909Y-70477819D01*
X107626909Y-70477819D02*
X107603100Y-70406391D01*
X107603100Y-70406391D02*
X107555480Y-70358772D01*
X107555480Y-70358772D02*
X107507861Y-70334962D01*
X107507861Y-70334962D02*
X107412623Y-70311153D01*
X107412623Y-70311153D02*
X107341195Y-70311153D01*
X107341195Y-70311153D02*
X107245957Y-70334962D01*
X107245957Y-70334962D02*
X107198338Y-70358772D01*
X107198338Y-70358772D02*
X107150719Y-70406391D01*
X107150719Y-70406391D02*
X107126909Y-70477819D01*
X107126909Y-70477819D02*
X107126909Y-70525438D01*
X107126909Y-70525438D02*
X107150719Y-70596867D01*
X107150719Y-70596867D02*
X107174528Y-70620676D01*
X107126909Y-70787343D02*
X107126909Y-71096867D01*
X107126909Y-71096867D02*
X107317385Y-70930200D01*
X107317385Y-70930200D02*
X107317385Y-71001629D01*
X107317385Y-71001629D02*
X107341195Y-71049248D01*
X107341195Y-71049248D02*
X107365004Y-71073057D01*
X107365004Y-71073057D02*
X107412623Y-71096867D01*
X107412623Y-71096867D02*
X107531671Y-71096867D01*
X107531671Y-71096867D02*
X107579290Y-71073057D01*
X107579290Y-71073057D02*
X107603100Y-71049248D01*
X107603100Y-71049248D02*
X107626909Y-71001629D01*
X107626909Y-71001629D02*
X107626909Y-70858772D01*
X107626909Y-70858772D02*
X107603100Y-70811153D01*
X107603100Y-70811153D02*
X107579290Y-70787343D01*
X107126909Y-71406390D02*
X107126909Y-71454009D01*
X107126909Y-71454009D02*
X107150719Y-71501628D01*
X107150719Y-71501628D02*
X107174528Y-71525438D01*
X107174528Y-71525438D02*
X107222147Y-71549247D01*
X107222147Y-71549247D02*
X107317385Y-71573057D01*
X107317385Y-71573057D02*
X107436433Y-71573057D01*
X107436433Y-71573057D02*
X107531671Y-71549247D01*
X107531671Y-71549247D02*
X107579290Y-71525438D01*
X107579290Y-71525438D02*
X107603100Y-71501628D01*
X107603100Y-71501628D02*
X107626909Y-71454009D01*
X107626909Y-71454009D02*
X107626909Y-71406390D01*
X107626909Y-71406390D02*
X107603100Y-71358771D01*
X107603100Y-71358771D02*
X107579290Y-71334962D01*
X107579290Y-71334962D02*
X107531671Y-71311152D01*
X107531671Y-71311152D02*
X107436433Y-71287343D01*
X107436433Y-71287343D02*
X107317385Y-71287343D01*
X107317385Y-71287343D02*
X107222147Y-71311152D01*
X107222147Y-71311152D02*
X107174528Y-71334962D01*
X107174528Y-71334962D02*
X107150719Y-71358771D01*
X107150719Y-71358771D02*
X107126909Y-71406390D01*
X107174528Y-71763533D02*
X107150719Y-71787342D01*
X107150719Y-71787342D02*
X107126909Y-71834961D01*
X107126909Y-71834961D02*
X107126909Y-71954009D01*
X107126909Y-71954009D02*
X107150719Y-72001628D01*
X107150719Y-72001628D02*
X107174528Y-72025437D01*
X107174528Y-72025437D02*
X107222147Y-72049247D01*
X107222147Y-72049247D02*
X107269766Y-72049247D01*
X107269766Y-72049247D02*
X107341195Y-72025437D01*
X107341195Y-72025437D02*
X107626909Y-71739723D01*
X107626909Y-71739723D02*
X107626909Y-72049247D01*
X80502923Y-71561890D02*
X80526732Y-71585700D01*
X80526732Y-71585700D02*
X80598161Y-71609509D01*
X80598161Y-71609509D02*
X80645780Y-71609509D01*
X80645780Y-71609509D02*
X80717208Y-71585700D01*
X80717208Y-71585700D02*
X80764827Y-71538080D01*
X80764827Y-71538080D02*
X80788637Y-71490461D01*
X80788637Y-71490461D02*
X80812446Y-71395223D01*
X80812446Y-71395223D02*
X80812446Y-71323795D01*
X80812446Y-71323795D02*
X80788637Y-71228557D01*
X80788637Y-71228557D02*
X80764827Y-71180938D01*
X80764827Y-71180938D02*
X80717208Y-71133319D01*
X80717208Y-71133319D02*
X80645780Y-71109509D01*
X80645780Y-71109509D02*
X80598161Y-71109509D01*
X80598161Y-71109509D02*
X80526732Y-71133319D01*
X80526732Y-71133319D02*
X80502923Y-71157128D01*
X80312446Y-71157128D02*
X80288637Y-71133319D01*
X80288637Y-71133319D02*
X80241018Y-71109509D01*
X80241018Y-71109509D02*
X80121970Y-71109509D01*
X80121970Y-71109509D02*
X80074351Y-71133319D01*
X80074351Y-71133319D02*
X80050542Y-71157128D01*
X80050542Y-71157128D02*
X80026732Y-71204747D01*
X80026732Y-71204747D02*
X80026732Y-71252366D01*
X80026732Y-71252366D02*
X80050542Y-71323795D01*
X80050542Y-71323795D02*
X80336256Y-71609509D01*
X80336256Y-71609509D02*
X80026732Y-71609509D01*
X79836256Y-71157128D02*
X79812447Y-71133319D01*
X79812447Y-71133319D02*
X79764828Y-71109509D01*
X79764828Y-71109509D02*
X79645780Y-71109509D01*
X79645780Y-71109509D02*
X79598161Y-71133319D01*
X79598161Y-71133319D02*
X79574352Y-71157128D01*
X79574352Y-71157128D02*
X79550542Y-71204747D01*
X79550542Y-71204747D02*
X79550542Y-71252366D01*
X79550542Y-71252366D02*
X79574352Y-71323795D01*
X79574352Y-71323795D02*
X79860066Y-71609509D01*
X79860066Y-71609509D02*
X79550542Y-71609509D01*
X79383876Y-71109509D02*
X79050543Y-71109509D01*
X79050543Y-71109509D02*
X79264828Y-71609509D01*
X89154723Y-73940090D02*
X89178532Y-73963900D01*
X89178532Y-73963900D02*
X89249961Y-73987709D01*
X89249961Y-73987709D02*
X89297580Y-73987709D01*
X89297580Y-73987709D02*
X89369008Y-73963900D01*
X89369008Y-73963900D02*
X89416627Y-73916280D01*
X89416627Y-73916280D02*
X89440437Y-73868661D01*
X89440437Y-73868661D02*
X89464246Y-73773423D01*
X89464246Y-73773423D02*
X89464246Y-73701995D01*
X89464246Y-73701995D02*
X89440437Y-73606757D01*
X89440437Y-73606757D02*
X89416627Y-73559138D01*
X89416627Y-73559138D02*
X89369008Y-73511519D01*
X89369008Y-73511519D02*
X89297580Y-73487709D01*
X89297580Y-73487709D02*
X89249961Y-73487709D01*
X89249961Y-73487709D02*
X89178532Y-73511519D01*
X89178532Y-73511519D02*
X89154723Y-73535328D01*
X88964246Y-73535328D02*
X88940437Y-73511519D01*
X88940437Y-73511519D02*
X88892818Y-73487709D01*
X88892818Y-73487709D02*
X88773770Y-73487709D01*
X88773770Y-73487709D02*
X88726151Y-73511519D01*
X88726151Y-73511519D02*
X88702342Y-73535328D01*
X88702342Y-73535328D02*
X88678532Y-73582947D01*
X88678532Y-73582947D02*
X88678532Y-73630566D01*
X88678532Y-73630566D02*
X88702342Y-73701995D01*
X88702342Y-73701995D02*
X88988056Y-73987709D01*
X88988056Y-73987709D02*
X88678532Y-73987709D01*
X88511866Y-73487709D02*
X88202342Y-73487709D01*
X88202342Y-73487709D02*
X88369009Y-73678185D01*
X88369009Y-73678185D02*
X88297580Y-73678185D01*
X88297580Y-73678185D02*
X88249961Y-73701995D01*
X88249961Y-73701995D02*
X88226152Y-73725804D01*
X88226152Y-73725804D02*
X88202342Y-73773423D01*
X88202342Y-73773423D02*
X88202342Y-73892471D01*
X88202342Y-73892471D02*
X88226152Y-73940090D01*
X88226152Y-73940090D02*
X88249961Y-73963900D01*
X88249961Y-73963900D02*
X88297580Y-73987709D01*
X88297580Y-73987709D02*
X88440437Y-73987709D01*
X88440437Y-73987709D02*
X88488056Y-73963900D01*
X88488056Y-73963900D02*
X88511866Y-73940090D01*
X87773771Y-73654376D02*
X87773771Y-73987709D01*
X87892819Y-73463900D02*
X88011866Y-73821042D01*
X88011866Y-73821042D02*
X87702343Y-73821042D01*
X101000723Y-70034709D02*
X101167389Y-69796614D01*
X101286437Y-70034709D02*
X101286437Y-69534709D01*
X101286437Y-69534709D02*
X101095961Y-69534709D01*
X101095961Y-69534709D02*
X101048342Y-69558519D01*
X101048342Y-69558519D02*
X101024532Y-69582328D01*
X101024532Y-69582328D02*
X101000723Y-69629947D01*
X101000723Y-69629947D02*
X101000723Y-69701376D01*
X101000723Y-69701376D02*
X101024532Y-69748995D01*
X101024532Y-69748995D02*
X101048342Y-69772804D01*
X101048342Y-69772804D02*
X101095961Y-69796614D01*
X101095961Y-69796614D02*
X101286437Y-69796614D01*
X100834056Y-69534709D02*
X100524532Y-69534709D01*
X100524532Y-69534709D02*
X100691199Y-69725185D01*
X100691199Y-69725185D02*
X100619770Y-69725185D01*
X100619770Y-69725185D02*
X100572151Y-69748995D01*
X100572151Y-69748995D02*
X100548342Y-69772804D01*
X100548342Y-69772804D02*
X100524532Y-69820423D01*
X100524532Y-69820423D02*
X100524532Y-69939471D01*
X100524532Y-69939471D02*
X100548342Y-69987090D01*
X100548342Y-69987090D02*
X100572151Y-70010900D01*
X100572151Y-70010900D02*
X100619770Y-70034709D01*
X100619770Y-70034709D02*
X100762627Y-70034709D01*
X100762627Y-70034709D02*
X100810246Y-70010900D01*
X100810246Y-70010900D02*
X100834056Y-69987090D01*
X100215009Y-69534709D02*
X100167390Y-69534709D01*
X100167390Y-69534709D02*
X100119771Y-69558519D01*
X100119771Y-69558519D02*
X100095961Y-69582328D01*
X100095961Y-69582328D02*
X100072152Y-69629947D01*
X100072152Y-69629947D02*
X100048342Y-69725185D01*
X100048342Y-69725185D02*
X100048342Y-69844233D01*
X100048342Y-69844233D02*
X100072152Y-69939471D01*
X100072152Y-69939471D02*
X100095961Y-69987090D01*
X100095961Y-69987090D02*
X100119771Y-70010900D01*
X100119771Y-70010900D02*
X100167390Y-70034709D01*
X100167390Y-70034709D02*
X100215009Y-70034709D01*
X100215009Y-70034709D02*
X100262628Y-70010900D01*
X100262628Y-70010900D02*
X100286437Y-69987090D01*
X100286437Y-69987090D02*
X100310247Y-69939471D01*
X100310247Y-69939471D02*
X100334056Y-69844233D01*
X100334056Y-69844233D02*
X100334056Y-69725185D01*
X100334056Y-69725185D02*
X100310247Y-69629947D01*
X100310247Y-69629947D02*
X100286437Y-69582328D01*
X100286437Y-69582328D02*
X100262628Y-69558519D01*
X100262628Y-69558519D02*
X100215009Y-69534709D01*
X99881676Y-69534709D02*
X99548343Y-69534709D01*
X99548343Y-69534709D02*
X99762628Y-70034709D01*
X84531890Y-66699676D02*
X84555700Y-66675867D01*
X84555700Y-66675867D02*
X84579509Y-66604438D01*
X84579509Y-66604438D02*
X84579509Y-66556819D01*
X84579509Y-66556819D02*
X84555700Y-66485391D01*
X84555700Y-66485391D02*
X84508080Y-66437772D01*
X84508080Y-66437772D02*
X84460461Y-66413962D01*
X84460461Y-66413962D02*
X84365223Y-66390153D01*
X84365223Y-66390153D02*
X84293795Y-66390153D01*
X84293795Y-66390153D02*
X84198557Y-66413962D01*
X84198557Y-66413962D02*
X84150938Y-66437772D01*
X84150938Y-66437772D02*
X84103319Y-66485391D01*
X84103319Y-66485391D02*
X84079509Y-66556819D01*
X84079509Y-66556819D02*
X84079509Y-66604438D01*
X84079509Y-66604438D02*
X84103319Y-66675867D01*
X84103319Y-66675867D02*
X84127128Y-66699676D01*
X84127128Y-66890153D02*
X84103319Y-66913962D01*
X84103319Y-66913962D02*
X84079509Y-66961581D01*
X84079509Y-66961581D02*
X84079509Y-67080629D01*
X84079509Y-67080629D02*
X84103319Y-67128248D01*
X84103319Y-67128248D02*
X84127128Y-67152057D01*
X84127128Y-67152057D02*
X84174747Y-67175867D01*
X84174747Y-67175867D02*
X84222366Y-67175867D01*
X84222366Y-67175867D02*
X84293795Y-67152057D01*
X84293795Y-67152057D02*
X84579509Y-66866343D01*
X84579509Y-66866343D02*
X84579509Y-67175867D01*
X84579509Y-67652057D02*
X84579509Y-67366343D01*
X84579509Y-67509200D02*
X84079509Y-67509200D01*
X84079509Y-67509200D02*
X84150938Y-67461581D01*
X84150938Y-67461581D02*
X84198557Y-67413962D01*
X84198557Y-67413962D02*
X84222366Y-67366343D01*
X84579509Y-68128247D02*
X84579509Y-67842533D01*
X84579509Y-67985390D02*
X84079509Y-67985390D01*
X84079509Y-67985390D02*
X84150938Y-67937771D01*
X84150938Y-67937771D02*
X84198557Y-67890152D01*
X84198557Y-67890152D02*
X84222366Y-67842533D01*
D11*
%TO.C,J401*%
X37425078Y-68668985D02*
G75*
G02*
X36663078Y-68668985I-381000J0D01*
G01*
X36663078Y-68668985D02*
G75*
G02*
X37425078Y-68668985I381000J0D01*
G01*
D12*
%TO.C,C310*%
X106086236Y-73461800D02*
X105870564Y-73461800D01*
X106086236Y-74181800D02*
X105870564Y-74181800D01*
%TO.C,C313*%
X105872400Y-68595636D02*
X105872400Y-68379964D01*
X106592400Y-68595636D02*
X106592400Y-68379964D01*
%TO.C,C221*%
X79841190Y-67091307D02*
X79993693Y-67243810D01*
X80350307Y-66582190D02*
X80502810Y-66734693D01*
%TO.C,C214*%
X80648364Y-74935000D02*
X80864036Y-74935000D01*
X80648364Y-75655000D02*
X80864036Y-75655000D01*
%TO.C,C208*%
X86593800Y-75555236D02*
X86593800Y-75339564D01*
X87313800Y-75555236D02*
X87313800Y-75339564D01*
%TO.C,C229*%
X85575964Y-70769400D02*
X85791636Y-70769400D01*
X85575964Y-71489400D02*
X85791636Y-71489400D01*
%TO.C,C231*%
X84907800Y-68637036D02*
X84907800Y-68421364D01*
X85627800Y-68637036D02*
X85627800Y-68421364D01*
%TO.C,C307*%
X102695564Y-66070400D02*
X102911236Y-66070400D01*
X102695564Y-66790400D02*
X102911236Y-66790400D01*
%TO.C,C222*%
X85575964Y-71709200D02*
X85791636Y-71709200D01*
X85575964Y-72429200D02*
X85791636Y-72429200D01*
%TO.C,C311*%
X95507364Y-66070400D02*
X95723036Y-66070400D01*
X95507364Y-66790400D02*
X95723036Y-66790400D01*
%TO.C,C225*%
X81930836Y-69118400D02*
X81715164Y-69118400D01*
X81930836Y-69838400D02*
X81715164Y-69838400D01*
%TO.C,C206*%
X83749000Y-71821436D02*
X83749000Y-71605764D01*
X84469000Y-71821436D02*
X84469000Y-71605764D01*
%TO.C,C305*%
X106111636Y-66095800D02*
X105895964Y-66095800D01*
X106111636Y-66815800D02*
X105895964Y-66815800D01*
%TO.C,C216*%
X79860964Y-70083600D02*
X80076636Y-70083600D01*
X79860964Y-70803600D02*
X80076636Y-70803600D01*
%TO.C,C205*%
X85918636Y-66070400D02*
X85702964Y-66070400D01*
X85918636Y-66790400D02*
X85702964Y-66790400D01*
%TO.C,C312*%
X96980564Y-73411000D02*
X97196236Y-73411000D01*
X96980564Y-74131000D02*
X97196236Y-74131000D01*
%TO.C,C308*%
X100168036Y-72445800D02*
X99952364Y-72445800D01*
X100168036Y-73165800D02*
X99952364Y-73165800D01*
%TO.C,C314*%
X104196000Y-73180564D02*
X104196000Y-73396236D01*
X104916000Y-73180564D02*
X104916000Y-73396236D01*
%TO.C,C306*%
X95100964Y-73055400D02*
X95316636Y-73055400D01*
X95100964Y-73775400D02*
X95316636Y-73775400D01*
%TO.C,C219*%
X86747236Y-67889800D02*
X86531564Y-67889800D01*
X86747236Y-68609800D02*
X86531564Y-68609800D01*
%TO.C,C209*%
X82977400Y-69107164D02*
X82977400Y-69322836D01*
X83697400Y-69107164D02*
X83697400Y-69322836D01*
%TO.C,C220*%
X81880036Y-71963200D02*
X81664364Y-71963200D01*
X81880036Y-72683200D02*
X81664364Y-72683200D01*
%TO.C,C232*%
X81638964Y-73995200D02*
X81854636Y-73995200D01*
X81638964Y-74715200D02*
X81854636Y-74715200D01*
%TO.C,C228*%
X84686964Y-73334800D02*
X84902636Y-73334800D01*
X84686964Y-74054800D02*
X84902636Y-74054800D01*
%TO.C,C217*%
X82809200Y-71821436D02*
X82809200Y-71605764D01*
X83529200Y-71821436D02*
X83529200Y-71605764D01*
%TO.C,C226*%
X81905436Y-70058200D02*
X81689764Y-70058200D01*
X81905436Y-70778200D02*
X81689764Y-70778200D01*
%TO.C,C223*%
X80051236Y-72522000D02*
X79835564Y-72522000D01*
X80051236Y-73242000D02*
X79835564Y-73242000D01*
%TO.C,C309*%
X102098436Y-73309400D02*
X101882764Y-73309400D01*
X102098436Y-74029400D02*
X101882764Y-74029400D01*
%TO.C,C230*%
X85831800Y-64874764D02*
X85831800Y-65090436D01*
X86551800Y-64874764D02*
X86551800Y-65090436D01*
%TO.C,C302*%
X107040800Y-73243836D02*
X107040800Y-73028164D01*
X107760800Y-73243836D02*
X107760800Y-73028164D01*
%TO.C,C227*%
X81905436Y-70998000D02*
X81689764Y-70998000D01*
X81905436Y-71718000D02*
X81689764Y-71718000D01*
%TO.C,C234*%
X86747236Y-73325400D02*
X86531564Y-73325400D01*
X86747236Y-74045400D02*
X86531564Y-74045400D01*
%TO.C,R307*%
X100249459Y-70312868D02*
X100556741Y-70312868D01*
X100249459Y-71072868D02*
X100556741Y-71072868D01*
%TO.C,C211*%
X83942600Y-69030964D02*
X83942600Y-69246636D01*
X84662600Y-69030964D02*
X84662600Y-69246636D01*
%TD*%
M02*
