M48
; DRILL file {KiCad 8.0.1} date 2025-05-27T09:35:15-0700
; FORMAT={-:-/ absolute / metric / decimal}
; #@! TF.CreationDate,2025-05-27T09:35:15-07:00
; #@! TF.GenerationSoftware,Kicad,Pcbnew,8.0.1
; #@! TF.FileFunction,Plated,1,6,PTH
FMAT,2
METRIC
; #@! TA.AperFunction,Plated,PTH,ViaDrill
T1C0.200
; #@! TA.AperFunction,Plated,PTH,ComponentDrill
T2C0.200
; #@! TA.AperFunction,Plated,PTH,ComponentDrill
T3C0.800
; #@! TA.AperFunction,Plated,PTH,ComponentDrill
T4C0.889
; #@! TA.AperFunction,Plated,PTH,ComponentDrill
T5C0.950
; #@! TA.AperFunction,Plated,PTH,ComponentDrill
T6C1.000
; #@! TA.AperFunction,Plated,PTH,ComponentDrill
T7C1.016
; #@! TA.AperFunction,Plated,PTH,ComponentDrill
T8C1.600
; #@! TA.AperFunction,Plated,PTH,ComponentDrill
T9C1.626
; #@! TA.AperFunction,Plated,PTH,ComponentDrill
T10C2.300
%
G90
G05
T1
X35.474Y-69.678
X36.312Y-72.904
X37.049Y-74.834
X37.069Y-50.907
X37.069Y-57.45
X37.095Y-41.905
X37.095Y-42.906
X37.095Y-45.934
X37.095Y-53.935
X37.12Y-40.915
X37.146Y-49.916
X38.134Y-68.091
X38.898Y-46.462
X38.924Y-50.424
X38.948Y-41.437
X38.948Y-42.427
X41.539Y-41.437
X44.221Y-81.178
X44.822Y-43.938
X45.352Y-38.551
X45.857Y-42.008
X46.533Y-44.376
X47.473Y-43.208
X47.477Y-45.533
X49.047Y-103.302
X49.324Y-121.864
X49.768Y-86.192
X50.724Y-121.361
X50.976Y-103.326
X51.687Y-91.922
X51.724Y-85.891
X51.724Y-87.897
X52.257Y-86.852
X52.652Y-90.217
X52.677Y-89.709
X53.324Y-87.462
X58.738Y-70.518
X58.785Y-118.338
X59.211Y-116.039
X59.82Y-117.462
X60.448Y-112.562
X60.477Y-111.608
X60.499Y-113.527
X60.512Y-109.6
X60.512Y-110.565
X60.512Y-115.493
X60.604Y-114.478
X62.484Y-116.256
X62.713Y-111.227
X63.408Y-117.624
X65.011Y-63.321
X65.014Y-53.313
X65.014Y-54.025
X65.014Y-54.782
X65.014Y-56.326
X65.014Y-57.098
X65.014Y-57.87
X65.014Y-58.642
X65.014Y-59.415
X65.014Y-60.187
X65.014Y-60.959
X65.018Y-61.743
X65.018Y-62.556
X65.507Y-107.112
X65.542Y-53.654
X65.776Y-54.456
X65.827Y-56.763
X65.827Y-57.517
X65.827Y-58.272
X65.827Y-59.026
X65.827Y-59.78
X65.827Y-60.535
X65.827Y-61.289
X65.83Y-62.2
X65.856Y-62.911
X65.875Y-63.829
X66.405Y-117.726
X66.789Y-56.362
X66.789Y-59.029
X67.39Y-117.716
X67.828Y-113.512
X68.478Y-107.112
X68.92Y-71.358
X68.945Y-72.069
X68.945Y-73.974
X69.017Y-51.491
X69.352Y-71.714
X69.377Y-70.901
X69.858Y-109.956
X69.886Y-74.66
X69.91Y-110.921
X69.983Y-50.501
X69.987Y-70.926
X69.999Y-112.866
X70.01Y-113.867
X70.031Y-115.785
X70.033Y-53.066
X70.037Y-75.215
X70.037Y-76.387
X70.444Y-79.13
X70.547Y-51.512
X70.799Y-78.673
X71.561Y-55.684
X71.866Y-78.521
X71.968Y-57.515
X72.045Y-46.03
X72.045Y-50.552
X72.045Y-53.041
X72.069Y-78.013
X72.071Y-52.05
X72.72Y-80.366
X73.897Y-72.828
X74.077Y-46.03
X74.077Y-50.552
X74.077Y-53.041
X74.103Y-52.05
X74.108Y-54.031
X74.108Y-54.539
X74.108Y-55.555
X74.119Y-47.997
X74.119Y-48.505
X74.119Y-49.013
X74.119Y-49.521
X74.178Y-69.682
X74.355Y-76.082
X74.381Y-55.026
X74.559Y-68.31
X74.736Y-60.207
X74.965Y-69.682
X75.016Y-78.267
X75.041Y-57.464
X75.27Y-63.89
X75.371Y-60.207
X75.422Y-70.469
X75.498Y-69.707
X75.524Y-78.165
X75.676Y-76.133
X75.752Y-66.075
X75.879Y-70.875
X76.286Y-60.614
X76.489Y-71.307
X76.497Y-76.918
X76.514Y-63.687
X76.514Y-75.727
X76.54Y-64.475
X76.565Y-67.7
X76.794Y-77.733
X77.302Y-68.894
X77.327Y-60.207
X77.327Y-77.937
X77.353Y-62.925
X77.378Y-72.831
X77.378Y-75.219
X77.708Y-57.058
X77.724Y-56.312
X78.089Y-73.619
X78.089Y-69.682
X78.115Y-64.881
X78.115Y-72.907
X78.14Y-70.469
X78.14Y-77.149
X78.191Y-59.776
X78.724Y-55.864
X78.877Y-56.804
X78.902Y-70.469
X78.924Y-66.491
X78.924Y-67.291
X78.924Y-68.091
X78.924Y-68.891
X78.924Y-69.691
X78.924Y-71.291
X78.924Y-72.091
X78.924Y-73.691
X78.927Y-65.719
X79.258Y-57.642
X79.461Y-62.976
X79.588Y-61.858
X79.639Y-74.406
X79.664Y-75.244
X79.689Y-73.644
X79.724Y-65.691
X79.724Y-67.291
X79.724Y-68.091
X79.724Y-68.891
X79.724Y-69.691
X79.724Y-70.491
X79.724Y-71.291
X79.724Y-72.091
X79.724Y-72.891
X79.74Y-77.098
X79.816Y-66.583
X80.451Y-57.769
X80.502Y-61.3
X80.524Y-65.691
X80.524Y-66.491
X80.524Y-68.091
X80.524Y-68.891
X80.524Y-69.691
X80.524Y-70.491
X80.524Y-71.291
X80.524Y-72.091
X80.524Y-72.891
X80.524Y-73.691
X80.524Y-74.491
X80.524Y-75.291
X80.528Y-67.269
X80.604Y-62.417
X80.604Y-63.052
X80.731Y-60.182
X80.909Y-57.515
X80.909Y-76.844
X81.315Y-68.716
X81.324Y-65.691
X81.324Y-66.491
X81.324Y-67.291
X81.324Y-68.091
X81.324Y-69.691
X81.324Y-70.491
X81.324Y-71.291
X81.324Y-72.091
X81.324Y-72.891
X81.324Y-73.691
X81.324Y-74.491
X81.324Y-75.291
X81.391Y-58.379
X81.467Y-79.943
X81.721Y-60.487
X81.772Y-62.874
X81.925Y-80.4
X82.077Y-68.056
X82.077Y-82.636
X82.124Y-65.691
X82.124Y-66.491
X82.124Y-67.291
X82.124Y-68.891
X82.124Y-69.691
X82.124Y-70.491
X82.124Y-71.291
X82.124Y-72.091
X82.124Y-72.958
X82.124Y-74.491
X82.124Y-75.291
X82.128Y-73.695
X82.128Y-77.81
X82.306Y-57.845
X82.585Y-77.403
X82.661Y-56.423
X82.864Y-59.699
X82.89Y-73.644
X82.915Y-62.671
X82.924Y-65.691
X82.924Y-66.491
X82.924Y-67.291
X82.924Y-68.091
X82.924Y-68.891
X82.924Y-69.691
X82.924Y-71.291
X82.924Y-72.091
X82.924Y-72.891
X82.924Y-75.291
X82.991Y-74.508
X83.093Y-60.817
X83.144Y-83.245
X83.322Y-77.987
X83.576Y-80.211
X83.626Y-58.48
X83.703Y-73.619
X83.724Y-65.691
X83.724Y-66.491
X83.724Y-67.291
X83.724Y-68.091
X83.724Y-68.891
X83.724Y-69.691
X83.724Y-71.291
X83.724Y-72.091
X83.724Y-72.891
X83.724Y-74.491
X83.724Y-75.291
X83.83Y-77.733
X84.033Y-61.173
X84.058Y-77.022
X84.134Y-62.062
X84.49Y-75.244
X84.515Y-73.644
X84.515Y-83.652
X84.524Y-65.691
X84.524Y-66.491
X84.524Y-67.291
X84.524Y-68.891
X84.524Y-69.691
X84.524Y-71.291
X84.524Y-72.091
X84.524Y-72.891
X84.524Y-74.491
X84.541Y-80.197
X84.617Y-61.173
X84.617Y-62.29
X84.973Y-77.784
X84.973Y-81.467
X84.998Y-60.207
X85.176Y-61.173
X85.277Y-66.43
X85.324Y-67.291
X85.324Y-68.091
X85.324Y-68.891
X85.324Y-69.691
X85.324Y-71.291
X85.324Y-72.091
X85.324Y-72.891
X85.324Y-73.691
X85.324Y-74.491
X85.324Y-75.291
X85.328Y-64.906
X85.481Y-77.657
X85.582Y-48.955
X85.658Y-54.01
X85.76Y-98.638
X85.887Y-83.144
X86.124Y-65.691
X86.124Y-66.491
X86.124Y-67.291
X86.124Y-68.091
X86.124Y-69.691
X86.124Y-71.291
X86.124Y-72.891
X86.124Y-73.691
X86.124Y-74.491
X86.141Y-75.346
X86.192Y-63.205
X86.268Y-84.668
X86.284Y-80.645
X86.344Y-58.734
X86.497Y-82.178
X86.522Y-80.096
X86.547Y-59.649
X86.573Y-100.873
X86.878Y-73.746
X86.903Y-60.411
X86.903Y-72.831
X86.924Y-65.691
X86.924Y-66.491
X86.924Y-67.291
X86.924Y-68.091
X86.924Y-68.891
X86.924Y-69.691
X86.924Y-70.491
X86.924Y-71.291
X86.924Y-75.291
X86.979Y-76.032
X87.106Y-81.213
X87.284Y-59.979
X87.335Y-61.3
X87.335Y-76.971
X87.513Y-81.62
X87.69Y-59.547
X87.69Y-67.319
X87.69Y-70.444
X87.716Y-64.856
X87.716Y-65.668
X87.724Y-66.491
X87.724Y-68.091
X87.724Y-68.891
X87.724Y-69.691
X87.724Y-71.291
X87.724Y-72.891
X87.724Y-73.691
X87.767Y-74.508
X87.868Y-61.401
X88.224Y-60.893
X88.275Y-77.2
X88.503Y-69.707
X88.503Y-71.282
X88.524Y-68.091
X88.524Y-68.891
X88.524Y-72.891
X88.524Y-73.691
X88.524Y-74.491
X88.529Y-64.856
X88.554Y-67.37
X88.63Y-82.026
X88.732Y-61.122
X89.052Y-79.87
X89.113Y-100.873
X89.24Y-54.01
X89.291Y-76.819
X89.306Y-59.207
X89.316Y-75.295
X89.367Y-76.133
X89.418Y-82.128
X89.814Y-58.852
X89.976Y-82.153
X90.017Y-79.87
X90.027Y-78.927
X90.053Y-76.844
X90.18Y-76.057
X90.283Y-63.691
X90.484Y-67.523
X90.561Y-69.605
X90.586Y-82.128
X90.637Y-54.518
X90.738Y-73.746
X91.033Y-79.87
X91.067Y-72.069
X91.094Y-66.862
X91.338Y-69.494
X91.36Y-48.992
X91.37Y-53.513
X91.421Y-49.51
X91.421Y-50.018
X91.424Y-72.984
X91.425Y-51.517
X91.973Y-81.876
X91.983Y-62.087
X92.516Y-80.35
X92.938Y-81.876
X93.218Y-69.571
X93.276Y-73.822
X93.302Y-72.069
X93.432Y-52.025
X93.457Y-51.517
X94.082Y-57.379
X94.167Y-100.974
X94.345Y-82.72
X94.345Y-83.228
X94.371Y-83.812
X94.417Y-49.586
X94.524Y-52.99
X94.651Y-50.729
X94.79Y-73.233
X95.107Y-77.221
X95.196Y-66.426
X95.312Y-51.822
X95.602Y-72.039
X95.628Y-73.639
X95.677Y-53.523
X95.971Y-55.585
X96.009Y-66.426
X96.114Y-77.239
X96.251Y-51.822
X96.358Y-49.612
X96.39Y-72.039
X96.39Y-73.69
X96.415Y-68.051
X96.415Y-72.826
X96.809Y-66.426
X97.105Y-77.239
X97.228Y-68.0
X97.241Y-83.736
X97.266Y-82.771
X97.571Y-75.625
X97.609Y-66.426
X97.609Y-73.69
X98.015Y-68.889
X98.041Y-68.026
X98.041Y-72.826
X98.079Y-75.651
X98.092Y-67.264
X98.409Y-66.426
X98.409Y-73.69
X98.553Y-77.244
X98.803Y-67.238
X98.803Y-72.014
X98.854Y-68.077
X98.854Y-72.776
X98.904Y-71.074
X98.93Y-69.016
X99.489Y-68.966
X99.531Y-62.525
X99.612Y-64.292
X99.619Y-56.413
X99.641Y-67.188
X99.644Y-58.293
X99.654Y-72.776
X99.92Y-69.956
X99.997Y-71.226
X99.999Y-73.69
X100.111Y-75.625
X100.268Y-53.914
X100.344Y-59.426
X100.349Y-51.266
X100.403Y-68.0
X100.441Y-67.264
X100.454Y-72.776
X100.809Y-71.226
X101.191Y-71.988
X101.597Y-65.918
X101.612Y-73.714
X101.622Y-64.317
X101.724Y-70.769
X102.003Y-68.026
X102.029Y-71.226
X102.041Y-67.264
X102.054Y-72.039
X102.133Y-58.293
X102.409Y-66.426
X102.41Y-70.845
X102.412Y-73.714
X102.791Y-68.915
X102.816Y-65.156
X102.816Y-67.213
X102.845Y-75.997
X103.209Y-66.426
X103.212Y-73.714
X103.4Y-68.864
X103.574Y-64.292
X103.632Y-76.276
X103.654Y-65.283
X103.68Y-68.127
X104.009Y-66.426
X104.012Y-73.714
X104.391Y-72.014
X104.416Y-72.903
X104.75Y-75.184
X104.809Y-66.426
X104.848Y-73.715
X104.975Y-68.813
X105.102Y-67.315
X105.205Y-68.034
X105.45Y-62.499
X105.512Y-69.037
X105.609Y-66.426
X105.61Y-73.715
X105.936Y-64.267
X105.993Y-68.008
X106.409Y-66.426
X106.41Y-73.715
X106.423Y-68.966
X106.855Y-68.0
X107.209Y-66.426
X107.21Y-73.715
X107.21Y-71.125
X107.401Y-72.196
X107.49Y-68.737
X108.198Y-97.107
X109.676Y-72.474
X109.676Y-73.439
X109.701Y-65.896
X109.727Y-66.835
X110.692Y-72.474
X110.692Y-73.439
X110.738Y-97.132
X113.304Y-97.107
X113.946Y-67.666
X114.022Y-66.802
X114.046Y-64.287
X114.046Y-65.253
X114.898Y-62.398
X115.762Y-48.885
X116.702Y-62.398
X116.854Y-48.885
X116.992Y-64.338
X116.992Y-65.253
X116.994Y-66.751
X117.019Y-67.716
T2
X64.18Y-112.066
X64.18Y-113.066
X64.18Y-114.066
X65.18Y-112.066
X65.18Y-113.066
X65.18Y-114.066
X66.18Y-112.066
X66.18Y-113.066
X66.18Y-114.066
T3
X109.265Y-99.306
X109.265Y-106.926
X111.805Y-99.306
X111.805Y-106.926
X114.345Y-99.306
X114.345Y-106.926
X116.885Y-99.306
X116.885Y-106.926
T4
X49.61Y-108.114
X49.61Y-110.654
X49.61Y-113.194
X49.61Y-115.734
X52.15Y-109.384
X52.15Y-111.924
X52.15Y-114.464
X52.15Y-117.004
T5
X45.458Y-88.976
X45.458Y-91.476
X47.458Y-88.976
X47.458Y-91.476
T6
X33.334Y-28.356
X33.334Y-30.896
X35.874Y-28.356
X35.874Y-30.896
X38.414Y-28.356
X38.414Y-30.896
X40.954Y-28.356
X40.954Y-30.896
X43.494Y-28.356
X43.494Y-30.896
X46.034Y-28.356
X46.034Y-30.896
X48.574Y-28.356
X48.574Y-30.896
X51.114Y-28.356
X51.114Y-30.896
X53.654Y-28.356
X53.654Y-30.896
X53.862Y-72.293
X56.194Y-28.356
X56.194Y-30.896
X56.402Y-72.293
X58.734Y-28.356
X58.734Y-30.896
X61.274Y-28.356
X61.274Y-30.896
X63.814Y-28.356
X63.814Y-30.896
X66.354Y-28.356
X66.354Y-30.896
X68.894Y-28.356
X68.894Y-30.896
X71.434Y-28.356
X71.434Y-30.896
X73.974Y-28.356
X73.974Y-30.896
X76.514Y-28.356
X76.514Y-30.896
X76.606Y-119.482
X76.606Y-122.022
X79.054Y-28.356
X79.054Y-30.896
X79.146Y-119.482
X79.146Y-122.022
X81.594Y-28.356
X81.594Y-30.896
X81.686Y-119.482
X81.686Y-122.022
X84.134Y-28.356
X84.134Y-30.896
X84.226Y-119.482
X84.226Y-122.022
X86.674Y-28.356
X86.674Y-30.896
X86.766Y-119.482
X86.766Y-122.022
X89.214Y-28.356
X89.214Y-30.896
X89.306Y-119.482
X89.306Y-122.022
X91.754Y-28.356
X91.754Y-30.896
X91.846Y-119.482
X91.846Y-122.022
X94.294Y-28.356
X94.294Y-30.896
X94.386Y-119.482
X94.386Y-122.022
X96.834Y-28.356
X96.834Y-30.896
X96.926Y-119.482
X96.926Y-122.022
X97.761Y-96.851
X97.761Y-103.351
X99.374Y-28.356
X99.374Y-30.896
X99.466Y-119.482
X99.466Y-122.022
X101.914Y-28.356
X101.914Y-30.896
X102.006Y-119.482
X102.006Y-122.022
X102.261Y-96.851
X102.261Y-103.351
X104.454Y-28.356
X104.454Y-30.896
X104.546Y-119.482
X104.546Y-122.022
X106.994Y-28.356
X106.994Y-30.896
X107.086Y-119.482
X107.086Y-122.022
X109.534Y-28.356
X109.534Y-30.896
X109.626Y-119.482
X109.626Y-122.022
X112.074Y-28.356
X112.074Y-30.896
X112.166Y-119.482
X112.166Y-122.022
X114.614Y-28.356
X114.614Y-30.896
X114.706Y-119.482
X114.706Y-122.022
X117.154Y-28.356
X117.154Y-30.896
X117.246Y-119.482
X117.246Y-122.022
X119.694Y-28.356
X119.694Y-30.896
X119.786Y-119.482
X119.786Y-122.022
X122.234Y-28.356
X122.234Y-30.896
X122.326Y-119.482
X122.326Y-122.022
X124.774Y-28.356
X124.774Y-30.896
X124.866Y-119.482
X124.866Y-122.022
X127.314Y-28.356
X127.314Y-30.896
X127.406Y-119.482
X127.406Y-122.022
T7
X56.976Y-107.098
X56.976Y-109.638
X56.976Y-115.48
X56.976Y-118.02
T8
X50.657Y-41.005
X50.657Y-49.717
X124.393Y-65.186
X124.428Y-44.23
X124.428Y-76.724
X124.428Y-88.263
X124.428Y-99.802
X124.428Y-111.34
T9
X46.308Y-104.685
X46.308Y-120.433
T10
X42.758Y-84.226
X42.758Y-96.266
M30
